<svg width="40" height="40" viewBox="0 0 40 40" fill="none" xmlns="http://www.w3.org/2000/svg">
<g clip-path="url(#clip0_338_3810)">
<path d="M38.3344 22.2438C38.1525 22.7981 37.7585 23.0246 37.1977 23.0494C36.7092 23.0718 36.2219 23.1284 35.7381 23.1956C35.6814 23.2112 35.6285 23.2388 35.5831 23.2766C35.5377 23.3144 35.5007 23.3616 35.4747 23.415C35.2054 24.0176 34.9652 24.6345 34.6936 25.2348C34.6015 25.4376 34.598 25.5756 34.7495 25.749C35.0899 26.137 35.414 26.5404 35.7335 26.9461C36.1543 27.478 36.1333 27.9356 35.6589 28.4239C34.8972 29.2062 34.1297 29.983 33.3564 30.7544C32.8901 31.2155 32.4238 31.2367 31.9225 30.8287C31.5028 30.4902 31.1064 30.1281 30.6774 29.7967C30.6243 29.762 30.5644 29.7395 30.5018 29.7305C30.4392 29.7215 30.3754 29.7264 30.3148 29.7448C29.7051 29.9807 29.1106 30.2626 28.4985 30.4937C28.4021 30.5176 28.3169 30.5744 28.2572 30.6546C28.1975 30.7348 28.167 30.8333 28.1709 30.9336C28.1383 31.4384 28.0858 31.9432 28.0345 32.4468C27.9623 33.1615 27.6265 33.4658 26.9072 33.4693C26.0713 33.4693 25.2366 33.4693 24.4008 33.4693H24.009C24.009 34.177 24.009 34.8657 24.009 35.5486C24.0123 35.7404 23.9791 35.931 23.9111 36.11C23.8263 36.3057 23.6774 36.4658 23.4894 36.5631C23.3013 36.6605 23.0859 36.6892 22.8794 36.6443C22.4527 36.5464 22.1543 36.1489 22.1531 35.6501C22.1531 33.2229 22.1531 30.7964 22.1531 28.3708V27.9273C22.0097 27.9191 21.9048 27.9073 21.8034 27.9073C19.7865 27.9073 17.7697 27.9073 15.754 27.9002C15.5045 27.9002 15.4043 27.9816 15.3297 28.2116C15.0031 29.1829 14.3837 30.0262 13.5586 30.6227C12.7335 31.2193 11.7443 31.5391 10.7302 31.5372C9.71601 31.5352 8.72801 31.2116 7.90518 30.6119C7.08234 30.0121 6.4661 29.1665 6.14319 28.1939C6.04876 27.912 5.89838 27.9049 5.67105 27.9026C3.73815 27.8908 2.25525 26.755 1.79942 24.9376C1.73532 24.6929 1.69934 24.4416 1.69218 24.1887C1.67819 23.2959 1.6642 22.4019 1.69218 21.5091C1.74347 19.6645 2.85798 18.2516 4.65331 17.7503C6.65032 17.1925 8.65315 16.6499 10.6478 16.0838C10.8474 16.0248 11.0246 15.9059 11.1561 15.743C12.449 14.0553 13.6964 12.3298 15.0184 10.6716C15.8823 9.58535 17.0737 9.04046 18.4552 8.998C19.5405 8.96498 20.6271 8.98739 21.7124 8.98503H22.1589V8.57578C22.1589 7.18763 22.1589 5.79947 22.1589 4.41132C22.1589 3.77208 22.5273 3.34162 23.0682 3.33218C23.6092 3.32274 24.0172 3.76266 24.0195 4.41015C24.0195 5.28998 24.0195 6.16862 24.0195 7.09445H25.5351C26.0235 7.09445 26.5132 7.09445 27.0028 7.09445C27.6335 7.10506 27.9728 7.41878 28.038 8.0533C28.094 8.58049 28.1441 9.11477 28.1838 9.63842C28.1817 9.72704 28.2092 9.81378 28.2619 9.88462C28.3145 9.95546 28.3893 10.0063 28.474 10.0288C29.0954 10.2717 29.7005 10.556 30.3195 10.8013C30.3813 10.8186 30.446 10.8221 30.5092 10.8115C30.5724 10.8009 30.6326 10.7765 30.6856 10.74C31.1018 10.418 31.4958 10.0665 31.905 9.73278C32.4284 9.30584 32.8866 9.32116 33.3646 9.80236C34.134 10.576 34.8972 11.3572 35.6542 12.1458C36.1065 12.6176 36.1205 13.0811 35.7195 13.5977C35.5271 13.8441 35.3231 14.0812 35.1261 14.323C34.9291 14.5648 34.7484 14.7948 34.5933 14.9799C34.8941 15.7395 35.1762 16.4671 35.4758 17.1854C35.5091 17.2356 35.5526 17.2781 35.6035 17.3098C35.6544 17.3416 35.7114 17.3619 35.7708 17.3694C36.2546 17.4319 36.7419 17.4873 37.2304 17.5109C37.7608 17.5333 38.1304 17.7633 38.3425 18.2551L38.3344 22.2438ZM22.1298 10.8685C21.0258 10.8685 19.9532 10.8862 18.8819 10.8685C17.7161 10.8438 16.8196 11.3061 16.1224 12.2496C14.8937 13.9126 13.6346 15.5519 12.3919 17.2031C12.1738 17.507 11.8567 17.7233 11.4965 17.814C10.5965 18.0499 9.70238 18.3023 8.80588 18.5499C7.57596 18.8873 6.34488 19.2234 5.11613 19.5666C4.18349 19.8284 3.55745 20.5408 3.53413 21.4336C3.51082 22.3264 3.50382 23.2204 3.53413 24.1132C3.5761 25.3386 4.67896 26.1972 5.87856 25.9755C6.38918 22.9751 8.81637 21.7131 10.6583 21.6978C11.6931 21.6797 12.7056 22.003 13.5425 22.6189C14.6862 23.4527 15.3343 24.5944 15.5512 25.9943H22.1228L22.1298 10.8685ZM32.5182 11.6693C32.4821 11.6929 32.4611 11.7035 32.4424 11.7189C32.0834 12.0184 31.7266 12.3204 31.3676 12.6188C30.801 13.0905 30.5294 13.0752 29.8753 12.752C29.0778 12.3508 28.258 11.9964 27.4202 11.6906C26.6367 11.4111 26.4502 11.2412 26.3803 10.3932C26.3418 9.92148 26.2893 9.46386 26.2439 8.998H24.0289V14.2841C24.9093 14.0936 25.8208 14.1047 26.6964 14.3166C27.5721 14.5284 28.3899 14.9357 29.09 15.5085C29.79 16.0813 30.3546 16.8052 30.7425 17.6272C31.1304 18.4493 31.3317 19.3486 31.3317 20.2595C31.3317 21.1704 31.1304 22.0697 30.7425 22.8918C30.3546 23.7138 29.79 24.4377 29.09 25.0105C28.3899 25.5833 27.5721 25.9905 26.6964 26.2024C25.8208 26.4142 24.9093 26.4254 24.0289 26.2349V31.5564H26.2544C26.3022 31.0315 26.3418 30.5161 26.3966 30.0019C26.4712 29.2837 26.6554 29.0584 27.3502 28.8827C28.2178 28.6615 29.048 28.3109 29.8135 27.8424C30.5375 27.3919 30.7753 27.419 31.4457 27.9733C31.8106 28.2764 32.1778 28.576 32.4949 28.8414L33.8041 27.5122C33.4846 27.1218 33.1396 26.7067 32.8038 26.2833C32.4471 25.8363 32.4028 25.4683 32.6954 24.9859C33.2204 24.1233 33.6135 23.1853 33.8612 22.2037C34.0139 21.607 34.282 21.4147 34.9104 21.3546C35.4269 21.305 35.9433 21.2472 36.4574 21.193V19.3189C35.927 19.267 35.4082 19.2246 34.8859 19.1632C34.1935 19.0807 33.9789 18.8932 33.8052 18.2115C33.579 17.311 33.2206 16.4499 32.742 15.6569C32.3363 14.9882 32.3678 14.7134 32.8726 14.1001C33.1885 13.7132 33.501 13.3252 33.7948 12.9631L32.5182 11.6693ZM24.0079 20.253C24.0079 21.4949 24.0079 22.7368 24.0079 23.9787C24.0079 24.1981 24.0673 24.2948 24.283 24.3455C24.9568 24.5106 25.6598 24.5106 26.3336 24.3455C27.3979 24.0762 28.3134 23.3915 28.8799 22.4411C29.4464 21.4907 29.6177 20.352 29.3566 19.2741C28.7737 16.9979 26.5097 15.618 24.3203 16.1864C24.0872 16.249 24.0021 16.3445 24.0056 16.6004C24.0172 17.8176 24.009 19.0359 24.009 20.2518L24.0079 20.253ZM13.7267 26.6347C13.7135 25.8409 13.3931 25.084 12.8343 24.5265C12.2754 23.9691 11.5228 23.6556 10.738 23.6535C9.95324 23.6513 9.19893 23.9606 8.63711 24.515C8.0753 25.0693 7.7508 25.8245 7.73334 26.6182C7.71352 28.2694 9.07751 29.6599 10.7248 29.6717C11.5205 29.6701 12.2831 29.3497 12.8458 28.7805C13.4084 28.2113 13.7252 27.4397 13.7267 26.6347Z" fill="#66C61C"/>
</g>
<defs>
<clipPath id="clip0_338_3810">
<rect width="36.6667" height="33.3333" fill="white" transform="translate(1.66675 3.33398)"/>
</clipPath>
</defs>
</svg>
