<svg width="16" height="16" viewBox="0 0 16 16" fill="none" xmlns="http://www.w3.org/2000/svg">
<path d="M5.62727 3.8411C5.87615 2.78642 6.84399 2 8 2C9.15601 2 10.1239 2.78642 10.3727 3.8411L10.4767 3.86226C12.0669 4.18592 13.3332 5.35887 13.7477 6.89204C14.0841 8.13659 14.0841 9.44505 13.7477 10.6896C13.3332 12.2228 12.0669 13.3957 10.4767 13.7194L10.1729 13.7812C8.7397 14.0729 7.26031 14.0729 5.82715 13.7812L5.52329 13.7194C3.93312 13.3957 2.6668 12.2228 2.25233 10.6896C1.91589 9.44506 1.91589 8.13659 2.25233 6.89203C2.6668 5.35887 3.93312 4.18592 5.52329 3.86226L5.62727 3.8411Z" stroke="#292D32" stroke-opacity="0.3" stroke-width="1.2" stroke-linejoin="round"/>
<path d="M6.33301 8.66667C6.33301 7.74619 7.0792 7 7.99967 7C8.92015 7 9.66634 7.74619 9.66634 8.66667C9.66634 9.58714 8.92015 10.3333 7.99967 10.3333C7.0792 10.3333 6.33301 9.58714 6.33301 8.66667Z" stroke="#292D32" stroke-opacity="0.3" stroke-width="1.2"/>
</svg>
