<svg width="24" height="24" viewBox="0 0 24 24" fill="none" xmlns="http://www.w3.org/2000/svg">
<g clip-path="url(#clip0_563_16296)">
<path d="M19.1286 20.0001V19.8715H19H5H4.87143V20.0001V21.1429C4.87143 21.7198 4.46568 22.1572 4 22.1572H3C2.53432 22.1572 2.12857 21.7198 2.12857 21.1429V12.5715V12.4745L2.03532 12.4479L0.792782 12.0929C0.412197 11.9842 0.128571 11.5852 0.128571 11.1077V10.2858C0.128571 10.0246 0.310462 9.84293 0.5 9.84293H2H2.0891L2.12039 9.7595L4.60089 3.14483C4.90022 2.34659 5.58039 1.84293 6.31879 1.84293H17.6812C18.4196 1.84293 19.0997 2.34659 19.3991 3.14483L21.8796 9.7595L21.9109 9.84293H22H23.5C23.6895 9.84293 23.8714 10.0246 23.8714 10.2858V11.1077C23.8714 11.5852 23.5878 11.9842 23.2072 12.0929L21.9647 12.4479L21.8714 12.4745V12.5715V21.1429C21.8714 21.7198 21.4657 22.1572 21 22.1572H20C19.5343 22.1572 19.1286 21.7198 19.1286 21.1429V20.0001ZM20 17.8429H20.1286V17.7144V12.0001V11.8715H20H4H3.87143V12.0001V17.7144V17.8429H4H20ZM18.9478 9.74961L18.9479 9.74957C19.53 9.48343 19.7965 8.74348 19.5727 8.10456L18.1214 3.9576L18.0912 3.8715H18H6H5.90878L5.87865 3.9576L4.42721 8.10458C4.3751 8.25345 4.34846 8.41188 4.34846 8.5715C4.34846 9.25704 4.83815 9.84293 5.47703 9.84293H18.523C18.6691 9.84293 18.8132 9.81101 18.9478 9.74961ZM9.41365 16.3942L9.41363 16.3943C9.36059 16.4267 9.30271 16.4429 9.24496 16.4429H6C5.53432 16.4429 5.12857 16.0055 5.12857 15.4286V13.2724C6.21413 13.2879 7.11833 13.5001 7.84685 13.9024C8.60241 14.3197 9.17651 14.9455 9.56943 15.7852C9.67513 16.0111 9.59491 16.2835 9.41365 16.3942ZM16.1532 13.9024C16.8817 13.5001 17.7859 13.2879 18.8714 13.2724V15.4286C18.8714 16.0055 18.4657 16.4429 18 16.4429H14.755C14.6973 16.4429 14.6394 16.4267 14.5864 16.3943L14.5863 16.3942C14.4051 16.2835 14.3249 16.0112 14.4307 15.7852C14.8236 14.9455 15.3977 14.3197 16.1532 13.9024Z" fill="white" stroke="#1A1F23" stroke-width="0.257143"/>
</g>
<defs>
<clipPath id="clip0_563_16296">
<rect width="24" height="24" fill="white"/>
</clipPath>
</defs>
</svg>
