<svg width="41" height="40" viewBox="0 0 41 40" fill="none" xmlns="http://www.w3.org/2000/svg">
<rect width="40" height="40" transform="translate(0.5)" fill="white"/>
<g clip-path="url(#clip0_571_18088)">
<path d="M27.3619 32.9613L27.3726 33.0998C27.3732 33.1088 27.3739 33.1176 27.3746 33.1262C27.3816 33.2177 27.3871 33.2893 27.397 33.359L27.3981 33.3662L27.3979 33.3662C27.5398 34.8693 28.5737 36.1106 30.0057 36.4095L30.0057 36.4095C30.5159 36.5163 31.0539 36.5146 31.6021 36.5129C31.6705 36.5127 31.7391 36.5125 31.8077 36.5125H31.8081C32.8554 36.5149 33.7386 36.1449 34.3597 35.5186C34.981 34.8922 35.3487 34.0006 35.3487 32.9446V32.944C35.3511 32.3159 35.3495 31.6864 35.348 31.0563C35.3457 30.0974 35.3434 29.1371 35.3546 28.1788L35.3547 28.1755C35.3848 27.2728 35.0931 26.3893 34.5329 25.6855L34.5324 25.6849C34.3802 25.4918 34.2356 25.2928 34.0826 25.0822C34.0298 25.0096 33.9761 24.9356 33.9206 24.86L33.764 24.6464L34.0278 24.6219C34.0672 24.6183 34.0979 24.6148 34.1251 24.6118C34.1338 24.6108 34.1421 24.6099 34.1503 24.609C34.1814 24.6056 34.212 24.6026 34.2437 24.6024M27.3619 32.9613L34.2471 24.7524M27.3619 32.9613H27.223H15.446H15.3036L15.2962 33.1036C15.2439 34.1151 14.8909 34.968 14.1536 35.6373L14.1535 35.6373L14.1516 35.6391C13.5696 36.1864 12.8072 36.4958 12.0124 36.5076L12.0121 36.5076C11.9723 36.5083 11.9326 36.509 11.8929 36.5097C11.2925 36.5204 10.7002 36.531 10.1271 36.4438M27.3619 32.9613L34.2145 24.7536C34.1974 24.7302 34.1801 24.7065 34.1626 24.6826L34.0416 24.7713L34.0554 24.9207C34.0901 24.9174 34.1194 24.9143 34.144 24.9116C34.1647 24.94 34.1851 24.9681 34.2054 24.996C34.3579 25.2059 34.5 25.4014 34.6502 25.5921C35.2328 26.3239 35.5359 27.2423 35.5046 28.1806C35.4934 29.1384 35.4957 30.0962 35.498 31.054C35.4995 31.6842 35.5011 32.3144 35.4987 32.9446C35.4987 35.1281 33.9757 36.6675 31.8077 36.6625C31.7395 36.6625 31.671 36.6627 31.6024 36.663C31.0564 36.6647 30.5017 36.6665 29.975 36.5563C28.4727 36.2427 27.396 34.9425 27.2486 33.3803C27.2378 33.3054 27.232 33.2288 27.2251 33.1386C27.2244 33.1296 27.2237 33.1205 27.223 33.1113H15.446C15.392 34.1564 15.0252 35.0487 14.2544 35.7484C13.6452 36.3212 12.847 36.6452 12.0146 36.6576C11.9739 36.6583 11.9332 36.659 11.8925 36.6597C11.295 36.6704 10.6905 36.6812 10.1042 36.592L10.1277 36.4439C10.1275 36.4439 10.1273 36.4438 10.1271 36.4438M34.2437 24.6024C34.2449 24.6024 34.246 24.6024 34.2471 24.6024V24.7524M34.2437 24.6024C34.2428 24.6025 34.2419 24.6025 34.241 24.6026L34.2471 24.7524M34.2437 24.6024C34.5905 24.5878 34.8696 24.4658 35.0591 24.2798C35.2483 24.094 35.3562 23.8369 35.3488 23.5343C35.3414 23.2318 35.2213 22.9814 35.0232 22.8054C34.824 22.6285 34.5374 22.5194 34.1871 22.5194H34.1867C34.065 22.5191 33.937 22.5136 33.8128 22.5082C33.7359 22.5048 33.6604 22.5016 33.5887 22.4996C33.3939 22.4944 33.2092 22.4979 33.0334 22.529M34.2471 24.7524C35.0071 24.7217 35.5154 24.2155 35.4987 23.5307C35.482 22.8458 34.9501 22.3694 34.1871 22.3694C34.0672 22.3691 33.9462 22.3638 33.8252 22.3585C33.5491 22.3465 33.2725 22.3344 33.0073 22.3813M33.0334 22.529C33.0334 22.529 33.0334 22.529 33.0334 22.529L33.0073 22.3813M33.0334 22.529C32.6397 22.5988 32.3331 22.5232 32.0881 22.3407C31.8512 22.1643 31.6866 21.8983 31.5489 21.6171C31.5294 21.5795 31.5088 21.5372 31.489 21.4967C31.4756 21.4691 31.4625 21.4423 31.4505 21.4185L31.4501 21.4177C31.3158 21.1466 31.182 20.8753 31.0483 20.6041C30.7007 19.8993 30.3533 19.1951 29.9987 18.4963C29.6696 17.8547 29.2468 17.3746 28.7341 17.0544C28.2216 16.7342 27.6109 16.5684 26.8976 16.5684H26.8971C23.1861 16.5564 19.4754 16.5564 15.7651 16.5684M33.0334 22.529L33.0073 22.3813M33.0073 22.3813C32.2905 22.5084 31.9532 22.1024 31.6829 21.5496C31.6634 21.512 31.6446 21.4735 31.6257 21.4347C31.6121 21.4068 31.5985 21.3789 31.5845 21.3511C31.4505 21.0805 31.3169 20.8096 31.1832 20.5386C30.8354 19.8334 30.4875 19.128 30.1323 18.4282C29.4539 17.1052 28.3724 16.4184 26.8976 16.4184C23.1862 16.4064 19.4753 16.4064 15.7646 16.4184M10.1271 36.4438C9.35942 36.322 8.65846 35.9311 8.14742 35.3394C7.63628 34.7475 7.34785 33.9926 7.33308 33.2071M10.1271 36.4438L7.33308 33.2071M7.33308 33.2071C7.30657 31.4108 7.31736 29.6132 7.33309 27.8142C7.34412 27.1204 7.57477 26.4485 7.99108 25.8968L7.99112 25.8968L7.99313 25.894C8.1496 25.6765 8.30899 25.4617 8.478 25.2341C8.56428 25.1179 8.65306 24.9983 8.74523 24.8732L8.8998 24.6635L8.64082 24.6351C8.60075 24.6307 8.56318 24.6262 8.52749 24.6219C8.45681 24.6135 8.39351 24.6059 8.33283 24.6018L8.33283 24.6017L8.32813 24.6015C8.0572 24.5916 7.80056 24.4751 7.61321 24.2764C7.42599 24.0778 7.32285 23.813 7.32619 23.5384C7.33294 23.2646 7.44616 23.0047 7.64095 22.8149C7.83589 22.6249 8.09682 22.5204 8.36717 22.5234L8.36717 22.5234L8.37112 22.5234C8.59424 22.52 8.82191 22.5213 9.05142 22.5226C9.41512 22.5247 9.78342 22.5268 10.1454 22.5103L10.1454 22.5104L10.1475 22.5102C10.2538 22.5039 10.3575 22.4756 10.4522 22.427C10.547 22.3784 10.6307 22.3107 10.6982 22.2281L10.7034 22.2218L10.7079 22.2149C11.0067 21.7544 11.2708 21.2731 11.5206 20.7898M7.33308 33.2071L15.7646 16.4184M11.5206 20.7898C11.5205 20.7898 11.5205 20.7899 11.5205 20.7899L11.3873 20.7209L11.5206 20.7897C11.5206 20.7898 11.5206 20.7898 11.5206 20.7898ZM11.5206 20.7898C11.718 20.4091 11.9072 20.0251 12.0952 19.6425C12.1064 19.6198 12.1175 19.597 12.1287 19.5743C12.3056 19.2141 12.4818 18.8554 12.6643 18.4996C12.9928 17.859 13.4162 17.3792 13.9293 17.0584C14.4422 16.7378 15.0531 16.5708 15.7651 16.5684M15.7651 16.5684L15.7646 16.4184M15.7651 16.5684L15.7646 16.4184M7.87135 25.8065C7.4357 26.3838 7.19452 27.0867 7.1831 27.8123C7.16737 29.6118 7.15655 31.4112 7.1831 33.2096L7.87135 25.8065ZM7.87135 25.8065C8.02845 25.588 8.18901 25.3717 8.35848 25.1434C8.41192 25.0714 8.46626 24.9982 8.52165 24.9234C8.54788 24.9265 8.57644 24.9298 8.60815 24.9333L8.62448 24.7842L8.50373 24.6952C8.48668 24.7183 8.46973 24.7413 8.45286 24.7641M7.87135 25.8065L8.45286 24.7641M8.45286 24.7641C8.40657 24.7587 8.3646 24.7543 8.32264 24.7514C8.01211 24.7401 7.71831 24.6065 7.50407 24.3793C7.28983 24.1521 7.17215 23.8493 7.17621 23.5356C7.18369 23.2225 7.31304 22.925 7.53626 22.7075C7.75948 22.4899 8.0586 22.3699 8.36885 22.3734L8.45286 24.7641ZM31.31 24.7992L31.4072 24.9335C31.5495 25.1301 31.6911 25.3244 31.8317 25.5174C32.2715 26.1211 32.7019 26.7116 33.1137 27.3182M31.31 24.7992L32.9896 27.4024M31.31 24.7992L31.1861 24.9092M31.31 24.7992L31.1861 24.9092M33.1137 27.3182L32.9896 27.4024M33.1137 27.3182C33.1136 27.3181 33.1136 27.3181 33.1136 27.3181L32.9896 27.4024M33.1137 27.3182C33.2557 27.5272 33.2782 27.8263 33.2782 28.043M32.9896 27.4024C33.1036 27.5702 33.1282 27.8272 33.1282 28.0436M33.2782 28.043L33.1282 28.0436M33.2782 28.043C33.2782 28.0432 33.2782 28.0434 33.2782 28.0436H33.1282M33.2782 28.043C33.2821 29.143 33.2808 30.2432 33.2795 31.3433C33.2789 31.8933 33.2782 32.4433 33.2782 32.9932V32.9936C33.2771 33.4269 33.1469 33.7896 32.8912 34.0449C32.6355 34.3 32.2722 34.4303 31.8393 34.4335L31.8382 34.4335C31.7254 34.4335 31.6116 34.4341 31.4974 34.4348C31.2669 34.4361 31.0343 34.4375 30.8032 34.4335L30.8031 34.4334C30.4131 34.4264 30.0741 34.2863 29.8305 34.0418C29.587 33.7974 29.4476 33.4574 29.4406 33.0664L29.4406 33.0637C29.4406 32.9332 29.4416 32.8038 29.4426 32.6751C29.4445 32.4204 29.4465 32.1681 29.4406 31.9144L33.1282 28.0436M31.2857 25.0214L31.3852 25.1336C31.3815 25.1369 31.3778 25.1402 31.3741 25.1434C31.3446 25.1029 31.3152 25.0622 31.2857 25.0214ZM31.2857 25.0214L31.1641 25.1093C31.1664 25.1125 31.1687 25.1157 31.171 25.1189C31.2095 25.0876 31.2477 25.0551 31.2857 25.0214ZM31.1861 24.9092C30.2396 25.7493 29.1335 25.8054 27.9306 25.8004C24.679 25.7851 21.4271 25.7868 18.1756 25.7886C16.7823 25.7893 15.389 25.7901 13.9959 25.7895H13.9958M31.1861 24.9092L13.9958 25.7895M13.9958 25.7895C13.9383 25.7895 13.8871 25.7907 13.8377 25.7919C13.7738 25.7935 13.7128 25.795 13.6446 25.7936C13.5329 25.7914 13.4343 25.7808 13.3478 25.7524C12.8912 25.6006 12.443 25.429 11.969 25.2475C11.768 25.1705 11.5624 25.0917 11.3495 25.012L11.2427 24.9719M13.9958 25.7895L11.2427 24.9719M11.2427 24.9719L11.1756 25.0642M11.2427 24.9719L11.1756 25.0642M11.1756 25.0642C11.0271 25.2683 10.8708 25.4806 10.7099 25.6992C10.3402 26.2016 9.94615 26.737 9.56722 27.281L9.56698 27.2808M11.1756 25.0642L9.56698 27.2808M9.56698 27.2808L9.56216 27.2887M9.56698 27.2808L9.56216 27.2887M9.56216 27.2887C9.4444 27.4823 9.3843 27.7057 9.38887 27.9326C9.37839 29.6573 9.37839 31.3814 9.38888 33.1048M9.56216 27.2887L28.392 30.8634M28.392 30.8634H28.3919C23.6857 30.8588 18.9795 30.8588 14.2733 30.8634C13.956 30.8639 13.6987 30.9765 13.5192 31.1621C13.3393 31.3481 13.2282 31.617 13.2226 31.9454C13.2226 32.0704 13.2237 32.1967 13.2249 32.3238C13.2273 32.5812 13.2298 32.8418 13.2226 33.1005C13.2224 33.2749 13.1883 33.4476 13.1222 33.6088C13.0558 33.7707 12.9584 33.9179 12.8355 34.0419C12.7125 34.1659 12.5665 34.2643 12.4057 34.3314C12.2455 34.3981 12.0739 34.4325 11.9006 34.4325C11.505 34.4434 11.1098 34.4424 10.7149 34.4324C9.97154 34.4136 9.38911 33.8602 9.38888 33.1048M28.392 30.8634C28.9941 30.8634 29.4237 31.2988 29.4406 31.9138L28.392 30.8634ZM9.38888 33.1048C9.38888 33.1047 9.38888 33.1045 9.38888 33.1044H9.53888M9.38888 33.1048C9.38888 33.105 9.38888 33.1051 9.38888 33.1053L9.53888 33.1044M9.53888 33.1044C9.53888 33.7733 10.0511 34.2656 10.7187 34.2825C11.112 34.2924 11.5053 34.2934 11.8986 34.2825C12.0528 34.2827 12.2054 34.2523 12.3479 34.1929C12.4904 34.1335 12.6199 34.0463 12.7289 33.9363C12.838 33.8263 12.9245 33.6957 12.9834 33.5519L9.53888 33.1044ZM10.1386 22.3605C10.2241 22.3554 10.3075 22.3326 10.3838 22.2935C10.4601 22.2544 10.5276 22.1998 10.5821 22.1332L10.1386 22.3605ZM12.654 23.1682L12.5755 23.3266L12.7445 23.3783C12.8628 23.4145 12.972 23.4565 13.0841 23.4996C13.1489 23.5245 13.2146 23.5498 13.2837 23.5746C13.4632 23.639 13.654 23.6949 13.8517 23.6956C17.5922 23.7104 21.3333 23.7102 25.0743 23.7101C26.3221 23.71 27.5699 23.7099 28.8177 23.7104L28.8191 23.7104C29.241 23.7068 29.644 23.5344 29.9398 23.2315L30.0141 23.1554L29.9669 23.0601C29.777 22.6771 29.5883 22.2955 29.4002 21.915C28.9875 21.0804 28.5775 20.2512 28.1634 19.424L28.1633 19.4239C28.0328 19.1635 27.856 18.9665 27.6329 18.8357C27.4105 18.7053 27.1517 18.6464 26.8651 18.6464H26.8435H26.8219H26.8003H26.7787H26.7571H26.7355H26.7139H26.6923H26.6707H26.6491H26.6275H26.606H26.5844H26.5628H26.5412H26.5196H26.498H26.4764H26.4548H26.4332H26.4116H26.39H26.3684H26.3468H26.3252H26.3036H26.282H26.2604H26.2388H26.2172H26.1956H26.174H26.1524H26.1308H26.1092H26.0876H26.066H26.0444H26.0229H26.0013H25.9797H25.9581H25.9365H25.9149H25.8933H25.8717H25.8501H25.8285H25.8069H25.7853H25.7637H25.7421H25.7205H25.6989H25.6773H25.6557H25.6341H25.6125H25.5909H25.5693H25.5477H25.5261H25.5045H25.4829H25.4613H25.4397H25.4181H25.3965H25.375H25.3534H25.3318H25.3102H25.2886H25.267H25.2454H25.2238H25.2022H25.1806H25.159H25.1374H25.1158H25.0942H25.0726H25.051H25.0294H25.0078H24.9862H24.9646H24.943H24.9214H24.8998H24.8782H24.8566H24.835H24.8134H24.7918H24.7702H24.7486H24.727H24.7055H24.6839H24.6623H24.6407H24.6191H24.5975H24.5759H24.5543H24.5327H24.5111H24.4895H24.4679H24.4463H24.4247H24.4031H24.3815H24.3599H24.3383H24.3167H24.2951H24.2735H24.2519H24.2303H24.2087H24.1871H24.1655H24.1439H24.1223H24.1007H24.0791H24.0575H24.0359H24.0143H23.9927H23.9712H23.9496H23.928H23.9064H23.8848H23.8632H23.8416H23.82H23.7984H23.7768H23.7552H23.7336H23.712H23.6904H23.6688H23.6472H23.6256H23.604H23.5824H23.5608H23.5392H23.5176H23.496H23.4744H23.4528H23.4312H23.4096H23.388H23.3664H23.3448H23.3232H23.3016H23.28H23.2584H23.2368H23.2152H23.1936H23.1721H23.1505H23.1289H23.1073H23.0857H23.0641H23.0425H23.0209H22.9993H22.9777H22.9561H22.9345H22.9129H22.8913H22.8697H22.8481H22.8265H22.8049H22.7833H22.7617H22.7401H22.7185H22.6969H22.6753H22.6537H22.6321H22.6105H22.5889H22.5673H22.5457H22.5241H22.5025H22.4809H22.4593H22.4377H22.4161H22.3945H22.3729H22.3513H22.3297H22.3081H22.2865H22.265H22.2434H22.2218H22.2002H22.1786H22.157H22.1354H22.1138H22.0922H22.0706H22.049H22.0274H22.0058H21.9842H21.9626H21.941H21.9194H21.8978H21.8762H21.8546H21.833H21.8114H21.7898H21.7682H21.7466H21.725H21.7034H21.6818H21.6602H21.6386H21.617H21.5954H21.5738H21.5522H21.5306H21.509H21.4874H21.4658H21.4442H21.4226H21.401H21.3794H21.3578H21.3362H21.3146H21.293H21.2714H21.2498H21.2282H21.2067H21.1851H21.1635H21.1419H21.1203H21.0987H21.0771H21.0555H21.0339H21.0123H20.9907H20.9691H20.9475H20.9259H20.9043H20.8827H20.8611H20.8395H20.8179H20.7963H20.7747H20.7531H20.7315H20.7099H20.6883H20.6667H20.6451H20.6235H20.6019H20.5803H20.5587H20.5371H20.5155H20.4939H20.4723H20.4507H20.4291H20.4075H20.3859H20.3643H20.3427H20.3211H20.2995H20.2779H20.2563H20.2347H20.2131H20.1915H20.1699H20.1483H20.1267H20.1051H20.0835H20.0619H20.0403H20.0187H19.9971H19.9755H19.9539H19.9323H19.9107H19.8892H19.8676H19.846H19.8244H19.8028H19.7812H19.7596H19.738H19.7164H19.6948H19.6732H19.6516H19.63H19.6084H19.5868H19.5652H19.5436H19.522H19.5004H19.4788H19.4572H19.4356H19.414H19.3924H19.3708H19.3492H19.3276H19.306H19.2844H19.2628H19.2412H19.2196H19.198H19.1764H19.1548H19.1332H19.1116H19.09H19.0684H19.0468H19.0252H19.0036H18.982H18.9604H18.9388H18.9172H18.8956H18.874H18.8524H18.8308H18.8092H18.7876H18.766H18.7444H18.7228H18.7012H18.6796H18.658H18.6364H18.6148H18.5932H18.5716H18.55H18.5284H18.5068H18.4852H18.4636H18.442H18.4204H18.3988H18.3772H18.3556H18.334H18.3124H18.2908H18.2692H18.2476H18.226H18.2044H18.1828H18.1612H18.1396H18.118H18.0964H18.0748H18.0532H18.0316H18.01H17.9884H17.9668H17.9452H17.9236H17.902H17.8804H17.8588H17.8372H17.8156H17.7941H17.7725H17.7509H17.7293H17.7077H17.6861H17.6645H17.6429H17.6213H17.5997H17.5781H17.5565H17.5349H17.5133H17.4917H17.4701H17.4485H17.4269H17.4053H17.3837H17.3621H17.3405H17.3189H17.2973H17.2757H17.2541H17.2325H17.2109H17.1893H17.1677H17.1461H17.1245H17.1029H17.0813H17.0597H17.0381H17.0165H16.9949H16.9733H16.9517H16.9301H16.9085H16.8869H16.8653H16.8437H16.8221H16.8005H16.7789H16.7573H16.7357H16.7141H16.6925H16.6709H16.6493H16.6277H16.6061H16.5845H16.5629H16.5413H16.5197H16.4981H16.4765H16.4549H16.4333H16.4117H16.3901H16.3685H16.3469H16.3253H16.3037H16.2821H16.2605H16.2389H16.2173H16.1957H16.1741H16.1525H16.1309H16.1093H16.0877H16.0661H16.0445H16.0229H16.0013H15.9797H15.9581H15.9365H15.9149H15.8933H15.8717H15.8501H15.8285H15.8107C15.5344 18.6328 15.2605 18.7038 15.025 18.85C14.7894 18.9962 14.6034 19.2108 14.4911 19.4653L12.654 23.1682Z" fill="#66C61C" stroke="white" stroke-width="0.3"/>
<path d="M33.5577 11.0209C34.5763 9.9718 34.5724 8.56244 33.5498 7.5084C33.4163 7.37033 33.2803 7.2347 33.1442 7.09911C32.9565 6.91208 32.7689 6.7251 32.5882 6.53178L32.4786 6.6342C32.6596 6.82776 32.8521 7.01971 33.0424 7.20943C33.1784 7.34504 33.3133 7.47952 33.442 7.61266L33.4422 7.61285C33.9297 8.11541 34.1678 8.69504 34.1692 9.26686C34.1706 9.83859 33.9353 10.4166 33.4501 10.9164L33.4499 10.9165C33.2862 11.0856 33.12 11.2517 32.9526 11.419L32.9318 11.4398C32.7576 11.6139 32.5821 11.7896 32.4084 11.9699L32.4075 11.9708C32.1837 12.2073 31.9135 12.3938 31.6143 12.5185C31.3151 12.6432 30.9934 12.7034 30.6699 12.6951L30.667 12.6951C29.2137 12.6859 27.7603 12.6868 26.308 12.6877C25.881 12.6879 25.4541 12.6882 25.0273 12.6882H25.0161H25.0048H24.9936H24.9824H24.9711H24.9599H24.9487H24.9374H24.9262H24.915H24.9037H24.8925H24.8813H24.87H24.8588H24.8476H24.8363H24.8251H24.8139H24.8026H24.7914H24.7802H24.7689H24.7577H24.7465H24.7352H24.724H24.7128H24.7015H24.6903H24.6791H24.6678H24.6566H24.6453H24.6341H24.6229H24.6116H24.6004H24.5892H24.5779H24.5667H24.5555H24.5442H24.533H24.5218H24.5105H24.4993H24.4881H24.4768H24.4656H24.4544H24.4431H24.4319H24.4207H24.4094H24.3982H24.387H24.3757H24.3645H24.3533H24.342H24.3308H24.3196H24.3083H24.2971H24.2859H24.2746H24.2634H24.2522H24.2409H24.2297H24.2185H24.2072H24.196H24.1848H24.1735H24.1623H24.1511H24.1398H24.1286H24.1174H24.1061H24.0949H24.0837H24.0724H24.0612H24.05H24.0387H24.0275H24.0163H24.005H23.9938H23.9826H23.9713H23.9601H23.9489H23.9376H23.9264H23.9152H23.9039H23.8927H23.8815H23.8702H23.859H23.8478H23.8365H23.8253H23.8141H23.8028H23.7916H23.7804H23.7691H23.7579H23.7467H23.7354H23.7242H23.713H23.7017H23.6905H23.6792H23.668H23.6568H23.6455H23.6343H23.6231H23.6118H23.6006H23.5894H23.5781H23.5669H23.5557H23.5445H23.5332H23.522H23.5108H23.4995H23.4883H23.4771H23.4658H23.4546H23.4434H23.4321H23.4209H23.4097H23.3984H23.3872H23.376H23.3647H23.3535H23.3423H23.331H23.3198H23.3086H23.2973H23.2861H23.2749H23.2636H23.2524H23.2412H23.2299H23.2187H23.2075H23.1962H23.185H23.1738H23.1625H23.1513H23.1401H23.1288H23.1176H23.1064H23.0951H23.0839H23.0727H23.0614H23.0502H23.039H23.0277H23.0165H23.0053H22.994H22.9828H22.9716H22.9603H22.9491H22.9379H22.9266H22.9154H22.9042H22.8929H22.8817H22.8705H22.8592H22.848H22.8368H22.8256H22.8143H22.8031H22.7919H22.7806H22.7694H22.7582H22.7469H22.7357H22.7245H22.7132H22.702H22.6908H22.6795H22.6683H22.6571H22.6458H22.6346H22.6234H22.6121H22.6009H22.5897H22.5784H22.5672H22.556H22.5447H22.5335H22.5223H22.5111H22.4998H22.4886H22.4774H22.4661H22.4549H22.4437H22.4324H22.4212H22.41H22.3987H22.3875H22.3763H22.365H22.3538H22.3426H22.3313H22.3201H22.3089H22.2977H22.2864H22.2752H22.264H22.2527H22.2415H22.2303H22.219H22.2078H22.1966H22.1853H22.1741H22.1629H22.1516H22.1404H22.1292H22.118H22.1067H22.0955H22.0843H22.073H22.0618H22.0506H22.0393H22.0281H22.0169H22.0056H21.9944H21.9832H21.972H21.9607H21.9495H21.9383H21.927H21.9158H21.9046H21.8933H21.8821H21.8709H21.8596H21.8484H21.8372H21.826H21.8147H21.8035H21.7923H21.781H21.7698H21.7586H21.7473H21.7361H21.7249H21.7136H21.7024H21.6912H21.68H21.6687H21.6575H21.6463H21.635H21.6238H21.6126H21.6013H21.5901H21.5789H21.5677H21.5564H21.5452H21.534H21.5227H21.5115H21.5003H21.4891H21.4778H21.4666H21.4554H21.4441H21.4329H21.4217H21.4104H21.3992H21.388H21.3768H21.3655H21.3543H21.3431H21.3318H21.3206H21.3094H21.2982H21.2869H21.2757H21.2645H21.2532H21.242H21.2308H21.2195H21.2083H21.1971H21.1859H21.1746H21.1634H21.1522H21.1409H21.1297H21.1185H21.1073H21.096H21.0848H21.0736H21.0623H21.0511H21.0399H21.0287H21.0174H21.0062H20.995H20.9837H20.9725H20.9613H20.9501H20.9388H20.9276H20.9164H20.9051H20.8939H20.8827H20.8715H20.8602H20.849H20.8378H20.8266H20.8153H20.8041H20.7929H20.7816H20.7704H20.7592H20.748H20.7367H20.7255H20.7143H20.703H20.6918H20.6806H20.6694H20.6581H20.6469H20.6357H20.6245H20.6132H20.602H20.5908H20.5795H20.5683H20.5571H20.5459H20.5346H20.5234H20.5122H20.501H20.4897H20.4785H20.4673H20.4561H20.4448H20.4336H20.4224H20.4111H20.3999H20.3887H20.3775H20.3662H20.355H20.3438H20.3326H20.3213H20.3101H20.2989H20.2877H20.2764H20.2652H20.254H20.2428H20.2315H20.2203H20.2091H20.1978H20.1866H20.1754H20.1642H20.1529H20.1417H20.1305H20.1193H20.108H20.0968H20.0856H20.0744H20.0631H20.0519H20.0407H20.0295H20.0182H20.007H19.9958H19.9846H19.9733H19.9621H19.9509H19.9397H19.9284H19.9172H19.906H19.8948H19.8835H19.8723H19.8611H19.8499H19.8386H19.8274H19.8162H19.805H19.7937H19.7825H19.7713H19.7601H19.7488H19.7376H19.7264H19.7152H19.7039H19.6927H19.6815H19.6703H19.6591H19.6478H19.6366H19.6254H19.6142H19.6029H19.5917H19.5805H19.5693H19.558H19.5468H19.5356H19.5244H19.5131H19.5019H19.4907H19.4795H19.4682H19.457H19.4458H19.4346H19.4234H19.4121H19.4009H19.3897H19.3785H19.3672H19.356H19.3448H19.3336H19.3224H19.3111H19.2999H19.2887H19.2823C19.1577 12.6805 19.0331 12.7041 18.9197 12.7569C18.8061 12.8097 18.7074 12.8902 18.6324 12.9908C18.0668 13.6737 17.3529 14.2156 16.5461 14.5744C15.7382 14.9337 14.8591 15.0997 13.9772 15.0594C13.0954 15.0192 12.2346 14.7737 11.4621 14.3422C10.6896 13.9107 10.0262 13.3048 9.52369 12.5716C9.02121 11.8384 8.69329 10.9978 8.56564 10.1154C8.43799 9.23305 8.51407 8.33282 8.78791 7.48504C9.06174 6.63727 9.5259 5.86497 10.1441 5.22835C10.7621 4.59185 11.5173 4.10821 12.3508 3.81503C14.6426 3.02571 17.0799 3.68948 18.6253 5.53852C18.705 5.64283 18.8091 5.72583 18.9285 5.78003C19.0472 5.83398 19.1774 5.85769 19.3074 5.84905C21.0029 5.84593 22.6992 5.84562 24.3956 5.84532C26.4577 5.84495 28.5201 5.84458 30.5816 5.83914L33.5577 11.0209ZM33.5577 11.0209C33.3931 11.1909 33.2262 11.3577 33.059 11.5248M33.5577 11.0209L33.059 11.5248M31.9966 9.0555C31.9191 8.98145 31.8445 8.91094 31.7723 8.84277C31.542 8.62512 31.337 8.43141 31.1443 8.22294C31.0538 8.11975 30.9411 8.03861 30.8146 7.98579C30.689 7.93332 30.5532 7.91019 30.4175 7.91818C28.7456 7.92112 27.0733 7.92157 25.4009 7.92202C23.129 7.92262 20.8568 7.92323 18.5851 7.93009C18.288 7.93007 18.0499 7.87728 17.8495 7.768C17.6493 7.65887 17.4754 7.48716 17.3166 7.23089L17.3162 7.23027C16.9017 6.56849 16.2869 6.05873 15.5627 5.77669C14.8388 5.49476 14.0442 5.45542 13.2964 5.66451C12.5285 5.86866 11.847 6.31862 11.3542 6.94659C10.8613 7.57473 10.5837 8.34714 10.5627 9.14785C10.5389 9.96131 10.7788 10.7605 11.2461 11.4241C11.7134 12.0877 12.3827 12.5794 13.1526 12.8242C13.9171 13.0698 14.7408 13.0525 15.4947 12.7752C16.2485 12.4979 16.8897 11.9762 17.3181 11.2921C17.4789 11.0359 17.6541 10.8612 17.8548 10.7514C18.055 10.6417 18.292 10.5903 18.5867 10.5991L18.5868 10.5991C19.2267 10.618 19.8686 10.6138 20.5048 10.6097C20.7737 10.6079 21.0415 10.6061 21.3078 10.6061H21.4292L21.4545 10.4874C21.5326 10.1205 21.6616 9.85378 21.8279 9.68124C21.9903 9.51267 22.1966 9.42502 22.4554 9.42803V9.42804H22.4572C22.5672 9.42804 22.6907 9.4425 22.8037 9.47373C22.9185 9.50545 23.0109 9.55129 23.0697 9.60614L23.172 9.49639M31.9966 9.0555L31.8932 9.15717C31.892 9.15835 31.8908 9.15953 31.8896 9.16071C31.8155 9.08996 31.7435 9.02198 31.6735 8.95586C31.4406 8.73572 31.2294 8.53614 31.0328 8.32325C30.9571 8.2365 30.8627 8.16841 30.7568 8.1242C30.651 8.07998 30.5365 8.06082 30.4222 8.06818C28.7483 8.07112 27.0744 8.07157 25.4004 8.07202C23.1287 8.07262 20.857 8.07323 18.5853 8.08009C17.955 8.08009 17.5273 7.85578 17.1891 7.3099C16.7916 6.6753 16.2022 6.18673 15.5083 5.91647C14.8143 5.6462 14.0526 5.6086 13.3359 5.80923C12.5992 6.00485 11.9453 6.43644 11.4722 7.03919C10.9992 7.64194 10.7327 8.38331 10.7127 9.15199C10.6897 9.93324 10.9201 10.7007 11.3687 11.3377C11.8173 11.9747 12.4597 12.4465 13.1982 12.6813C13.931 12.9167 14.7204 12.9002 15.4429 12.6344C16.1654 12.3686 16.7802 11.8685 17.1911 11.2124C17.5322 10.6685 17.9609 10.4303 18.5912 10.4492C19.2283 10.468 19.8658 10.4638 20.5008 10.4597C20.7703 10.4579 21.0394 10.4561 21.3078 10.4561C21.471 9.68993 21.8604 9.27109 22.4572 9.27804C22.701 9.27804 23.0058 9.34156 23.172 9.49639M31.9966 9.0555L32.1483 8.90637V9.26415V9.26514V9.61863L31.9987 9.47405M31.9966 9.0555L31.9987 9.47405M23.172 9.49639C23.3514 9.66397 23.4868 9.88071 23.632 10.1133C23.6993 10.221 23.7686 10.3321 23.8455 10.4432H26.0233C26.2101 9.66214 26.5975 9.28003 27.2032 9.26613C27.8088 9.25224 28.2178 9.61946 28.4627 10.4571H30.4822M23.172 9.49639L23.0696 9.60603C23.1872 9.71586 23.2869 9.85235 23.3903 10.0116C23.4259 10.0666 23.463 10.1259 23.5015 10.1876C23.5703 10.2977 23.6437 10.4152 23.7221 10.5285L23.7668 10.5932H23.8455H26.0233H26.1417L26.1692 10.4781C26.2589 10.103 26.3928 9.8416 26.562 9.67332C26.7275 9.50863 26.9376 9.42226 27.2066 9.41609C27.4748 9.40994 27.6891 9.48685 27.8658 9.65192C28.0471 9.82121 28.2002 10.0939 28.3187 10.4992L28.3502 10.6071H28.4627H30.4728M30.4822 10.4571L30.4624 10.6058C30.4659 10.6063 30.4693 10.6067 30.4728 10.6071M30.4822 10.4571C30.5308 10.4636 30.5801 10.4636 30.6287 10.4571M30.4822 10.4571H30.6287M30.4728 10.6071C30.5312 10.614 30.5902 10.6136 30.6485 10.6058L30.6495 10.6057C30.7549 10.5909 30.8552 10.5517 30.9429 10.4913L30.9524 10.4848L30.9608 10.4768C31.2998 10.1565 31.6295 9.8363 31.9987 9.47405M30.4728 10.6071L31.9987 9.47405M30.6287 10.4571C30.7108 10.4456 30.7893 10.415 30.8578 10.3678C31.1949 10.0492 31.5231 9.73057 31.8907 9.36979L30.6287 10.4571ZM33.059 11.5248C32.8777 11.706 32.696 11.8875 32.5165 12.0739L33.059 11.5248Z" fill="#66C61C" stroke="white" stroke-width="0.3"/>
<path d="M12.4669 27.1373C12.7009 27.1338 12.9308 27.2006 13.1271 27.3293C13.3234 27.458 13.4774 27.6428 13.5694 27.8601C13.6615 28.0774 13.6874 28.3174 13.6439 28.5496C13.6004 28.7818 13.4894 28.9956 13.3251 29.164C13.1608 29.3324 12.9507 29.4476 12.7213 29.495C12.492 29.5424 12.2539 29.5199 12.0372 29.4303C11.8206 29.3407 11.6353 29.1881 11.5048 28.9919C11.3744 28.7956 11.3047 28.5647 11.3047 28.3283C11.3067 28.0162 11.4292 27.7171 11.6462 27.4947C11.8632 27.2722 12.1577 27.1441 12.4669 27.1373Z" fill="#66C61C"/>
<path d="M30.1757 29.5197C29.9419 29.5181 29.7138 29.4464 29.5204 29.3136C29.327 29.1809 29.1771 28.9932 29.0896 28.7743C29.0021 28.5554 28.981 28.3151 29.0291 28.0841C29.0771 27.8531 29.192 27.6417 29.3593 27.4767C29.5266 27.3118 29.7387 27.2007 29.9686 27.1577C30.1985 27.1146 30.4359 27.1415 30.6507 27.2349C30.8655 27.3284 31.0479 27.4841 31.1748 27.6824C31.3017 27.8806 31.3674 28.1125 31.3635 28.3485C31.3558 28.6615 31.2273 28.9591 31.0055 29.1778C30.7836 29.3966 30.4859 29.5193 30.1757 29.5197Z" fill="#66C61C"/>
</g>
<defs>
<clipPath id="clip0_571_18088">
<rect width="28.3333" height="33.3333" fill="white" transform="translate(7.16699 3.33325)"/>
</clipPath>
</defs>
</svg>
