<svg width="41" height="40" viewBox="0 0 41 40" fill="none" xmlns="http://www.w3.org/2000/svg">
<g clip-path="url(#clip0_571_18081)">
<g clip-path="url(#clip1_571_18081)">
<path d="M40.4974 20.94C40.4974 22.1096 40.4974 23.2791 40.4974 24.4486C40.4974 24.9854 40.3452 25.1684 39.7788 25.262C38.5658 25.4738 37.3521 25.6795 36.1377 25.879C36.0179 25.8877 35.9039 25.9305 35.8115 26.0015C35.719 26.0726 35.6525 26.1684 35.6212 26.2759C35.1425 27.4841 34.1773 28.1947 32.8044 28.3129C31.4082 28.4322 30.323 27.881 29.6066 26.7592C29.4766 26.5535 29.3533 26.4774 29.0956 26.4774C22.697 26.4843 16.2973 26.4843 9.89649 26.4774C9.79682 26.4668 9.69609 26.4857 9.6087 26.5313C9.52132 26.5769 9.45176 26.647 9.40998 26.7314C8.09042 28.8713 4.91592 28.8631 3.58859 26.7181C3.55036 26.6386 3.4859 26.5724 3.40447 26.529C3.32304 26.4855 3.22885 26.4671 3.13541 26.4764C2.5245 26.4898 1.9136 26.4846 1.30269 26.4764C0.755093 26.4764 0.508505 26.2512 0.507394 25.7504C0.507394 24.2337 0.492955 22.7169 0.507394 21.2002C0.518875 20.3002 0.833791 19.426 1.40812 18.6998C1.98245 17.9736 2.78751 17.4317 3.71078 17.1497C3.77445 17.1249 3.84019 17.105 3.90737 17.0901C5.11808 16.9153 6.06888 16.3106 6.98191 15.5929C8.24038 14.6037 9.55771 13.6782 10.8406 12.7136C11.7596 12.0141 12.9177 11.6404 14.1073 11.6596C21.9225 11.6679 29.738 11.6679 37.5539 11.6596C38.2048 11.6596 38.3315 11.7398 38.5603 12.3126C39.1579 13.7903 39.761 15.2669 40.3452 16.7497C40.438 16.9894 40.4869 17.2417 40.4896 17.4963C40.5052 18.6521 40.4974 19.7986 40.4974 20.94ZM17.8061 25.2322V12.9368H16.5054C16.5054 13.9054 16.5054 14.8433 16.5054 15.7811C16.5054 17.0911 15.6979 17.8377 14.2839 17.8377C12.008 17.8377 9.72988 17.8737 7.4562 17.8233C6.3475 17.7941 5.24285 17.9594 4.20061 18.3107C3.73743 18.467 3.31201 18.722 2.86772 18.9349L2.92548 19.0726C3.39088 19.0726 3.85739 19.0726 4.32279 19.0726C5.07143 19.0726 5.34245 19.484 5.00812 20.1174C4.6238 20.8372 4.21838 21.557 3.84295 22.2892C3.66634 22.6336 3.40976 22.7971 2.99434 22.7786C2.61336 22.7612 2.23127 22.7786 1.85584 22.7786V25.226H3.14429C3.38199 23.4038 4.62158 22.2254 6.34434 22.1658C7.15727 22.1268 7.95673 22.3695 8.58692 22.8465C9.40109 23.4542 9.78431 24.2676 9.84762 25.2311L17.8061 25.2322ZM19.1845 25.2486C20.8262 25.2486 22.4212 25.2486 24.0173 25.2414C24.1638 25.2293 24.301 25.17 24.405 25.0738C25.9334 23.6705 27.4558 22.2621 28.9724 20.8485C29.0663 20.7766 29.131 20.6773 29.1556 20.5668C29.1701 19.6711 29.1645 18.7744 29.1645 17.8665H19.1845V25.2486ZM30.5007 12.909V13.3594C30.5007 15.8016 30.5007 18.2438 30.5074 20.685C30.5143 20.8442 30.484 21.0029 30.4184 21.1503C30.3528 21.2976 30.2536 21.43 30.1275 21.5385C28.9057 22.6563 27.6839 23.7864 26.471 24.9124C26.3732 25.0039 26.281 25.1005 26.1555 25.2208H29.139C29.4078 23.5406 30.3841 22.4804 31.8692 22.2388C32.5852 22.1105 33.327 22.2045 33.9796 22.5061C34.9592 22.9576 35.5268 23.7144 35.7967 24.683C36.8597 24.5041 37.8827 24.3355 38.9068 24.1535C39.0046 24.136 39.159 24.0393 39.1612 23.9756C39.1801 23.3771 39.1723 22.7786 39.1723 22.1565C38.4981 22.1565 37.8749 22.1637 37.2518 22.1565C36.6964 22.1473 36.4221 21.8141 36.5543 21.3092C36.7531 20.5483 36.9608 19.7894 37.1707 19.0315C37.2918 18.5976 37.484 18.4618 37.9671 18.4567C38.3648 18.4567 38.7613 18.4567 39.1556 18.4567V17.8397H38.6902C37.0941 17.8397 35.498 17.8397 33.9018 17.8397C32.71 17.8335 31.8547 17.0418 31.8447 15.9425C31.837 15.0561 31.8447 14.1697 31.8447 13.2823V12.909H30.5007ZM29.149 12.9286H19.2034V16.5842H29.149V12.9286ZM38.8724 16.6017C38.3759 15.378 37.906 14.216 37.4284 13.0581C37.4046 13.0178 37.3709 12.9831 37.33 12.9571C37.2891 12.931 37.2422 12.9142 37.1929 12.908C35.8601 12.8987 34.5394 12.9018 33.1765 12.9018C33.1765 13.9733 33.161 15.0098 33.1843 16.0453C33.1921 16.3795 33.452 16.5934 33.8163 16.5965C35.4724 16.6109 37.1352 16.6109 38.8702 16.6109L38.8724 16.6017ZM7.74832 16.6017C10.0887 16.6017 12.3146 16.6078 14.5394 16.5955C14.9348 16.5955 15.1625 16.3209 15.1681 15.9168C15.1769 15.3389 15.1681 14.762 15.1681 14.1841V12.909C14.8559 12.909 14.5938 12.9224 14.3339 12.909C13.2543 12.8453 12.3346 13.164 11.5104 13.816C10.6685 14.4823 9.78209 15.1014 8.91571 15.742C8.55361 16.0032 8.19261 16.2726 7.7461 16.6047L7.74832 16.6017ZM6.50873 27.0995C6.9034 27.0983 7.28885 26.989 7.61652 26.7853C7.94418 26.5816 8.19941 26.2927 8.35004 25.955C8.50066 25.6173 8.53995 25.2459 8.46295 24.8875C8.38595 24.5291 8.19611 24.1999 7.91735 23.9413C7.63858 23.6826 7.28335 23.5061 6.89643 23.434C6.50951 23.362 6.10822 23.3975 5.74309 23.5362C5.37796 23.6749 5.06534 23.9106 4.84461 24.2135C4.62389 24.5164 4.50492 24.873 4.50273 25.2383C4.50272 25.7312 4.71393 26.204 5.09 26.553C5.46607 26.9019 5.9763 27.0985 6.50873 27.0995ZM34.4994 25.2394C34.4976 24.8724 34.378 24.5142 34.1558 24.2103C33.9335 23.9063 33.6188 23.6705 33.2514 23.5325C32.884 23.3946 32.4807 23.3609 32.0926 23.4357C31.7045 23.5105 31.3492 23.6904 31.0718 23.9526C30.7944 24.2148 30.6075 24.5474 30.5347 24.9081C30.462 25.2689 30.5067 25.6415 30.6632 25.9787C30.8197 26.3159 31.081 26.6023 31.4138 26.8017C31.7466 27.0011 32.1359 27.1044 32.5323 27.0985C33.058 27.0893 33.5588 26.8893 33.9268 26.5416C34.2947 26.1938 34.5004 25.7262 34.4994 25.2394ZM1.85361 21.5467C2.02416 21.5556 2.19511 21.5556 2.36566 21.5467C2.51894 21.5293 2.74443 21.5241 2.8033 21.4357C3.02545 21.0933 3.19983 20.7159 3.41421 20.3169H3.02545C1.82918 20.3056 1.79141 20.3426 1.85361 21.5467ZM38.0271 20.9102H39.1379V19.7092H38.3481L38.0271 20.9102Z" fill="#66C61C"/>
<path d="M14.5402 18.4617C14.7624 18.4617 14.9845 18.4473 15.2067 18.4617C15.3754 18.4691 15.5346 18.5364 15.6513 18.6495C15.7679 18.7627 15.833 18.913 15.8331 19.0694C15.8373 19.2261 15.7748 19.378 15.659 19.4923C15.5433 19.6066 15.3836 19.6741 15.2144 19.6803C14.7435 19.7018 14.2703 19.7018 13.7994 19.6803C13.6309 19.6754 13.4712 19.6098 13.3543 19.4974C13.2375 19.385 13.1728 19.2347 13.174 19.0787C13.17 18.9217 13.2323 18.7694 13.3476 18.6542C13.4629 18.539 13.6222 18.47 13.7916 18.4617C14.0393 18.4484 14.2903 18.4617 14.5402 18.4617Z" fill="#66C61C"/>
<path d="M21.162 19.6895C20.9266 19.6895 20.6889 19.705 20.4545 19.6895C20.2855 19.6805 20.1268 19.6112 20.0119 19.4961C19.8969 19.3811 19.8346 19.2292 19.838 19.0725C19.8353 18.9157 19.8996 18.7642 20.0169 18.651C20.1342 18.5377 20.2951 18.472 20.4645 18.4679C20.9354 18.4484 21.4086 18.4474 21.8796 18.4679C22.0497 18.4743 22.2101 18.5428 22.3258 18.6585C22.4416 18.7741 22.5031 18.9274 22.4971 19.0849C22.4955 19.2411 22.4299 19.3908 22.3136 19.504C22.1974 19.6172 22.0391 19.6853 21.8707 19.6947H21.7874H21.162V19.6895Z" fill="#66C61C"/>
</g>
</g>
<defs>
<clipPath id="clip0_571_18081">
<rect width="40" height="40" fill="white" transform="translate(0.5)"/>
</clipPath>
<clipPath id="clip1_571_18081">
<rect width="40" height="16.6667" fill="white" transform="translate(0.5 11.6667)"/>
</clipPath>
</defs>
</svg>
