<svg width="41" height="40" viewBox="0 0 41 40" fill="none" xmlns="http://www.w3.org/2000/svg">
<rect width="40" height="40" transform="translate(0.5)" fill="white"/>
<g clip-path="url(#clip0_571_17032)">
<path d="M6.8093 22.9299C6.6393 23.0899 6.5493 23.3099 6.5393 23.5499C6.5393 23.7899 6.6293 24.0099 6.7893 24.1799C6.9493 24.3499 7.1693 24.4499 7.3993 24.4599C7.4993 24.4599 7.5993 24.4799 7.7093 24.4899L8.2293 24.5499L7.9193 24.9699C7.6493 25.3399 7.3993 25.6599 7.1693 25.9899C6.7693 26.5199 6.5493 27.1599 6.5393 27.8199C6.5293 29.6299 6.5193 31.4199 6.5493 33.2199C6.5593 33.9699 6.8393 34.6899 7.3293 35.2599C7.8193 35.8299 8.4893 36.1999 9.2193 36.3099C9.8193 36.3999 10.4293 36.3799 11.0793 36.3699C11.8393 36.3599 12.5593 36.0599 13.1193 35.5399C13.8193 34.8999 14.1593 34.0799 14.2093 33.1099V32.8299H26.5593L26.5793 33.1099C26.5793 33.2199 26.5893 33.2899 26.5993 33.3599V33.3699C26.7393 34.8099 27.7293 35.9999 29.0893 36.2799C29.6393 36.3999 30.2293 36.3799 30.8593 36.3799C31.8693 36.3799 32.7093 36.0299 33.2993 35.4299C33.8893 34.8299 34.2493 33.9799 34.2493 32.9599C34.2493 31.3799 34.2393 29.7799 34.2493 28.1899C34.2793 27.3199 33.9993 26.4699 33.4593 25.7899C33.2493 25.5299 33.0593 25.2499 32.8493 24.9599L32.5393 24.5299L33.0693 24.4799C33.1193 24.4799 33.1493 24.4799 33.1893 24.4699C33.2193 24.4699 33.2493 24.4699 33.2893 24.4699C33.6093 24.4599 33.8493 24.3499 34.0093 24.1899C34.1693 24.0299 34.2593 23.8199 34.2493 23.5599C34.2493 23.2999 34.1393 23.0899 33.9693 22.9399C33.7993 22.7899 33.5493 22.6899 33.2293 22.6899C33.0293 22.6899 32.8093 22.6699 32.6293 22.6699C32.4393 22.6699 32.2693 22.6699 32.0993 22.6999C31.6693 22.7799 31.3193 22.6999 31.0393 22.4799C30.7693 22.2799 30.5993 21.9899 30.4593 21.7099C30.4293 21.6499 30.3893 21.5599 30.3593 21.5099C29.8793 20.5299 29.3993 19.5599 28.9093 18.5899C28.5893 17.9699 28.1893 17.5099 27.6993 17.2099C27.2093 16.9099 26.6293 16.7499 25.9393 16.7499C22.2293 16.7399 18.5193 16.7399 14.8093 16.7499C14.1193 16.7499 13.5393 16.9099 13.0493 17.2199C12.5593 17.5199 12.1593 17.9799 11.8393 18.5999C11.6493 18.9799 11.4593 19.3599 11.2693 19.7399C11.0793 20.1199 10.8893 20.5099 10.6893 20.8899C10.4393 21.3799 10.1693 21.8599 9.8693 22.3299L9.8593 22.3599C9.7793 22.4599 9.6793 22.5399 9.5693 22.5999C9.4593 22.6599 9.3293 22.6899 9.2093 22.6999C8.6193 22.7299 7.9893 22.6999 7.4293 22.7099C7.1993 22.7099 6.9693 22.7999 6.8093 22.9599V22.9299ZM11.5793 23.1099L13.4193 19.3999C13.5393 19.1199 13.7493 18.8899 14.0093 18.7299C14.2693 18.5699 14.5693 18.4899 14.8693 18.5099C14.8693 18.5099 14.8793 18.5099 14.8893 18.5099H25.9293C26.2393 18.5099 26.5193 18.5699 26.7693 18.7199C27.0193 18.8699 27.2193 19.0899 27.3593 19.3699C27.9593 20.5699 28.5593 21.7799 29.1593 23.0099L29.2493 23.1999L29.0993 23.3499C28.7793 23.6799 28.3393 23.8699 27.8693 23.8699C22.8793 23.8699 17.8893 23.8699 12.8993 23.8599C12.6793 23.8599 12.4693 23.7999 12.2793 23.7299C12.0793 23.6599 11.9293 23.5899 11.7493 23.5399L11.4093 23.4399L11.5693 23.1199L11.5793 23.1099ZM8.2993 27.9399C8.2993 27.6899 8.3593 27.4399 8.4893 27.2199V27.1999C9.0293 26.4199 9.6093 25.6499 10.0993 24.9799L10.2293 24.7999L10.4393 24.8799C11.1593 25.1499 11.7893 25.3999 12.4293 25.6199C12.4993 25.6399 12.5793 25.6499 12.6793 25.6499C12.7993 25.6499 12.8793 25.6499 13.0293 25.6499C17.6693 25.6499 22.3193 25.6399 26.9693 25.6599C28.1693 25.6599 29.2293 25.6099 30.1293 24.8099L30.3793 24.5899L30.5693 24.8599C31.1593 25.6699 31.7293 26.4499 32.2793 27.2499C32.4493 27.4999 32.4693 27.8399 32.4693 28.0599C32.4693 29.7099 32.4693 31.3599 32.4693 33.0099C32.4693 33.4699 32.3293 33.8799 32.0393 34.1699C31.7493 34.4599 31.3493 34.5999 30.8793 34.5999C30.5393 34.5999 30.1893 34.5999 29.8393 34.5999C29.4093 34.5999 29.0393 34.4399 28.7593 34.1599C28.4893 33.8899 28.3293 33.5099 28.3293 33.0799C28.3293 32.6899 28.3293 32.3099 28.3293 31.9299C28.3193 31.3899 27.9493 31.0299 27.4293 31.0299C22.7193 31.0299 18.0193 31.0299 13.3093 31.0299C13.0293 31.0299 12.8093 31.1299 12.6593 31.2799C12.5093 31.4399 12.4093 31.6699 12.4093 31.9599C12.4093 32.3299 12.4193 32.7199 12.4093 33.1099C12.4093 33.2999 12.3693 33.4899 12.2993 33.6699C12.2293 33.8499 12.1193 34.0099 11.9793 34.1499C11.8393 34.2899 11.6793 34.3999 11.4993 34.4699C11.3193 34.5399 11.1293 34.5799 10.9393 34.5799C10.5393 34.5899 10.1493 34.5799 9.7493 34.5799C8.9293 34.5599 8.2793 33.9499 8.2793 33.0999C8.2693 31.3799 8.2693 29.6499 8.2793 27.9199L8.2993 27.9399Z" fill="#66C61C"/>
<path d="M33.0794 9.27985C33.0794 8.74985 32.8594 8.20985 32.3994 7.72985C32.0994 7.41985 31.7394 7.07985 31.4394 6.74985C30.9494 6.22985 30.3794 5.99985 29.6494 5.99985C25.8894 5.99985 22.1294 5.99985 18.3694 5.99985C18.2194 5.99985 18.0694 5.97985 17.9294 5.91985C17.7894 5.85985 17.6694 5.75985 17.5794 5.63985C16.0694 3.84985 13.6994 3.19985 11.4594 3.96985C10.6494 4.25985 9.90942 4.72985 9.30942 5.34985C8.70942 5.96985 8.25942 6.71985 7.98942 7.54985C7.71942 8.37985 7.64942 9.24985 7.76942 10.1098C7.88942 10.9698 8.20942 11.7898 8.69942 12.4998C9.18942 13.2098 9.83942 13.7998 10.5894 14.2198C11.3394 14.6398 12.1794 14.8798 13.0394 14.9198C13.8994 14.9598 14.7494 14.7998 15.5394 14.4498C16.3294 14.0998 17.0194 13.5698 17.5694 12.8998C17.6594 12.7898 17.7694 12.6898 17.8994 12.6298C18.0294 12.5698 18.1794 12.5398 18.3194 12.5498C18.3194 12.5498 18.3194 12.5498 18.3294 12.5498H24.0694C25.9494 12.5498 27.8294 12.5498 29.7094 12.5498C30.0094 12.5498 30.3094 12.4998 30.5894 12.3798C30.8694 12.2598 31.1194 12.0898 31.3294 11.8698C31.4994 11.6898 31.6794 11.5098 31.8594 11.3398C32.0294 11.1698 32.2094 10.9898 32.3794 10.8198C32.8394 10.3398 33.0594 9.79985 33.0594 9.27985H33.0794ZM31.3594 9.27985V9.98985L31.0594 9.69985C30.7294 10.0198 30.4294 10.3098 30.1194 10.5998L30.0994 10.6198H30.0794C29.9694 10.7098 29.8494 10.7498 29.7194 10.7698C29.6594 10.7698 29.5994 10.7698 29.5294 10.7698H27.5094H27.2894L27.2294 10.5498C27.1194 10.1598 26.9694 9.90985 26.8194 9.76985C26.6794 9.62985 26.4994 9.56985 26.2694 9.56985C26.0294 9.56985 25.8594 9.64985 25.7294 9.77985C25.5894 9.91985 25.4594 10.1498 25.3794 10.5098L25.3194 10.7398H22.7494L22.6594 10.6098C22.5394 10.4298 22.4194 10.2298 22.3294 10.0898C22.2294 9.92985 22.1394 9.80985 22.0294 9.70985C21.9994 9.67985 21.9294 9.63985 21.8294 9.60985C21.7294 9.57985 21.6194 9.56985 21.5194 9.56985C21.2994 9.56985 21.1294 9.63985 20.9994 9.77985C20.8594 9.92985 20.7394 10.1598 20.6694 10.5098L20.6194 10.7498H20.3794C19.4894 10.7498 18.5694 10.7698 17.6494 10.7498C17.3794 10.7498 17.1694 10.7898 16.9894 10.8798C16.8194 10.9698 16.6594 11.1298 16.5094 11.3698C16.0594 12.0798 15.3994 12.6298 14.6094 12.9098C13.8194 13.1998 12.9694 13.2198 12.1694 12.9598C11.3694 12.6998 10.6694 12.1898 10.1894 11.4998C9.69942 10.8098 9.44942 9.97985 9.47942 9.12985C9.49942 8.29985 9.78942 7.48985 10.2994 6.83985C10.8094 6.18985 11.5194 5.71985 12.3194 5.50985C13.0994 5.28985 13.9194 5.32985 14.6794 5.62985C15.4294 5.91985 16.0694 6.44985 16.5094 7.13985C16.6594 7.37985 16.8094 7.52985 16.9894 7.62985C17.1594 7.71985 17.3694 7.76985 17.6494 7.76985C21.5894 7.75985 25.5394 7.76985 29.4894 7.75985C29.6394 7.75985 29.7994 7.77985 29.9394 7.83985C30.0894 7.89985 30.2094 7.99985 30.3194 8.10985C30.5394 8.34985 30.7794 8.56985 31.0594 8.83985L31.3594 8.53985V9.25985V9.27985Z" fill="#66C61C"/>
<path d="M11.5291 27.1499C11.7591 27.1499 11.9891 27.2099 12.1891 27.3399C12.3891 27.4699 12.5391 27.6499 12.6291 27.8699C12.7191 28.0899 12.7491 28.3299 12.6991 28.5599C12.6591 28.7899 12.5491 29.0099 12.3791 29.1699C12.2191 29.3399 12.0091 29.4499 11.7791 29.4999C11.5491 29.5499 11.3091 29.5199 11.0991 29.4399C10.8791 29.3499 10.6991 29.1999 10.5691 28.9999C10.4391 28.7999 10.3691 28.5699 10.3691 28.3399C10.3691 28.0299 10.4891 27.7299 10.7091 27.5099C10.9291 27.2899 11.2191 27.1599 11.5291 27.1499Z" fill="#66C61C"/>
<path d="M29.2393 29.5299C29.0093 29.5299 28.7793 29.4599 28.5793 29.3199C28.3893 29.1899 28.2393 28.9999 28.1493 28.7799C28.0593 28.5599 28.0393 28.3199 28.0893 28.0899C28.1393 27.8599 28.2493 27.6499 28.4193 27.4799C28.5893 27.3199 28.7993 27.1999 29.0293 27.1599C29.2593 27.1199 29.4993 27.1399 29.7093 27.2399C29.9193 27.3299 30.1093 27.4899 30.2293 27.6899C30.3593 27.8899 30.4193 28.1199 30.4193 28.3599C30.4193 28.6699 30.2793 28.9699 30.0593 29.1899C29.8393 29.4099 29.5393 29.5299 29.2293 29.5299H29.2393Z" fill="#66C61C"/>
</g>
<defs>
<clipPath id="clip0_571_17032">
<rect width="27.94" height="32.73" fill="white" transform="translate(6.5293 3.6499)"/>
</clipPath>
</defs>
</svg>
