<svg width="24" height="24" viewBox="0 0 24 24" fill="none" xmlns="http://www.w3.org/2000/svg">
<g clip-path="url(#clip0_571_18960)">
<path d="M21.9802 10.5452C21.9802 13.165 21.9866 15.7849 21.9802 18.4048C21.9802 19.2306 21.2723 19.9557 20.4725 19.9958C20.4214 19.9958 20.3708 19.9958 20.3197 19.9958H3.68023C2.84968 19.9958 2.21442 19.464 2.03948 18.6279C2.02585 18.5616 2.01884 18.4939 2.01855 18.426C2.01855 15.7987 2.01855 13.1713 2.01855 10.5439L21.9802 10.5452ZM8.03988 15.8631C8.03988 15.4011 8.03988 14.9391 8.03988 14.4765C8.03988 13.9969 7.75567 13.6883 7.30001 13.6883C6.40649 13.683 5.51317 13.683 4.62005 13.6883C4.16612 13.6883 3.86447 13.9987 3.85924 14.468C3.85227 15.4151 3.85227 16.3619 3.85924 17.3086C3.86331 17.7476 4.16263 18.0477 4.57878 18.0489C5.49438 18.0517 6.4094 18.0517 7.32384 18.0489C7.76962 18.0489 8.03698 17.7639 8.0393 17.2952C8.04163 16.8266 8.03988 16.3427 8.03988 15.8656V15.8631ZM11.5213 18.0495C11.8189 18.0495 12.1177 18.0349 12.4141 18.0531C12.5085 18.06 12.6033 18.047 12.6928 18.0147C12.7823 17.9825 12.8646 17.9317 12.9349 17.8655C13.0051 17.7992 13.0618 17.7189 13.1015 17.6292C13.1413 17.5396 13.1632 17.4425 13.1661 17.3437C13.1853 16.9606 12.8604 16.6089 12.4623 16.5998C11.8381 16.5848 11.2139 16.5848 10.5896 16.5998C10.4966 16.6012 10.4047 16.6222 10.3196 16.6615C10.2345 16.7008 10.1578 16.7576 10.0942 16.8286C10.0306 16.8995 9.98139 16.9831 9.94947 17.0743C9.91756 17.1655 9.90362 17.2625 9.90847 17.3595C9.91777 17.7451 10.2293 18.0453 10.6286 18.0489C10.9262 18.0537 11.2238 18.0519 11.5213 18.0519V18.0495ZM16.178 18.0495C16.4825 18.0495 16.7871 18.0495 17.0916 18.0495C17.488 18.0459 17.7798 17.7773 17.799 17.405C17.8211 16.969 17.5595 16.6168 17.1451 16.6034C16.5058 16.5804 15.8665 16.5816 15.2271 16.6034C14.8116 16.6162 14.5454 16.96 14.5634 17.3959C14.5791 17.7791 14.8726 18.0477 15.2829 18.0507C15.5828 18.0537 15.8804 18.0519 16.178 18.0519V18.0495Z" fill="#87A6E7"/>
<path d="M21.981 10.545H2.01996C2.01531 9.76957 2.00601 8.99471 2.00717 8.21923C2.00717 7.85908 1.98276 7.49711 2.02402 7.13696C2.11818 7.13696 2.21233 7.1406 2.30707 7.1406H20.8442C21.222 7.1406 21.5997 7.1406 21.9769 7.13696C22.0159 7.32371 21.9944 7.51227 21.9944 7.69962C21.9921 8.65032 21.9857 9.5992 21.981 10.545Z" fill="#233EB1"/>
<path d="M21.9764 7.1395C21.5986 7.1395 21.2208 7.14314 20.8436 7.14314H2.30648C2.21174 7.14314 2.11759 7.14314 2.02343 7.1395C2.02343 6.6023 2.00367 6.0639 2.02343 5.52731C2.05424 4.68454 2.79353 4.00183 3.65779 4.00122C7.78903 4.00122 11.9203 4.00122 16.0515 4.00122C17.4673 4.00122 18.8832 4.00122 20.299 4.00122C21.294 4.00122 21.981 4.71607 21.9845 5.75407C21.9851 6.21608 21.9793 6.67809 21.9764 7.1395Z" fill="#87A6E7"/>
</g>
<defs>
<clipPath id="clip0_571_18960">
<rect width="20" height="16" fill="white" transform="translate(2 4)"/>
</clipPath>
</defs>
</svg>
