<svg width="24" height="24" viewBox="0 0 24 24" fill="none" xmlns="http://www.w3.org/2000/svg">
<path d="M17.229 18.3319L16.911 17.5339C16.75 17.1289 16.501 16.7659 16.181 16.4699L16.123 16.4159C15.62 15.9499 14.96 15.6899 14.274 15.6899H9.72402C9.03802 15.6899 8.37702 15.9499 7.87402 16.4149L7.81602 16.4689C7.49702 16.7649 7.24802 17.1279 7.08602 17.5329L6.77002 18.3319" stroke="#24292F" stroke-width="1.5" stroke-linecap="round" stroke-linejoin="round"/>
<path d="M14.2461 7.92989C15.4861 9.16989 15.4861 11.1809 14.2461 12.4219C13.0061 13.6629 10.9951 13.6619 9.75411 12.4219C8.51311 11.1819 8.51411 9.17089 9.75411 7.92989C10.9941 6.68889 13.0051 6.68989 14.2461 7.92989" stroke="#24292F" stroke-width="1.5" stroke-linecap="round" stroke-linejoin="round"/>
<path fill-rule="evenodd" clip-rule="evenodd" d="M19 21H5C3.895 21 3 20.105 3 19V5C3 3.895 3.895 3 5 3H19C20.105 3 21 3.895 21 5V19C21 20.105 20.105 21 19 21Z" stroke="#24292F" stroke-width="1.5" stroke-linecap="round" stroke-linejoin="round"/>
</svg>
