<svg width="41" height="40" viewBox="0 0 41 40" fill="none" xmlns="http://www.w3.org/2000/svg">
<path d="M4.14412 23.2841H2.07336C1.45454 23.2841 1.17217 23.1009 1.16516 22.6957C1.15815 22.2904 1.44754 22.0893 2.05434 22.0893H4.14111V20.8945C3.77763 20.8945 3.41915 20.8945 3.05967 20.8945C2.6271 20.8876 2.35874 20.6426 2.36775 20.2802C2.37676 19.9178 2.63911 19.7047 3.05867 19.7028C3.99791 19.6974 4.93683 19.6974 5.87541 19.7028C6.29396 19.7028 6.55631 19.9317 6.56733 20.2792C6.57834 20.6267 6.30598 20.8846 5.8744 20.8955C5.72521 20.8955 5.574 20.8955 5.39677 20.8955V22.0903H6.0917C6.88175 22.0903 7.17614 22.2556 7.16813 22.6967C7.16012 23.1377 6.87674 23.2851 6.06666 23.2851H5.36573C5.46587 23.6834 5.70719 23.8825 6.06666 23.8825C8.19482 23.8898 10.323 23.8898 12.4511 23.8825C12.5461 23.8868 12.641 23.8713 12.7295 23.837C12.8181 23.8026 12.8985 23.7503 12.9656 23.6833C13.0326 23.6162 13.0848 23.536 13.1188 23.4477C13.1529 23.3594 13.1679 23.265 13.1631 23.1706C13.1731 21.6512 13.1731 20.1322 13.1631 18.6135C13.1631 18.1963 12.8627 17.9335 12.4371 17.9166C12.2118 17.9066 11.9865 17.9166 11.7612 17.9166H11.3667C11.3667 18.4472 11.3667 18.964 11.3667 19.4807C11.3667 20.1239 11.1845 20.3091 10.5496 20.3091C9.68647 20.3091 8.82266 20.3091 7.95818 20.3091C7.34837 20.3091 7.15711 20.1189 7.15711 19.4996C7.15711 18.9909 7.15711 18.4821 7.15711 17.9315C6.74156 17.9315 6.34203 17.8956 5.95552 17.9474C5.77227 17.9713 5.59304 18.1466 5.44384 18.284C5.17649 18.5359 4.86307 18.5896 4.60272 18.3915C4.34238 18.1933 4.29131 17.8359 4.5126 17.5282C4.87808 17.0195 5.38276 16.7317 6.00859 16.7317C8.17447 16.7188 10.3403 16.7029 12.5052 16.7447C12.9508 16.7536 13.3914 17.0055 13.845 17.1429C15.1818 14.156 15.6053 13.683 17.9224 12.6555C17.8223 12.556 17.7221 12.4674 17.628 12.3768C16.8924 11.6716 16.4046 10.7499 16.2365 9.74776C16.0685 8.74566 16.2291 7.71637 16.6948 6.81206C17.64 4.93128 19.6928 3.90377 21.8246 4.24428C23.8072 4.5609 25.4234 6.20671 25.7228 8.22689C25.7737 8.47033 25.7902 8.71966 25.7718 8.96765C25.7468 9.14388 25.6346 9.39677 25.4965 9.45054C25.1961 9.56902 25.2051 9.76914 25.2702 9.98321C25.3703 10.3128 25.4394 10.6891 25.6477 10.943C26.1754 11.5842 25.912 12.2623 25.4214 12.7352C25.2651 12.8844 25.1444 13.0664 25.0679 13.2679C24.7815 14.0644 24.2788 14.4826 23.2855 14.6847C23.7712 15.3637 24.1677 16.0856 24.9007 16.5226C25.3573 16.7935 25.876 16.7935 26.3636 16.7118C27.3729 16.5416 28.2551 16.6889 28.9591 17.5452C29.3596 16.5824 30.0074 15.9332 30.9857 15.6534C31.238 15.5834 31.4979 15.5442 31.7598 15.5369C32.1353 15.526 32.3896 15.759 32.3916 16.1284C32.4016 17.7214 32.4016 19.3144 32.3916 20.9075C32.3961 20.9895 32.3824 21.0715 32.3515 21.1476C32.3205 21.2238 32.2732 21.2923 32.2127 21.3482C32.1522 21.4042 32.0802 21.4462 32.0015 21.4714C31.9229 21.4966 31.8397 21.5043 31.7578 21.4939C31.4033 21.471 31.0568 21.3854 30.6623 21.3217L31.8639 24.0976C32.1393 24.7368 32.4236 25.373 32.685 26.0192C32.7681 26.2243 32.8783 26.286 33.0965 26.292C35.5488 26.3577 37.4764 28.113 37.7878 30.5514C38.0752 32.7995 36.5862 34.9999 34.3372 35.6571C31.6066 36.4536 28.7758 34.6943 28.2721 31.8875L28.2351 31.6884H19.162C18.6163 34.5519 16.3343 35.8064 14.3917 35.8144C12.4491 35.8223 10.1291 34.5638 9.58033 31.6655C9.02759 31.6655 8.46685 31.6655 7.90611 31.6655C7.3714 31.6655 7.16011 31.4474 7.16512 30.9108C7.17096 29.2246 7.57718 27.5636 8.35069 26.063C8.51891 25.7354 8.75824 25.4447 8.99555 25.0922H6.22587C5.11039 25.0922 4.42348 24.5396 4.17014 23.4603C4.17615 23.3946 4.16014 23.3488 4.14412 23.2841ZM19.7799 30.4379C19.152 29.6125 19.1701 28.6915 19.1911 27.7685C19.1981 27.4828 19.1911 27.196 19.1911 26.9103C19.1911 25.7762 18.4841 25.0783 17.3396 25.0773C15.6263 25.0773 13.9121 25.0982 12.1998 25.0703C10.7979 25.0474 9.84168 25.6428 9.27192 26.9083C8.7579 28.0199 8.4554 29.2166 8.37973 30.4379H19.7799ZM24.374 19.5853C24.5312 18.955 24.6744 18.3716 24.8266 17.7722C23.682 17.1748 23.4848 16.9956 22.6487 15.8406C22.3853 15.4772 22.113 15.1198 21.8166 14.7842C21.4256 14.3416 20.9112 14.0245 20.3386 13.8732C18.6364 13.4073 17.0923 13.9887 16.0279 15.5101C15.2198 16.665 14.8053 17.9783 14.5409 19.3423C14.4408 19.8402 14.4087 20.3589 14.3406 20.8985C16.0359 20.8985 17.636 20.8985 19.2361 20.8906C19.2857 20.8836 19.3327 20.8645 19.3729 20.835C19.4131 20.8054 19.4453 20.7663 19.4664 20.7213C19.6835 19.951 20.0677 19.2373 20.5919 18.6304C20.3286 18.2441 20.0672 17.8937 19.8429 17.5213C19.8016 17.4545 19.7744 17.3801 19.763 17.3026C19.7516 17.225 19.7563 17.1459 19.7768 17.0702C19.7972 16.9945 19.833 16.9238 19.8819 16.8623C19.9308 16.8009 19.9918 16.75 20.0612 16.7128C20.3356 16.5545 20.649 16.6292 20.8523 16.906C20.9034 16.9757 20.9434 17.0533 20.9895 17.128C21.5967 18.1264 22.516 18.8996 23.607 19.3294C23.8693 19.429 24.1447 19.5006 24.374 19.5763V19.5853ZM27.0065 30.4528C27.6603 30.4528 28.2341 30.4418 28.8089 30.4588C28.9064 30.4658 29.004 30.4451 29.0901 30.3991C29.1763 30.3531 29.2475 30.2836 29.2955 30.1989C30.0335 29.1505 30.7765 28.108 31.5375 27.0726C31.6967 26.8565 31.6907 26.6922 31.5915 26.4662C30.8696 24.8164 30.1586 23.1607 29.4437 21.5069C29.2625 21.0877 29.0812 20.6685 28.935 20.333L25.9841 21.0061C26.4577 23.0173 26.9254 25.1012 27.445 27.1721C27.7244 28.3062 27.7454 29.3805 27.0065 30.4528ZM24.5162 8.3394C24.366 6.63086 22.5696 5.224 20.7602 5.3604C18.7855 5.50975 17.2415 7.28599 17.3977 9.2305C17.5289 10.8534 19.0779 12.5062 20.3937 12.4056C20.3937 11.8859 20.3937 11.3642 20.3937 10.8425C20.4077 9.40872 21.4701 8.35333 22.914 8.34039C23.4397 8.33541 23.9634 8.3394 24.5162 8.3394ZM22.8009 28.0453V27.67C22.8009 26.7121 22.8229 25.7543 22.7879 24.7975C22.7408 23.543 22.0248 22.63 20.8223 22.2666C20.465 22.1582 20.0943 22.0999 19.7208 22.0933C18.0576 22.0754 16.3944 22.0843 14.7322 22.0863C14.624 22.0863 14.5169 22.0993 14.4157 22.1063C14.3877 22.7116 14.3617 23.2851 14.3336 23.8785C15.349 23.8785 16.3733 23.8785 17.3977 23.8785C19.152 23.8785 20.3927 25.1151 20.4017 26.8655C20.4017 27.2637 20.4017 27.651 20.4017 28.0493L22.8009 28.0453ZM20.598 20.9254C20.7522 20.9862 20.7982 21.01 20.8433 21.025C22.8189 21.4969 23.9995 22.9864 23.9975 25.0076C23.9975 25.9535 23.9975 26.8993 24.0035 27.8442C24.0035 27.9587 24.0615 28.1499 24.1366 28.1737C25.0248 28.4605 25.5385 29.0698 25.7758 30.0366C25.9152 29.89 26.0434 29.7333 26.1593 29.5677C26.4204 29.1071 26.4962 28.5653 26.3716 28.0513C26.2655 27.5535 26.1413 27.0556 26.0272 26.5628C25.6086 24.7597 25.1931 22.9555 24.7665 21.1544C24.7374 21.0329 24.6333 20.8557 24.5392 20.8358C23.4005 20.6326 22.3308 20.1501 21.4271 19.4319L20.598 20.9254ZM29.4948 31.6615C29.4909 31.7002 29.4909 31.7393 29.4948 31.778C29.8472 33.5552 31.5976 34.8307 33.3859 34.6196C34.2981 34.5228 35.1392 34.0852 35.7391 33.3951C36.339 32.7051 36.6529 31.8142 36.6172 30.9028C36.5591 29.0947 35.0571 27.5783 33.2427 27.4619C32.8602 27.438 32.6139 27.5315 32.4156 27.8601C32.1984 28.2215 31.928 28.5571 31.6847 28.8986C31.652 28.962 31.6264 29.0287 31.6086 29.0977C31.7548 29.0161 31.8509 28.9573 31.951 28.9075C32.5087 28.6346 33.151 28.5871 33.7432 28.7751C34.3353 28.9631 34.8311 29.3719 35.1266 29.9156C35.4221 30.4594 35.4942 31.0958 35.3277 31.6913C35.1613 32.2868 34.7693 32.795 34.2341 33.1092C33.1096 33.7633 31.5905 33.4417 31.0108 32.2868C30.7024 31.6705 30.3299 31.5819 29.7711 31.6466C29.682 31.6565 29.5959 31.6565 29.4968 31.6615H29.4948ZM17.8984 31.6476C17.5609 31.6476 17.2235 31.6336 16.89 31.6575C16.8359 31.6699 16.7854 31.6942 16.742 31.7287C16.6987 31.7632 16.6637 31.8069 16.6397 31.8567C16.2101 32.8523 15.4521 33.4039 14.3727 33.4019C13.3083 33.4019 12.5603 32.8483 12.1327 31.8726C12.0947 31.785 12.0035 31.6635 11.9324 31.6585C11.578 31.6366 11.2215 31.6486 10.861 31.6486C11.0773 33.3611 12.6995 34.6753 14.4888 34.6355C16.1831 34.5927 17.7682 33.2197 17.9004 31.6476H17.8984ZM21.6033 13.1544C22.0879 13.2539 22.5576 13.3844 23.0352 13.4292C23.5589 13.4779 23.8943 13.2221 23.9594 12.7153C24.0095 12.317 24.1597 12.0402 24.5101 11.858C24.5802 11.8222 24.6253 11.7395 24.6814 11.6788L24.5812 11.6898C24.3539 10.9928 24.1276 10.2958 23.8803 9.53517H22.9661C22.8658 9.53276 22.7654 9.53742 22.6657 9.54911C22.121 9.63473 21.6423 10.0688 21.6153 10.6135C21.5773 11.4408 21.6073 12.2712 21.6073 13.1544H21.6033ZM24.5762 30.4279C24.5552 29.7877 24.1977 29.3038 23.653 29.2809C22.6246 29.2381 21.5923 29.269 20.5158 29.269C20.7812 29.94 21.2488 30.3582 21.9047 30.411C22.7869 30.4817 23.675 30.4279 24.5802 30.4279H24.5762ZM28.3813 19.1024C27.9948 17.9643 27.451 17.6089 26.6179 17.8966C25.924 18.1396 25.4884 19.0128 25.7378 19.6888C26.6578 19.7249 27.5714 19.5229 28.3893 19.1024H28.3813ZM31.185 16.8622C30.452 17.0703 29.9684 17.7871 30.0004 18.5826C30.0295 19.3135 30.5462 19.9925 31.185 20.1239V16.8622ZM32.0151 31.6466C32.3155 32.1444 32.8162 32.3435 33.3168 32.1972C33.5727 32.125 33.7973 31.9705 33.9554 31.7579C34.1134 31.5452 34.1961 31.2864 34.1904 31.022C34.1846 30.7576 34.0909 30.5026 33.9237 30.2969C33.7566 30.0912 33.5255 29.9464 33.2668 29.8853C33.0333 29.8247 32.7862 29.844 32.5651 29.9401C32.3441 30.0362 32.162 30.2034 32.0481 30.415C32.0552 30.4239 32.0632 30.4398 32.0702 30.4398C32.3576 30.4448 32.6449 30.4448 32.9313 30.4528C33.3389 30.4657 33.6002 30.7057 33.5962 31.0562C33.5922 31.4066 33.3289 31.6366 32.9173 31.6456C32.6459 31.6476 32.3596 31.6476 32.0261 31.6476L32.0151 31.6466ZM8.38374 19.0715H10.1401V17.9205H8.38374V19.0715ZM13.3734 31.6685C13.4735 31.8467 13.6217 31.9935 13.8013 32.0923C13.9809 32.1912 14.1847 32.2382 14.3897 32.228C14.591 32.2331 14.7899 32.1837 14.9652 32.0851C15.1405 31.9866 15.2856 31.8426 15.385 31.6685H13.3734Z" fill="#66C61C"/>
</svg>
