<svg width="41" height="40" viewBox="0 0 41 40" fill="none" xmlns="http://www.w3.org/2000/svg">
<path d="M4.14314 23.2841H2.07239C1.45357 23.2841 1.1712 23.1009 1.16419 22.6957C1.15718 22.2904 1.44656 22.0893 2.05337 22.0893H4.14013V20.8945C3.77665 20.8945 3.41817 20.8945 3.05869 20.8945C2.62612 20.8876 2.35776 20.6426 2.36677 20.2802C2.37578 19.9178 2.63813 19.7047 3.05769 19.7028C3.99694 19.6974 4.93585 19.6974 5.87443 19.7028C6.29299 19.7028 6.55534 19.9317 6.56635 20.2792C6.57737 20.6267 6.305 20.8846 5.87343 20.8955C5.72423 20.8955 5.57303 20.8955 5.39579 20.8955V22.0903H6.09072C6.88077 22.0903 7.17516 22.2556 7.16715 22.6967C7.15914 23.1377 6.87576 23.2851 6.06569 23.2851H5.36476C5.46489 23.6834 5.70621 23.8825 6.06569 23.8825C8.19385 23.8898 10.322 23.8898 12.4502 23.8825C12.5451 23.8868 12.64 23.8713 12.7286 23.837C12.8172 23.8026 12.8976 23.7503 12.9646 23.6833C13.0317 23.6162 13.0839 23.536 13.1179 23.4477C13.1519 23.3594 13.167 23.265 13.1621 23.1706C13.1721 21.6512 13.1721 20.1322 13.1621 18.6135C13.1621 18.1963 12.8617 17.9335 12.4361 17.9166C12.2108 17.9066 11.9855 17.9166 11.7602 17.9166H11.3657C11.3657 18.4472 11.3657 18.964 11.3657 19.4807C11.3657 20.1239 11.1835 20.3091 10.5486 20.3091C9.6855 20.3091 8.82168 20.3091 7.9572 20.3091C7.34739 20.3091 7.15614 20.1189 7.15614 19.4996C7.15614 18.9909 7.15614 18.4821 7.15614 17.9315C6.74059 17.9315 6.34105 17.8956 5.95454 17.9474C5.7713 17.9713 5.59206 18.1466 5.44286 18.284C5.17551 18.5359 4.86209 18.5896 4.60175 18.3915C4.3414 18.1933 4.29033 17.8359 4.51162 17.5282C4.87711 17.0195 5.38178 16.7317 6.00762 16.7317C8.17349 16.7188 10.3394 16.7029 12.5042 16.7447C12.9498 16.7536 13.3904 17.0055 13.844 17.1429C15.1808 14.156 15.6044 13.683 17.9214 12.6555C17.8213 12.556 17.7212 12.4674 17.627 12.3768C16.8915 11.6716 16.4036 10.7499 16.2355 9.74776C16.0675 8.74566 16.2282 7.71637 16.6938 6.81206C17.6391 4.93128 19.6918 3.90377 21.8236 4.24428C23.8062 4.5609 25.4224 6.20671 25.7218 8.22689C25.7728 8.47033 25.7893 8.71966 25.7708 8.96765C25.7458 9.14388 25.6337 9.39677 25.4955 9.45054C25.1951 9.56902 25.2041 9.76914 25.2692 9.98321C25.3693 10.3128 25.4384 10.6891 25.6467 10.943C26.1744 11.5842 25.911 12.2623 25.4204 12.7352C25.2642 12.8844 25.1434 13.0664 25.0669 13.2679C24.7805 14.0644 24.2779 14.4826 23.2845 14.6847C23.7702 15.3637 24.1667 16.0856 24.8997 16.5226C25.3563 16.7935 25.875 16.7935 26.3626 16.7118C27.372 16.5416 28.2541 16.6889 28.9581 17.5452C29.3586 16.5824 30.0065 15.9332 30.9848 15.6534C31.237 15.5834 31.497 15.5442 31.7588 15.5369C32.1343 15.526 32.3886 15.759 32.3906 16.1284C32.4006 17.7214 32.4006 19.3144 32.3906 20.9075C32.3951 20.9895 32.3814 21.0715 32.3505 21.1476C32.3196 21.2238 32.2722 21.2923 32.2117 21.3482C32.1513 21.4042 32.0792 21.4462 32.0006 21.4714C31.922 21.4966 31.8387 21.5043 31.7568 21.4939C31.4023 21.471 31.0559 21.3854 30.6613 21.3217L31.8629 24.0976C32.1383 24.7368 32.4227 25.373 32.684 26.0192C32.7671 26.2243 32.8773 26.286 33.0956 26.292C35.5478 26.3577 37.4754 28.113 37.7868 30.5514C38.0742 32.7995 36.5852 34.9999 34.3362 35.6571C31.6056 36.4536 28.7748 34.6943 28.2712 31.8875L28.2341 31.6884H19.1611C18.6153 34.5519 16.3333 35.8064 14.3907 35.8144C12.4482 35.8223 10.1281 34.5638 9.57935 31.6655C9.02662 31.6655 8.46587 31.6655 7.90513 31.6655C7.37042 31.6655 7.15914 31.4474 7.16414 30.9108C7.16999 29.2246 7.5762 27.5636 8.34971 26.063C8.51794 25.7354 8.75726 25.4447 8.99458 25.0922H6.2249C5.10942 25.0922 4.4225 24.5396 4.16916 23.4603C4.17517 23.3946 4.15916 23.3488 4.14314 23.2841ZM19.7789 30.4379C19.1511 29.6125 19.1691 28.6915 19.1901 27.7685C19.1971 27.4828 19.1901 27.196 19.1901 26.9103C19.1901 25.7762 18.4832 25.0783 17.3386 25.0773C15.6254 25.0773 13.9111 25.0982 12.1988 25.0703C10.797 25.0474 9.8407 25.6428 9.27094 26.9083C8.75692 28.0199 8.45442 29.2166 8.37876 30.4379H19.7789ZM24.373 19.5853C24.5302 18.955 24.6734 18.3716 24.8256 17.7722C23.6811 17.1748 23.4838 16.9956 22.6477 15.8406C22.3843 15.4772 22.112 15.1198 21.8156 14.7842C21.4246 14.3416 20.9102 14.0245 20.3376 13.8732C18.6354 13.4073 17.0913 13.9887 16.0269 15.5101C15.2188 16.665 14.8043 17.9783 14.5399 19.3423C14.4398 19.8402 14.4078 20.3589 14.3397 20.8985C16.0349 20.8985 17.635 20.8985 19.2352 20.8906C19.2847 20.8836 19.3317 20.8645 19.3719 20.835C19.4121 20.8054 19.4443 20.7663 19.4655 20.7213C19.6825 19.951 20.0667 19.2373 20.591 18.6304C20.3276 18.2441 20.0663 17.8937 19.842 17.5213C19.8006 17.4545 19.7734 17.3801 19.7621 17.3026C19.7507 17.225 19.7553 17.1459 19.7758 17.0702C19.7962 16.9945 19.832 16.9238 19.8809 16.8623C19.9298 16.8009 19.9909 16.75 20.0603 16.7128C20.3346 16.5545 20.648 16.6292 20.8513 16.906C20.9024 16.9757 20.9424 17.0533 20.9885 17.128C21.5957 18.1264 22.5151 18.8996 23.606 19.3294C23.8683 19.429 24.1437 19.5006 24.373 19.5763V19.5853ZM27.0055 30.4528C27.6594 30.4528 28.2331 30.4418 28.8079 30.4588C28.9054 30.4658 29.003 30.4451 29.0891 30.3991C29.1753 30.3531 29.2465 30.2836 29.2945 30.1989C30.0325 29.1505 30.7755 28.108 31.5365 27.0726C31.6957 26.8565 31.6897 26.6922 31.5906 26.4662C30.8686 24.8164 30.1577 23.1607 29.4427 21.5069C29.2615 21.0877 29.0802 20.6685 28.934 20.333L25.9831 21.0061C26.4568 23.0173 26.9244 25.1012 27.4441 27.1721C27.7234 28.3062 27.7445 29.3805 27.0055 30.4528ZM24.5152 8.3394C24.365 6.63086 22.5686 5.224 20.7592 5.3604C18.7846 5.50975 17.2405 7.28599 17.3967 9.2305C17.5279 10.8534 19.077 12.5062 20.3927 12.4056C20.3927 11.8859 20.3927 11.3642 20.3927 10.8425C20.4067 9.40872 21.4691 8.35333 22.913 8.34039C23.4387 8.33541 23.9624 8.3394 24.5152 8.3394ZM22.7999 28.0453V27.67C22.7999 26.7121 22.8219 25.7543 22.7869 24.7975C22.7398 23.543 22.0239 22.63 20.8213 22.2666C20.464 22.1582 20.0933 22.0999 19.7198 22.0933C18.0566 22.0754 16.3934 22.0843 14.7312 22.0863C14.6231 22.0863 14.5159 22.0993 14.4148 22.1063C14.3867 22.7116 14.3607 23.2851 14.3327 23.8785C15.348 23.8785 16.3724 23.8785 17.3967 23.8785C19.1511 23.8785 20.3917 25.1151 20.4007 26.8655C20.4007 27.2637 20.4007 27.651 20.4007 28.0493L22.7999 28.0453ZM20.597 20.9254C20.7512 20.9862 20.7972 21.01 20.8423 21.025C22.8179 21.4969 23.9985 22.9864 23.9965 25.0076C23.9965 25.9535 23.9965 26.8993 24.0025 27.8442C24.0025 27.9587 24.0606 28.1499 24.1357 28.1737C25.0238 28.4605 25.5375 29.0698 25.7748 30.0366C25.9143 29.89 26.0425 29.7333 26.1584 29.5677C26.4194 29.1071 26.4952 28.5653 26.3706 28.0513C26.2645 27.5535 26.1403 27.0556 26.0262 26.5628C25.6076 24.7597 25.1921 22.9555 24.7655 21.1544C24.7365 21.0329 24.6323 20.8557 24.5382 20.8358C23.3995 20.6326 22.3298 20.1501 21.4261 19.4319L20.597 20.9254ZM29.4938 31.6615C29.4899 31.7002 29.4899 31.7393 29.4938 31.778C29.8463 33.5552 31.5966 34.8307 33.3849 34.6196C34.2971 34.5228 35.1382 34.0852 35.7381 33.3951C36.338 32.7051 36.6519 31.8142 36.6162 30.9028C36.5582 29.0947 35.0562 27.5783 33.2418 27.4619C32.8593 27.438 32.6129 27.5315 32.4147 27.8601C32.1974 28.2215 31.927 28.5571 31.6837 28.8986C31.651 28.962 31.6255 29.0287 31.6076 29.0977C31.7538 29.0161 31.8499 28.9573 31.95 28.9075C32.5077 28.6346 33.1501 28.5871 33.7422 28.7751C34.3343 28.9631 34.8302 29.3719 35.1256 29.9156C35.4211 30.4594 35.4932 31.0958 35.3267 31.6913C35.1603 32.2868 34.7683 32.795 34.2331 33.1092C33.1086 33.7633 31.5896 33.4417 31.0098 32.2868C30.7014 31.6705 30.3289 31.5819 29.7702 31.6466C29.681 31.6565 29.5949 31.6565 29.4958 31.6615H29.4938ZM17.8974 31.6476C17.5599 31.6476 17.2225 31.6336 16.8891 31.6575C16.835 31.6699 16.7844 31.6942 16.741 31.7287C16.6977 31.7632 16.6627 31.8069 16.6387 31.8567C16.2091 32.8523 15.4511 33.4039 14.3717 33.4019C13.3073 33.4019 12.5593 32.8483 12.1317 31.8726C12.0937 31.785 12.0026 31.6635 11.9315 31.6585C11.577 31.6366 11.2205 31.6486 10.8601 31.6486C11.0763 33.3611 12.6985 34.6753 14.4879 34.6355C16.1821 34.5927 17.7672 33.2197 17.8994 31.6476H17.8974ZM21.6023 13.1544C22.087 13.2539 22.5566 13.3844 23.0342 13.4292C23.5579 13.4779 23.8933 13.2221 23.9584 12.7153C24.0085 12.317 24.1587 12.0402 24.5092 11.858C24.5793 11.8222 24.6243 11.7395 24.6804 11.6788L24.5803 11.6898C24.353 10.9928 24.1267 10.2958 23.8793 9.53517H22.9651C22.8648 9.53276 22.7644 9.53742 22.6647 9.54911C22.12 9.63473 21.6414 10.0688 21.6143 10.6135C21.5763 11.4408 21.6063 12.2712 21.6063 13.1544H21.6023ZM24.5753 30.4279C24.5542 29.7877 24.1968 29.3038 23.652 29.2809C22.6237 29.2381 21.5913 29.269 20.5149 29.269C20.7802 29.94 21.2478 30.3582 21.9037 30.411C22.7859 30.4817 23.6741 30.4279 24.5793 30.4279H24.5753ZM28.3803 19.1024C27.9938 17.9643 27.4501 17.6089 26.617 17.8966C25.923 18.1396 25.4875 19.0128 25.7368 19.6888C26.6568 19.7249 27.5705 19.5229 28.3883 19.1024H28.3803ZM31.184 16.8622C30.4511 17.0703 29.9674 17.7871 29.9995 18.5826C30.0285 19.3135 30.5452 19.9925 31.184 20.1239V16.8622ZM32.0141 31.6466C32.3145 32.1444 32.8152 32.3435 33.3159 32.1972C33.5717 32.125 33.7963 31.9705 33.9544 31.7579C34.1125 31.5452 34.1951 31.2864 34.1894 31.022C34.1837 30.7576 34.0899 30.5026 33.9227 30.2969C33.7556 30.0912 33.5246 29.9464 33.2658 29.8853C33.0324 29.8247 32.7852 29.844 32.5642 29.9401C32.3431 30.0362 32.161 30.2034 32.0472 30.415C32.0542 30.4239 32.0622 30.4398 32.0692 30.4398C32.3566 30.4448 32.644 30.4448 32.9304 30.4528C33.3379 30.4657 33.5992 30.7057 33.5952 31.0562C33.5912 31.4066 33.3279 31.6366 32.9163 31.6456C32.645 31.6476 32.3586 31.6476 32.0251 31.6476L32.0141 31.6466ZM8.38277 19.0715H10.1391V17.9205H8.38277V19.0715ZM13.3724 31.6685C13.4725 31.8467 13.6207 31.9935 13.8003 32.0923C13.9799 32.1912 14.1837 32.2382 14.3887 32.228C14.59 32.2331 14.7889 32.1837 14.9642 32.0851C15.1395 31.9866 15.2846 31.8426 15.384 31.6685H13.3724Z" fill="#66C61C"/>
</svg>
