<svg width="263" height="264" viewBox="0 0 263 264" fill="none" xmlns="http://www.w3.org/2000/svg">
<g clip-path="url(#clip0_2173_17832)">
<g opacity="0.25">
<path d="M254.481 114.905C249.216 110.529 241.944 107.823 233.917 107.823H214.156C206.121 107.823 198.852 105.119 193.589 100.74C188.326 96.3666 185.068 90.3255 185.068 83.6506C185.068 70.2954 198.092 59.473 214.156 59.473H233.917C249.979 59.473 263 48.6505 263 35.2954C263 28.6204 259.744 22.5767 254.481 18.2056C249.216 13.8293 241.944 11.123 233.917 11.123H29.0825C13.0211 11.1283 0 21.9508 0 35.298C0 41.9729 3.25594 48.0193 8.51857 52.393C13.7838 56.7667 21.0558 59.4756 29.0825 59.4756H31.034C39.0687 59.4756 46.338 62.1819 51.6032 66.5582C56.8685 70.9319 60.1218 76.9756 60.1218 83.6532C60.1218 97.0031 47.1007 107.826 31.034 107.826H29.0825C13.0211 107.826 0 118.651 0 132.003C0 138.678 3.25594 144.724 8.51857 149.098C13.7838 153.474 21.0558 156.181 29.0825 156.181H43.5291L41.9511 143.43C41.7013 141.387 42.4824 139.472 43.8631 138.181L81.3143 78.9297C82.3479 77.2886 83.9338 76.1025 85.7485 75.558C86.4876 75.3292 87.266 75.2135 88.0603 75.2135H99.8795V38.4172C99.8795 34.9771 102.667 32.1841 106.115 32.1841H148.85C149.547 32.1841 150.231 32.2998 150.878 32.5234C152.04 32.9205 153.077 33.6621 153.837 34.6747L169.556 55.6121C169.977 56.1644 170.293 56.7825 170.506 57.4347C170.705 58.0475 170.805 58.6971 170.805 59.3572V80.3105L217.217 156.383L217.264 156.457L217.459 156.775V156.783C217.548 156.941 217.635 157.104 217.706 157.27C220.441 156.562 223.353 156.181 226.369 156.181H233.912C249.974 156.181 262.995 145.356 262.995 132.003C262.995 125.328 259.739 119.282 254.476 114.908L254.481 114.905ZM80.265 57.0718L85.6275 62.4343C86.1588 62.9656 86.1588 63.8309 85.6275 64.3621L83.6787 66.3162C83.1422 66.8475 82.2769 66.8475 81.743 66.3162L76.3805 60.951C75.8492 60.4171 74.9839 60.4171 74.4527 60.951L69.0901 66.311C68.5588 66.8449 67.6936 66.8449 67.1623 66.311L65.2109 64.3621C64.6796 63.8309 64.6796 62.9656 65.2109 62.4343L70.5734 57.0718C71.1047 56.5379 71.1047 55.6726 70.5734 55.1414L65.2056 49.7788C64.6743 49.2475 64.6743 48.3823 65.2056 47.8457L67.1623 45.8969C67.6936 45.363 68.5588 45.363 69.0901 45.8969L74.4527 51.2595C74.9892 51.7907 75.8492 51.7907 76.3857 51.2595L81.7483 45.8969C82.2795 45.363 83.1448 45.363 83.6787 45.8969L85.6275 47.8457C86.1588 48.377 86.1588 49.2423 85.6275 49.7762L80.265 55.1361C79.7337 55.6726 79.7337 56.5353 80.265 57.0718ZM182.017 37.0391L179.584 39.4744C179.342 39.7164 178.948 39.7164 178.709 39.4744L177.825 38.5908C177.583 38.3488 177.583 37.9569 177.825 37.715L180.258 35.2796C180.5 35.0376 180.5 34.6458 180.258 34.4038L177.822 31.9684C177.58 31.7291 177.58 31.3346 177.822 31.0926L178.711 30.209C178.95 29.967 179.345 29.967 179.587 30.209L182.02 32.6417C182.264 32.8837 182.656 32.8837 182.898 32.6417L185.333 30.209C185.575 29.967 185.967 29.967 186.209 30.209L187.093 31.0926C187.335 31.332 187.335 31.7265 187.093 31.9684L184.658 34.4012C184.416 34.6458 184.416 35.0376 184.658 35.2796L187.093 37.715C187.335 37.9569 187.335 38.3488 187.093 38.5908L186.209 39.4797C185.965 39.719 185.573 39.719 185.331 39.4797L182.895 37.0417C182.656 36.7997 182.262 36.7997 182.02 37.0417L182.017 37.0391ZM254.484 211.608C249.219 207.234 241.947 204.525 233.92 204.525H226.377C220.917 204.525 215.802 203.273 211.436 201.093L207.094 227.075L205.826 234.663C205.329 237.624 202.765 239.794 199.767 239.794H59.3091C56.2031 239.794 53.5889 237.484 53.2128 234.402L52.3054 227.075L49.5176 204.525H29.0878C13.0264 204.525 0.00526 215.348 0.00526 228.703C0.00526 235.378 3.2612 241.422 8.52383 245.793C13.7891 250.169 21.061 252.875 29.0878 252.875H233.923C249.984 252.875 263.005 242.053 263.005 228.703C263.005 222.028 259.749 215.982 254.487 211.608H254.484ZM224.239 215.461L226.674 217.896C226.916 218.138 226.916 218.53 226.674 218.772L225.791 219.661C225.546 219.903 225.154 219.903 224.912 219.661L222.48 217.223C222.238 216.981 221.843 216.981 221.604 217.223L219.168 219.658C218.926 219.9 218.535 219.9 218.293 219.658L217.409 218.775C217.167 218.533 217.167 218.141 217.409 217.899L219.844 215.464C220.084 215.222 220.084 214.83 219.844 214.588L217.406 212.155C217.164 211.913 217.164 211.519 217.406 211.277L218.295 210.393C218.537 210.151 218.929 210.151 219.171 210.393L221.606 212.826C221.848 213.068 222.24 213.068 222.482 212.826L224.918 210.393C225.16 210.151 225.551 210.151 225.793 210.393L226.677 211.277C226.919 211.519 226.919 211.91 226.677 212.152L224.242 214.585C224.002 214.83 224.002 215.222 224.242 215.464L224.239 215.461Z" fill="#CCD2D6"/>
<path d="M239.239 181.528C239.239 190.257 232.164 197.329 223.438 197.329C219.322 197.329 215.574 195.759 212.76 193.174L217.128 167.037C219.061 166.193 221.194 165.725 223.435 165.725C232.161 165.725 239.236 172.799 239.236 181.526L239.239 181.528Z" fill="#CCD2D6"/>
<path d="M36.0178 100.175C44.7445 100.175 51.8189 93.101 51.8189 84.3743C51.8189 75.6476 44.7445 68.5732 36.0178 68.5732C27.2912 68.5732 20.2168 75.6476 20.2168 84.3743C20.2168 93.101 27.2912 100.175 36.0178 100.175Z" fill="#CCD2D6"/>
</g>
<g opacity="0.5">
<path d="M217.464 156.778V156.767L217.264 156.449L217.216 156.381C216.125 154.745 214.263 153.648 212.109 153.648H94.398C91.9101 153.648 89.6693 152.146 88.7199 149.848L84.7906 140.33C83.8412 138.031 81.6005 136.529 79.1098 136.529H48.0548C46.4242 136.529 44.9567 137.158 43.8678 138.176C42.4845 139.464 41.7007 141.379 41.9532 143.425L52.2996 227.072H207.088L218.168 160.807C218.416 159.352 218.124 157.951 217.461 156.778H217.464ZM153.039 179.682C151.782 180.947 150.036 181.728 148.108 181.728H112.056C108.206 181.728 105.081 178.604 105.081 174.751C105.081 172.826 105.862 171.082 107.125 169.82C108.39 168.557 110.128 167.776 112.056 167.776H148.108C151.961 167.776 155.085 170.898 155.085 174.751C155.085 176.676 154.304 178.425 153.039 179.682Z" fill="#CCD2D6"/>
</g>
<g opacity="0.75">
<path d="M155.082 174.754C155.082 176.679 154.301 178.428 153.036 179.685C151.779 180.95 150.033 181.731 148.105 181.731H112.053C108.203 181.731 105.078 178.607 105.078 174.754C105.078 172.829 105.859 171.085 107.122 169.823C108.387 168.56 110.125 167.779 112.053 167.779H148.105C151.958 167.779 155.082 170.901 155.082 174.754Z" fill="#CCD2D6"/>
</g>
<path d="M148.107 182.52H112.055C107.773 182.52 104.291 179.036 104.291 174.754C104.291 172.682 105.098 170.733 106.566 169.265C108.036 167.798 109.985 166.99 112.055 166.99H148.107C152.388 166.99 155.873 170.472 155.873 174.754C155.873 176.832 155.063 178.783 153.596 180.245C152.136 181.713 150.187 182.52 148.107 182.52ZM112.055 168.568C110.406 168.568 108.854 169.213 107.681 170.38C106.513 171.548 105.869 173.1 105.869 174.751C105.869 178.162 108.644 180.94 112.055 180.94H148.107C149.761 180.94 151.315 180.295 152.478 179.125C153.651 177.957 154.295 176.406 154.295 174.751C154.295 171.34 151.518 168.566 148.107 168.566H112.055V168.568Z" fill="#CCD2D6"/>
<g opacity="0.75">
<path d="M207.091 227.075L205.824 234.665C205.329 237.627 202.765 239.794 199.764 239.794H59.3064C56.2004 239.794 53.5862 237.482 53.2101 234.402L52.3027 227.075H207.091Z" fill="#CCD2D6"/>
</g>
<path d="M199.764 240.583H59.3061C55.8082 240.583 52.8521 237.966 52.426 234.5L51.4082 226.286H208.022L206.602 234.794C206.042 238.147 203.164 240.583 199.764 240.583ZM53.194 227.864L53.9935 234.305C54.3222 236.985 56.6077 239.005 59.3087 239.005H199.766C202.394 239.005 204.616 237.124 205.048 234.534L206.163 227.864H53.194Z" fill="#CCD2D6"/>
<path d="M124.988 219.412H63.4062C62.9696 219.412 62.6172 219.06 62.6172 218.623C62.6172 218.186 62.9696 217.834 63.4062 217.834H124.988C125.424 217.834 125.777 218.186 125.777 218.623C125.777 219.06 125.424 219.412 124.988 219.412Z" fill="#CCD2D6"/>
<path d="M170.805 219.412H135.342C134.905 219.412 134.553 219.06 134.553 218.623C134.553 218.186 134.905 217.834 135.342 217.834H170.805C171.241 217.834 171.594 218.186 171.594 218.623C171.594 219.06 171.241 219.412 170.805 219.412Z" fill="#CCD2D6"/>
<path d="M77.1718 154.437H55.4374C55.0009 154.437 54.6484 154.085 54.6484 153.648C54.6484 153.212 55.0009 152.859 55.4374 152.859H77.1718C77.6083 152.859 77.9608 153.212 77.9608 153.648C77.9608 154.085 77.6083 154.437 77.1718 154.437Z" fill="#CCD2D6"/>
<path d="M199.612 210.956H161.939C161.503 210.956 161.15 210.604 161.15 210.167C161.15 209.73 161.503 209.378 161.939 209.378H199.612C200.048 209.378 200.401 209.73 200.401 210.167C200.401 210.604 200.048 210.956 199.612 210.956Z" fill="#CCD2D6"/>
<g opacity="0.75">
<path d="M170.506 118.082V153.647H94.3987C91.9107 153.647 89.67 152.146 88.7232 149.847L85.7539 142.657V75.5496C86.4929 75.3234 87.2714 75.2051 88.0683 75.2051H99.8849V116.165C99.8849 119.607 102.673 122.398 106.118 122.398H164.575C167.347 122.398 169.698 120.586 170.506 118.079V118.082Z" fill="#CCD2D6"/>
</g>
<path d="M171.295 154.437H94.3993C91.5826 154.437 89.0657 152.754 87.9927 150.15L84.9629 142.815V74.9686L85.5205 74.7977C86.3384 74.5452 87.1931 74.4189 88.0663 74.4189H100.672V116.168C100.672 119.168 103.115 121.612 106.116 121.612H164.573C166.943 121.612 169.026 120.097 169.754 117.84L171.293 113.072V154.439L171.295 154.437ZM86.5409 142.499L89.4497 149.545C90.2781 151.557 92.2217 152.856 94.3967 152.856H169.715V120.952C168.418 122.348 166.574 123.187 164.573 123.187H106.116C102.245 123.187 99.0939 120.036 99.0939 116.165V75.9943H88.0663C87.5482 75.9943 87.038 76.0495 86.5435 76.1574V142.499H86.5409Z" fill="#CCD2D6"/>
<g opacity="0.75">
<path d="M85.7513 75.5498V142.657L84.7887 140.329C83.8419 138.031 81.5985 136.529 79.1079 136.529H48.0502C46.4223 136.529 44.9521 137.158 43.8633 138.175L81.3145 78.9241C82.3507 77.2803 83.9366 76.0968 85.7487 75.5498H85.7513Z" fill="#CCD2D6"/>
</g>
<g opacity="0.75">
<path d="M217.22 156.38C216.128 154.745 214.264 153.648 212.11 153.648H170.506V118.082C170.7 117.48 170.808 116.838 170.808 116.168V80.3076L217.22 156.383V156.38Z" fill="#CCD2D6"/>
</g>
<path d="M86.5406 146.634L84.0606 140.632C83.2321 138.62 81.2885 137.321 79.1109 137.321H48.0532C46.6909 137.321 45.3943 137.831 44.4054 138.754L39.916 142.952L80.6494 78.5036C81.7725 76.7205 83.5056 75.4055 85.5228 74.7953L86.5406 74.4902V146.634ZM48.0532 135.74H79.1109C81.52 135.74 83.7081 136.969 84.9626 138.952V76.6968C83.745 77.2754 82.7114 78.1906 81.9855 79.3426L46.178 135.993C46.7829 135.824 47.4115 135.738 48.0532 135.738V135.74Z" fill="#CCD2D6"/>
<path d="M216.562 156.82C215.566 155.329 213.901 154.44 212.11 154.44H169.717V117.959L169.756 117.841C169.93 117.301 170.019 116.739 170.019 116.168V77.499L217.893 155.973L216.562 156.822V156.82ZM171.295 152.862H212.11C212.894 152.862 213.659 152.993 214.377 153.243L171.595 83.1167V116.171C171.595 116.862 171.492 117.549 171.292 118.206V152.862H171.295Z" fill="#CCD2D6"/>
<g opacity="0.25">
<path d="M170.804 59.3519V116.165C170.804 119.608 168.011 122.398 164.571 122.398H106.114C102.669 122.398 99.8809 119.605 99.8809 116.165V38.4118C99.8809 34.9718 102.669 32.1787 106.114 32.1787H148.851C149.551 32.1787 150.232 32.2971 150.877 32.518V54.6389C150.877 56.1827 152.126 57.432 153.67 57.432H170.504C170.704 58.0448 170.807 58.6917 170.807 59.3519H170.804Z" fill="#CCD2D6"/>
</g>
<path d="M164.571 123.187H106.114C102.243 123.187 99.0918 120.036 99.0918 116.165V38.4117C99.0918 34.5404 102.243 31.3896 106.114 31.3896H148.851C149.63 31.3896 150.398 31.5185 151.134 31.7736L151.665 31.9577V54.6415C151.665 55.7461 152.565 56.6455 153.67 56.6455H171.078L171.254 57.1926C171.48 57.8895 171.593 58.618 171.593 59.3544V116.168C171.593 120.039 168.442 123.19 164.571 123.19V123.187ZM106.114 32.9676C103.113 32.9676 100.67 35.4109 100.67 38.4117V116.165C100.67 119.166 103.113 121.609 106.114 121.609H164.571C167.574 121.609 170.015 119.166 170.015 116.165V59.3518C170.015 58.9705 169.976 58.5917 169.897 58.2209H153.667C151.692 58.2209 150.085 56.614 150.085 54.6389V33.1097C149.68 33.015 149.267 32.9676 148.849 32.9676H106.111H106.114Z" fill="#CCD2D6"/>
<g opacity="0.5">
<path d="M170.505 57.4316H153.67C152.126 57.4316 150.877 56.1823 150.877 54.6385V32.5176C152.039 32.9147 153.076 33.6564 153.836 34.6663L169.555 55.6063C169.973 56.1586 170.289 56.7767 170.502 57.4289L170.505 57.4316Z" fill="#CCD2D6"/>
</g>
<path d="M171.591 58.221H153.67C151.695 58.221 150.088 56.614 150.088 54.6389V31.416L151.132 31.7737C152.465 32.2287 153.617 33.0677 154.467 34.1959L170.186 55.136C170.649 55.7488 171.01 56.4405 171.254 57.19L171.591 58.2236V58.221ZM151.666 33.7515V54.6389C151.666 55.7435 152.565 56.643 153.67 56.643H169.297C169.187 56.4484 169.063 56.2616 168.929 56.0854L153.207 35.1454C152.784 34.5799 152.263 34.1118 151.669 33.7541L151.666 33.7515Z" fill="#CCD2D6"/>
<path d="M170.202 131.874H167.583C167.146 131.874 166.794 131.522 166.794 131.085C166.794 130.649 167.146 130.296 167.583 130.296H170.202C171.307 130.296 172.401 130.02 173.366 129.497C173.75 129.289 174.229 129.431 174.437 129.815C174.644 130.199 174.502 130.677 174.118 130.885C172.924 131.535 171.567 131.877 170.202 131.877V131.874ZM161.271 131.874H154.959C154.522 131.874 154.17 131.522 154.17 131.085C154.17 130.649 154.522 130.296 154.959 130.296H161.271C161.707 130.296 162.06 130.649 162.06 131.085C162.06 131.522 161.707 131.874 161.271 131.874ZM148.647 131.874H142.335C141.898 131.874 141.546 131.522 141.546 131.085C141.546 130.649 141.898 130.296 142.335 130.296H148.647C149.083 130.296 149.436 130.649 149.436 131.085C149.436 131.522 149.083 131.874 148.647 131.874ZM136.023 131.874H129.711C129.274 131.874 128.922 131.522 128.922 131.085C128.922 130.649 129.274 130.296 129.711 130.296H136.023C136.459 130.296 136.812 130.649 136.812 131.085C136.812 131.522 136.459 131.874 136.023 131.874ZM123.399 131.874H117.087C116.65 131.874 116.298 131.522 116.298 131.085C116.298 130.649 116.65 130.296 117.087 130.296H123.399C123.835 130.296 124.188 130.649 124.188 131.085C124.188 131.522 123.835 131.874 123.399 131.874ZM110.775 131.874H104.463C104.026 131.874 103.674 131.522 103.674 131.085C103.674 130.649 104.026 130.296 104.463 130.296H110.775C111.211 130.296 111.564 130.649 111.564 131.085C111.564 131.522 111.211 131.874 110.775 131.874ZM98.1903 131.511C98.1088 131.511 98.0273 131.498 97.9458 131.472C95.6997 130.743 93.8745 129.081 92.9382 126.911C92.7647 126.512 92.9488 126.046 93.3485 125.875C93.7483 125.702 94.2138 125.886 94.3847 126.285C95.1422 128.04 96.6176 129.384 98.4297 129.97C98.8452 130.104 99.0714 130.549 98.9373 130.964C98.8294 131.298 98.5191 131.509 98.1877 131.509L98.1903 131.511ZM177.453 126.104C177.395 126.104 177.335 126.099 177.277 126.083C176.851 125.986 176.585 125.562 176.683 125.139C176.793 124.655 176.848 124.155 176.848 123.653V119.019C176.848 118.582 177.201 118.23 177.637 118.23C178.074 118.23 178.426 118.582 178.426 119.019V123.653C178.426 124.273 178.358 124.891 178.219 125.491C178.134 125.857 177.811 126.104 177.451 126.104H177.453ZM93.0566 121.16C92.62 121.16 92.2676 120.807 92.2676 120.371V114.059C92.2676 113.622 92.62 113.27 93.0566 113.27C93.4932 113.27 93.8456 113.622 93.8456 114.059V120.371C93.8456 120.807 93.4932 121.16 93.0566 121.16ZM177.637 113.493C177.201 113.493 176.848 113.141 176.848 112.704V106.392C176.848 105.955 177.201 105.603 177.637 105.603C178.074 105.603 178.426 105.955 178.426 106.392V112.704C178.426 113.141 178.074 113.493 177.637 113.493ZM93.0566 108.536C92.62 108.536 92.2676 108.183 92.2676 107.747V101.435C92.2676 100.998 92.62 100.646 93.0566 100.646C93.4932 100.646 93.8456 100.998 93.8456 101.435V107.747C93.8456 108.183 93.4932 108.536 93.0566 108.536ZM177.637 100.869C177.201 100.869 176.848 100.517 176.848 100.08V93.7681C176.848 93.3315 177.201 92.9791 177.637 92.9791C178.074 92.9791 178.426 93.3315 178.426 93.7681V100.08C178.426 100.517 178.074 100.869 177.637 100.869ZM93.0566 95.9115C92.62 95.9115 92.2676 95.5591 92.2676 95.1225V88.8105C92.2676 88.3739 92.62 88.0215 93.0566 88.0215C93.4932 88.0215 93.8456 88.3739 93.8456 88.8105V95.1225C93.8456 95.5591 93.4932 95.9115 93.0566 95.9115ZM177.637 88.2451C177.201 88.2451 176.848 87.8926 176.848 87.4561V81.1441C176.848 80.7075 177.201 80.3551 177.637 80.3551C178.074 80.3551 178.426 80.7075 178.426 81.1441V87.4561C178.426 87.8926 178.074 88.2451 177.637 88.2451ZM93.0566 83.2875C92.62 83.2875 92.2676 82.9351 92.2676 82.4985V76.1865C92.2676 75.7499 92.62 75.3975 93.0566 75.3975C93.4932 75.3975 93.8456 75.7499 93.8456 76.1865V82.4985C93.8456 82.9351 93.4932 83.2875 93.0566 83.2875ZM177.637 75.6211C177.201 75.6211 176.848 75.2686 176.848 74.8321V68.5201C176.848 68.0835 177.201 67.7311 177.637 67.7311C178.074 67.7311 178.426 68.0835 178.426 68.5201V74.8321C178.426 75.2686 178.074 75.6211 177.637 75.6211ZM93.0566 70.6635C92.62 70.6635 92.2676 70.3111 92.2676 69.8745V63.5625C92.2676 63.1259 92.62 62.7735 93.0566 62.7735C93.4932 62.7735 93.8456 63.1259 93.8456 63.5625V69.8745C93.8456 70.3111 93.4932 70.6635 93.0566 70.6635ZM177.637 62.9971C177.201 62.9971 176.848 62.6446 176.848 62.2081V55.8961C176.848 55.2017 176.741 54.5127 176.525 53.8473C176.288 53.1319 175.949 52.4797 175.518 51.909L175.005 51.2278C174.744 50.878 174.813 50.3836 175.163 50.1232C175.512 49.8628 176.007 49.9312 176.267 50.281L176.775 50.9569C177.311 51.6618 177.732 52.4692 178.024 53.3581C178.29 54.1866 178.424 55.0387 178.424 55.8961V62.2081C178.424 62.6446 178.071 62.9971 177.635 62.9971H177.637ZM93.0566 58.0395C92.62 58.0395 92.2676 57.6871 92.2676 57.2505V50.9385C92.2676 50.5019 92.62 50.1495 93.0566 50.1495C93.4932 50.1495 93.8456 50.5019 93.8456 50.9385V57.2505C93.8456 57.6871 93.4932 58.0395 93.0566 58.0395ZM171.849 46.4964C171.609 46.4964 171.373 46.3886 171.218 46.1808L167.428 41.1339C167.167 40.7867 167.236 40.2896 167.586 40.0293C167.935 39.7689 168.43 39.8373 168.69 40.1871L172.48 45.234C172.74 45.5812 172.672 46.0783 172.322 46.3386C172.18 46.4465 172.014 46.4964 171.849 46.4964ZM93.0566 45.4155C92.62 45.4155 92.2676 45.0631 92.2676 44.6265V38.3145C92.2676 37.8779 92.62 37.5255 93.0566 37.5255C93.4932 37.5255 93.8456 37.8779 93.8456 38.3145V44.6265C93.8456 45.0631 93.4932 45.4155 93.0566 45.4155ZM164.272 36.3999C164.032 36.3999 163.796 36.292 163.641 36.0843L159.851 31.0373C159.59 30.6875 159.659 30.1931 160.008 29.9327C160.358 29.6723 160.853 29.7407 161.113 30.0905L164.903 35.1375C165.163 35.4873 165.095 35.9817 164.745 36.2421C164.603 36.3499 164.437 36.3999 164.272 36.3999ZM93.0566 32.7915C92.62 32.7915 92.2676 32.4391 92.2676 32.0025V30.9242C92.2676 28.9754 92.9619 27.087 94.2217 25.6037C94.5031 25.2723 95.0028 25.2303 95.3342 25.5143C95.6655 25.7957 95.7076 26.2954 95.4236 26.6268C94.4058 27.8234 93.8456 29.3515 93.8456 30.9242V32.0025C93.8456 32.4391 93.4932 32.7915 93.0566 32.7915ZM156.618 26.3638C156.421 26.3638 156.224 26.2901 156.071 26.1429C155.374 25.4722 154.528 24.9541 153.618 24.6438C152.923 24.4018 152.197 24.2782 151.456 24.2782H150.851C150.414 24.2782 150.062 23.9258 150.062 23.4892C150.062 23.0526 150.414 22.7002 150.851 22.7002H151.456C152.374 22.7002 153.276 22.8527 154.133 23.1499C155.256 23.5313 156.305 24.173 157.168 25.0041C157.481 25.3065 157.492 25.8062 157.189 26.1192C157.034 26.2796 156.829 26.3612 156.621 26.3612L156.618 26.3638ZM100.355 24.2808C99.9261 24.2808 99.5737 23.9363 99.5658 23.505C99.5579 23.0684 99.9051 22.7107 100.342 22.7028H100.489H106.667C107.103 22.7028 107.456 23.0552 107.456 23.4918C107.456 23.9284 107.103 24.2808 106.667 24.2808H100.368C100.368 24.2808 100.357 24.2808 100.355 24.2808ZM144.539 24.2808H138.227C137.79 24.2808 137.438 23.9284 137.438 23.4918C137.438 23.0552 137.79 22.7028 138.227 22.7028H144.539C144.975 22.7028 145.328 23.0552 145.328 23.4918C145.328 23.9284 144.975 24.2808 144.539 24.2808ZM131.915 24.2808H125.603C125.166 24.2808 124.814 23.9284 124.814 23.4918C124.814 23.0552 125.166 22.7028 125.603 22.7028H131.915C132.351 22.7028 132.704 23.0552 132.704 23.4918C132.704 23.9284 132.351 24.2808 131.915 24.2808ZM119.291 24.2808H112.979C112.542 24.2808 112.19 23.9284 112.19 23.4918C112.19 23.0552 112.542 22.7028 112.979 22.7028H119.291C119.727 22.7028 120.08 23.0552 120.08 23.4918C120.08 23.9284 119.727 24.2808 119.291 24.2808Z" fill="#CCD2D6"/>
<g opacity="0.5">
<path d="M132.483 87.6004C129.764 87.6004 127.699 85.0835 128.31 82.4351C128.441 81.867 128.599 81.3463 128.783 80.8755C129.425 79.2318 130.464 77.8089 131.905 76.6018C133.343 75.3972 134.438 74.2926 135.187 73.2906C135.937 72.2886 136.31 71.1866 136.31 69.9794C136.31 67.0443 135.045 65.5742 132.518 65.5742C131.35 65.5742 130.408 66.0029 129.688 66.8576C129.448 67.1417 129.246 67.4625 129.083 67.8149C128.381 69.3193 126.926 70.3292 125.267 70.3292H123.92C120.688 70.3292 118.621 66.8708 120.165 64.0277C120.735 62.9784 121.469 62.05 122.368 61.2426C124.78 59.0755 128.162 57.9893 132.52 57.9893C136.878 57.9893 140.216 58.9913 142.598 60.9927C144.981 62.9968 146.173 65.8451 146.173 69.5402C146.173 71.155 145.852 72.6226 145.21 73.9455C144.568 75.2684 143.537 76.6202 142.117 78.0009L138.761 81.1227C137.809 82.038 137.146 82.9743 136.778 83.9368C136.705 84.1315 136.636 84.3366 136.573 84.5549C136.06 86.3696 134.372 87.5978 132.486 87.5978L132.483 87.6004ZM126.624 96.4688C126.624 95.0302 127.145 93.8493 128.183 92.9235C129.222 92.0004 130.521 91.5375 132.078 91.5375C133.635 91.5375 134.932 92.0004 135.973 92.9235C137.012 93.8467 137.533 95.0302 137.533 96.4688C137.533 97.9074 137.012 99.0909 135.973 100.014C134.932 100.937 133.635 101.4 132.078 101.4C130.521 101.4 129.225 100.937 128.183 100.014C127.142 99.0909 126.624 97.91 126.624 96.4688Z" fill="#CCD2D6"/>
</g>
<path d="M207.76 227.864H51.6039L41.1707 143.523C40.8998 141.327 41.7072 139.112 43.3299 137.6C44.6081 136.403 46.2861 135.743 48.0534 135.743H79.1085C81.9278 135.743 84.4447 137.426 85.5204 140.03L89.4496 149.548C90.2807 151.56 92.2216 152.859 94.3993 152.859H212.11C214.432 152.859 216.586 154.011 217.875 155.944L217.938 156.039L218.191 156.462C218.948 157.84 219.211 159.387 218.948 160.941L207.76 227.864ZM53.0005 226.286H206.424L217.394 160.678C217.599 159.461 217.386 158.245 216.778 157.167L216.568 156.828C215.569 155.329 213.904 154.437 212.113 154.437H94.4019C91.5852 154.437 89.0709 152.754 87.9952 150.15L84.066 140.632C83.2349 138.62 81.2914 137.321 79.1137 137.321H48.0587C46.6937 137.321 45.3971 137.829 44.4109 138.755C43.138 139.941 42.5278 141.608 42.7408 143.331L53.0031 226.286H53.0005Z" fill="#CCD2D6"/>
<g opacity="0.5">
<path d="M85.625 62.4316C86.1563 62.9629 86.1563 63.8281 85.625 64.3594L83.6762 66.3135C83.1397 66.8447 82.2744 66.8447 81.7431 66.3135L76.3806 60.9483C75.8493 60.417 74.984 60.417 74.4528 60.9483L69.0902 66.3109C68.5589 66.8421 67.6937 66.8421 67.1624 66.3109L65.2136 64.362C64.6823 63.8308 64.6823 62.9655 65.2136 62.4342L70.5761 57.0717C71.1074 56.5404 71.1074 55.6751 70.5761 55.1439L65.2109 49.7813C64.6797 49.25 64.6797 48.3848 65.2109 47.8483L67.165 45.8994C67.6963 45.3682 68.5616 45.3682 69.0928 45.8994L74.4554 51.262C74.9919 51.7933 75.8519 51.7933 76.3884 51.262L81.751 45.8994C82.2823 45.3682 83.1476 45.3682 83.6788 45.8994L85.6276 47.8483C86.1589 48.3795 86.1589 49.2448 85.6276 49.776L80.2651 55.1386C79.7338 55.6751 79.7338 56.5351 80.2651 57.0717L85.6276 62.4342L85.625 62.4316Z" fill="#CCD2D6"/>
</g>
<g opacity="0.5">
<path d="M204.396 91.1302C204.754 91.4878 204.754 92.0691 204.396 92.4268L203.084 93.7418C202.723 94.0994 202.14 94.0994 201.782 93.7418L198.173 90.1308C197.816 89.7731 197.235 89.7731 196.877 90.1308L193.269 93.7391C192.911 94.0968 192.33 94.0968 191.972 93.7391L190.66 92.4268C190.302 92.0691 190.302 91.4878 190.66 91.1302L194.268 87.5218C194.626 87.1641 194.626 86.5829 194.268 86.2252L190.657 82.6169C190.299 82.2592 190.299 81.6779 190.657 81.315L191.972 80.0026C192.33 79.645 192.911 79.645 193.269 80.0026L196.877 83.611C197.237 83.9687 197.816 83.9687 198.179 83.611L201.787 80.0026C202.145 79.645 202.726 79.645 203.084 80.0026L204.396 81.315C204.754 81.6727 204.754 82.2539 204.396 82.6116L200.788 86.22C200.43 86.5803 200.43 87.1589 200.788 87.5218L204.396 91.1302Z" fill="#CCD2D6"/>
</g>
<g opacity="0.5">
<path d="M187.09 37.712C187.332 37.9539 187.332 38.3458 187.09 38.5878L186.204 39.4741C185.959 39.716 185.568 39.716 185.326 39.4741L182.89 37.0361C182.648 36.7941 182.256 36.7941 182.014 37.0361L179.579 39.4714C179.337 39.7134 178.945 39.7134 178.703 39.4714L177.817 38.5851C177.575 38.3432 177.575 37.9513 177.817 37.7094L180.252 35.274C180.494 35.032 180.494 34.6401 180.252 34.3982L177.814 31.9628C177.572 31.7208 177.572 31.329 177.814 31.0844L178.701 30.1981C178.943 29.9561 179.334 29.9561 179.576 30.1981L182.012 32.6335C182.256 32.8754 182.646 32.8754 182.89 32.6335L185.326 30.1981C185.568 29.9561 185.959 29.9561 186.201 30.1981L187.088 31.0844C187.33 31.3263 187.33 31.7182 187.088 31.9602L184.652 34.3956C184.41 34.6401 184.41 35.0294 184.652 35.274L187.088 37.7094L187.09 37.712Z" fill="#CCD2D6"/>
</g>
<g opacity="0.5">
<path d="M226.672 217.894C226.914 218.136 226.914 218.527 226.672 218.769L225.786 219.656C225.541 219.898 225.15 219.898 224.908 219.656L222.472 217.218C222.23 216.976 221.838 216.976 221.596 217.218L219.161 219.653C218.919 219.895 218.527 219.895 218.285 219.653L217.399 218.767C217.157 218.525 217.157 218.133 217.399 217.891L219.834 215.456C220.076 215.214 220.076 214.822 219.834 214.58L217.396 212.144C217.154 211.902 217.154 211.511 217.396 211.266L218.283 210.38C218.525 210.138 218.916 210.138 219.158 210.38L221.594 212.815C221.838 213.057 222.228 213.057 222.472 212.815L224.908 210.38C225.15 210.138 225.541 210.138 225.783 210.38L226.67 211.266C226.912 211.508 226.912 211.9 226.67 212.142L224.234 214.577C223.992 214.822 223.992 215.211 224.234 215.456L226.67 217.891L226.672 217.894Z" fill="#CCD2D6"/>
</g>
<g opacity="0.5">
<path d="M32.9829 187.175C33.2248 187.417 33.2248 187.809 32.9829 188.051L32.0966 188.937C31.852 189.179 31.4601 189.179 31.2181 188.937L28.7828 186.499C28.5408 186.257 28.1489 186.257 27.907 186.499L25.4716 188.934C25.2296 189.176 24.8378 189.176 24.5958 188.934L23.7095 188.048C23.4675 187.806 23.4675 187.414 23.7095 187.172L26.1449 184.737C26.3868 184.495 26.3868 184.103 26.1449 183.861L23.7069 181.426C23.4649 181.184 23.4649 180.792 23.7069 180.547L24.5932 179.661C24.8351 179.419 25.227 179.419 25.469 179.661L27.9043 182.096C28.1489 182.338 28.5382 182.338 28.7828 182.096L31.2181 179.661C31.4601 179.419 31.852 179.419 32.0939 179.661L32.9802 180.547C33.2222 180.789 33.2222 181.181 32.9802 181.423L30.5449 183.858C30.3029 184.103 30.3029 184.492 30.5449 184.737L32.9802 187.172L32.9829 187.175Z" fill="#CCD2D6"/>
</g>
</g>
<defs>
<clipPath id="clip0_2173_17832">
<rect width="263" height="263" fill="white" transform="translate(0 0.5)"/>
</clipPath>
</defs>
</svg>
