<svg width="24" height="24" viewBox="0 0 24 24" fill="none" xmlns="http://www.w3.org/2000/svg">
<path d="M13.1851 7.40788C13.8396 8.0624 13.8396 9.12358 13.1851 9.7781C12.5306 10.4326 11.4694 10.4326 10.8149 9.7781C10.1603 9.12358 10.1603 8.0624 10.8149 7.40788C11.4694 6.75336 12.5306 6.75336 13.1851 7.40788" stroke="#424A53" stroke-width="1.5" stroke-linecap="round" stroke-linejoin="round"/>
<path d="M17.4849 8.38V8.38C17.4849 9.87 16.8229 11.282 15.6789 12.236L13.8799 13.735C13.1629 14.333 12.6269 15.118 12.3319 16.004L11.9999 17L11.6679 16.004C11.3729 15.119 10.8369 14.333 10.1199 13.735L8.32089 12.236C7.17589 11.282 6.51489 9.87 6.51489 8.38V8.38V8.408C6.51489 4.986 9.34889 3 11.9999 3C14.6509 3 17.4849 4.986 17.4849 8.408" stroke="#24292F" stroke-width="1.5" stroke-linecap="round" stroke-linejoin="round"/>
<path d="M7 14.5979C4.591 15.2249 3 16.2879 3 17.4999C3 19.4329 7.029 20.9999 12 20.9999C16.971 20.9999 21 19.4329 21 17.4999C21 16.2879 19.409 15.2239 17 14.5979" stroke="#424A53" stroke-width="1.5" stroke-linecap="round" stroke-linejoin="round"/>
</svg>
