<svg width="40" height="40" viewBox="0 0 40 40" fill="none" xmlns="http://www.w3.org/2000/svg">
<g clip-path="url(#clip0_338_3852)">
<g clip-path="url(#clip1_338_3852)">
<path d="M3.33337 6.45838C3.48507 5.95187 3.63806 5.44601 3.7891 4.93884C4.14913 3.73246 5.1615 3.16801 6.36332 3.51892C9.27348 4.36983 12.1843 5.21944 15.0879 6.09184C15.4408 6.19796 15.7904 6.39067 16.0775 6.62244C17.9935 8.16801 19.892 9.73572 21.7963 11.2963C21.8614 11.3497 21.9278 11.4017 22.0131 11.4707C22.306 11.1322 22.5886 10.806 22.8711 10.4792C23.6934 9.52804 24.8516 9.42713 25.8047 10.2474C27.7207 11.8959 29.6302 13.5508 31.5345 15.2123C32.4388 16.0013 32.5274 17.1739 31.7318 18.071C31.4694 18.3666 31.4454 18.5899 31.5938 18.9486C33.2175 22.8705 34.8217 26.8008 36.431 30.7292C36.5124 30.9278 36.5879 31.129 36.6667 31.3288V31.9799C36.4831 32.597 36.1622 33.1055 35.5404 33.3633C34.5808 33.7611 33.6237 34.1648 32.6563 34.543C32.0638 34.7741 31.4467 34.7422 30.9655 34.3262C30.6231 34.03 30.3614 34.0573 30.0332 34.2553C29.9961 34.2774 29.9558 34.2937 29.9154 34.3093C28.0098 35.0704 26.2207 36.1101 24.2312 36.668H23.515C23.3177 36.6172 23.1172 36.5782 22.9245 36.5144C21.6706 36.0977 20.8477 35.2546 20.5931 33.9558C19.6218 29.0046 18.6771 24.0482 17.724 19.0931C17.4148 17.4877 17.1127 15.8809 16.7956 14.2767C16.7689 14.142 16.6797 13.9929 16.5743 13.9037C15.5482 13.0352 14.517 12.1732 13.476 11.323C13.3054 11.1836 13.0918 11.0762 12.8802 11.0124C10.3295 10.25 7.78194 9.47335 5.21879 8.75655C4.24353 8.48312 3.56189 7.99679 3.33337 6.97921C3.33337 6.80538 3.33337 6.6322 3.33337 6.45838ZM17.5313 13.0834C17.6621 13.4095 17.7989 13.6426 17.849 13.8933C18.1504 15.39 18.4317 16.8913 18.7207 18.3913C19.6895 23.4219 20.6635 28.4512 21.6244 33.4838C21.9473 35.1758 23.39 35.9681 24.9603 35.278C26.7943 34.4727 28.6244 33.6576 30.4571 32.849C30.862 32.67 31.1042 32.7422 31.3145 33.0879C31.5957 33.5508 31.8991 33.6537 32.4089 33.4467C33.2318 33.1127 34.0528 32.7761 34.8737 32.4369C35.5677 32.1504 35.6914 31.8438 35.403 31.1394C33.7728 27.1622 32.142 23.1849 30.5124 19.2077C30.0847 18.1641 30.0567 18.3256 30.795 17.4786C30.8236 17.446 30.8503 17.4122 30.8783 17.3783C31.2845 16.8861 31.2559 16.4401 30.7683 16.0163C28.8776 14.3731 26.9844 12.7325 25.0879 11.0964C24.5977 10.6732 24.1355 10.7214 23.7051 11.2181C23.364 11.6114 23.0254 12.0072 22.6836 12.3991C22.2279 12.9219 22.028 12.9356 21.4961 12.4922C20.8588 11.9603 20.2201 11.431 19.5723 10.8926C18.8555 11.6622 18.1621 12.4063 17.5313 13.0834ZM18.7129 10.1843C17.8347 9.47009 16.9525 8.80213 16.1289 8.0684C15.4467 7.46033 14.6954 7.03715 13.8034 6.85812C13.7403 6.84509 13.6784 6.82426 13.6159 6.80538C11.114 6.0697 8.61202 5.33207 6.10942 4.59835C5.45512 4.40629 5.04561 4.61983 4.85356 5.24549C4.73962 5.61788 4.62895 5.99158 4.52413 6.36658C4.34965 6.98963 4.57361 7.38871 5.20382 7.57491C7.83988 8.35421 10.4799 9.11983 13.1088 9.91996C13.5202 10.045 13.9226 10.2748 14.2657 10.5391C15.0547 11.1472 15.8047 11.8054 16.5899 12.4597C17.2911 11.7077 17.9844 10.9642 18.7116 10.1843H18.7129Z" fill="#66C61C"/>
<path d="M3.33337 18.2437C3.82491 16.2059 4.9421 14.4989 6.17777 12.8537C6.44275 12.5009 6.75916 12.1962 7.22725 12.2606C7.50981 12.2997 7.86397 12.4006 8.02999 12.6018C9.30017 14.1395 10.4043 15.7893 10.9616 17.7294C11.6276 20.0484 9.90238 22.385 7.49548 22.4859C5.37699 22.5751 3.8477 21.3999 3.38936 19.3309C3.3809 19.2919 3.35225 19.2567 3.33337 19.2196C3.33337 18.8941 3.33337 18.5686 3.33337 18.243V18.2437ZM7.25525 13.3186C7.1615 13.4182 7.10681 13.4677 7.06254 13.5249C6.18624 14.6493 5.4128 15.8394 4.85421 17.1538C4.66215 17.6063 4.48897 18.1005 4.46293 18.5835C4.40238 19.7144 4.9141 20.5992 5.93429 21.0907C7.00264 21.605 8.08207 21.5295 9.01957 20.7632C9.90955 20.0347 10.1882 19.0562 9.88416 17.952C9.59379 16.8973 9.04171 15.9585 8.45382 15.0458C8.08012 14.4657 7.66736 13.9097 7.25525 13.3186Z" fill="#66C61C"/>
<path d="M24.9772 20.7884C26.2969 20.7943 27.2956 21.5104 27.6843 22.6413C28.3236 24.5052 28.9453 26.375 29.5742 28.2428C29.8125 28.9512 30.0521 29.6589 30.2884 30.3672C30.4506 30.8542 30.3614 31.0736 29.905 31.276C28.2025 32.0313 26.5 32.7878 24.793 33.5332C23.9317 33.9089 23.1224 33.4779 22.974 32.541C22.6407 30.4434 22.334 28.3418 22.0176 26.2415C21.903 25.4805 21.7787 24.7214 21.683 23.9577C21.5052 22.541 22.3588 21.3184 23.7416 21.0059C24.2051 20.901 24.6791 20.8392 24.9779 20.7871L24.9772 20.7884ZM22.7787 23.3197C22.7787 23.5215 22.7591 23.6836 22.7819 23.8398C23.0072 25.3828 23.2383 26.9251 23.4701 28.4674C23.6582 29.7207 23.8509 30.9727 24.0397 32.2259C24.0931 32.5788 24.14 32.6061 24.4785 32.4577C25.1328 32.1712 25.7871 31.8841 26.4408 31.5957C26.5358 31.5534 26.627 31.5026 26.7259 31.4525C26.6953 31.3522 26.6758 31.2799 26.6524 31.2096C26.0632 29.4557 25.4245 27.7161 24.9017 25.9421C24.5547 24.763 23.8125 23.9792 22.7787 23.319V23.3197ZM29.1289 30.4076C28.2839 27.8965 27.4558 25.4238 26.6166 22.9544C26.4584 22.4889 26.1361 22.1406 25.6589 22.0065C24.8913 21.7904 24.1667 21.9876 23.472 22.3268C23.4616 22.332 23.4649 22.3646 23.459 22.3997C23.6992 22.5905 23.9375 22.7956 24.1914 22.9798C25.0209 23.5807 25.5482 24.3802 25.8627 25.3529C26.4349 27.1237 27.0417 28.8835 27.6354 30.6478C27.6752 30.7663 27.7253 30.8809 27.7748 31.0072C28.2357 30.8027 28.6693 30.6107 29.1296 30.4069L29.1289 30.4076Z" fill="#66C61C"/>
<path d="M20.3471 16.676C20.5756 16.6936 20.7559 16.8505 20.821 17.1181C21.0873 18.2209 21.3484 19.3244 21.6016 20.4299C21.6726 20.7392 21.474 21.0282 21.1778 21.0953C20.8978 21.1584 20.6062 20.9957 20.5307 20.6903C20.2598 19.5888 19.9955 18.4859 19.7468 17.3791C19.6557 16.9729 19.9128 16.6662 20.3477 16.676H20.3471Z" fill="#66C61C"/>
<path d="M20.2214 15.2722C20.2188 15.666 20.0391 15.8907 19.7637 15.933C19.4825 15.9759 19.2553 15.8601 19.168 15.5957C19.0365 15.196 18.9363 14.7845 18.849 14.3724C18.7937 14.112 18.9825 13.8412 19.2397 13.7735C19.5124 13.7019 19.7709 13.7787 19.8673 14.0404C20.0268 14.474 20.1257 14.9304 20.2214 15.2722Z" fill="#66C61C"/>
</g>
</g>
<defs>
<clipPath id="clip0_338_3852">
<rect width="40" height="40" fill="white"/>
</clipPath>
<clipPath id="clip1_338_3852">
<rect width="33.3333" height="33.3333" fill="white" transform="translate(3.33337 3.33398)"/>
</clipPath>
</defs>
</svg>
