<svg width="24" height="24" viewBox="0 0 24 24" fill="none" xmlns="http://www.w3.org/2000/svg">
<mask id="path-1-inside-1_341_4606" fill="white">
<path d="M9.15722 20.7714V17.7047C9.1572 16.9246 9.79312 16.2908 10.581 16.2856H13.4671C14.2587 16.2856 14.9005 16.9209 14.9005 17.7047V20.7809C14.9003 21.4432 15.4343 21.9845 16.103 22H18.0271C19.9451 22 21.5 20.4607 21.5 18.5618V9.83784C21.4898 9.09083 21.1355 8.38935 20.538 7.93303L13.9577 2.6853C12.8049 1.77157 11.1662 1.77157 10.0134 2.6853L3.46203 7.94256C2.86226 8.39702 2.50739 9.09967 2.5 9.84736V18.5618C2.5 20.4607 4.05488 22 5.97291 22H7.89696C8.58235 22 9.13797 21.4499 9.13797 20.7714"/>
</mask>
<path d="M7.40722 20.7714C7.40722 21.7379 8.19072 22.5214 9.15722 22.5214C10.1237 22.5214 10.9072 21.7379 10.9072 20.7714H7.40722ZM9.15722 17.7047H10.9072V17.7046L9.15722 17.7047ZM10.581 16.2856V14.5356L10.5694 14.5356L10.581 16.2856ZM14.9005 20.7809L16.6505 20.7814V20.7809H14.9005ZM16.103 22L16.0624 23.7495C16.076 23.7498 16.0895 23.75 16.103 23.75V22ZM21.5 9.83784H23.25C23.25 9.82984 23.2499 9.82184 23.2498 9.81384L21.5 9.83784ZM20.538 7.93303L19.4468 9.30122C19.4564 9.30886 19.4661 9.31639 19.4758 9.32383L20.538 7.93303ZM13.9577 2.6853L15.0489 1.31711L15.0448 1.31386L13.9577 2.6853ZM10.0134 2.6853L8.92635 1.31384L8.91815 1.32042L10.0134 2.6853ZM3.46203 7.94256L4.51892 9.33736C4.53185 9.32756 4.54464 9.31759 4.55729 9.30744L3.46203 7.94256ZM2.5 9.84736L0.750085 9.83007C0.750028 9.83583 0.75 9.8416 0.75 9.84736H2.5ZM10.888 20.7714C10.888 19.8049 10.1045 19.0214 9.13797 19.0214C8.17148 19.0214 7.38797 19.8049 7.38797 20.7714H10.888ZM10.9072 20.7714V17.7047H7.40722V20.7714H10.9072ZM10.9072 17.7046C10.9072 17.903 10.7502 18.0345 10.5926 18.0356L10.5694 14.5356C8.836 14.5471 7.40718 15.9463 7.40722 17.7047L10.9072 17.7046ZM10.581 18.0356H13.4671V14.5356H10.581V18.0356ZM13.4671 18.0356C13.3089 18.0356 13.1505 17.904 13.1505 17.7047H16.6505C16.6505 15.9379 15.2086 14.5356 13.4671 14.5356V18.0356ZM13.1505 17.7047V20.7809H16.6505V17.7047H13.1505ZM13.1505 20.7804C13.1501 22.4096 14.4591 23.7123 16.0624 23.7495L16.1436 20.2505C16.4094 20.2566 16.6506 20.4768 16.6505 20.7814L13.1505 20.7804ZM16.103 23.75H18.0271V20.25H16.103V23.75ZM18.0271 23.75C20.895 23.75 23.25 21.4437 23.25 18.5618H19.75C19.75 19.4776 18.9953 20.25 18.0271 20.25V23.75ZM23.25 18.5618V9.83784H19.75V18.5618H23.25ZM23.2498 9.81384C23.2322 8.52587 22.6213 7.32208 21.6001 6.54224L19.4758 9.32383C19.6497 9.45662 19.7473 9.65578 19.7502 9.86183L23.2498 9.81384ZM21.6291 6.56484L15.0488 1.31711L12.8666 4.05349L19.4468 9.30122L21.6291 6.56484ZM15.0448 1.31386C13.2552 -0.104622 10.716 -0.104622 8.92637 1.31386L11.1005 4.05674C11.6164 3.64775 12.3547 3.64775 12.8707 4.05674L15.0448 1.31386ZM8.91815 1.32042L2.36676 6.57768L4.55729 9.30744L11.1087 4.05018L8.91815 1.32042ZM2.40513 6.54775C1.37684 7.32693 0.762863 8.53664 0.750085 9.83007L4.24991 9.86465C4.25191 9.66269 4.34767 9.46712 4.51892 9.33736L2.40513 6.54775ZM0.75 9.84736V18.5618H4.25V9.84736H0.75ZM0.75 18.5618C0.75 21.4437 3.10501 23.75 5.97291 23.75V20.25C5.00474 20.25 4.25 19.4776 4.25 18.5618H0.75ZM5.97291 23.75H7.89696V20.25H5.97291V23.75ZM7.89696 23.75C9.53222 23.75 10.888 22.433 10.888 20.7714H7.38797C7.38797 20.4669 7.63249 20.25 7.89696 20.25V23.75Z" fill="#1A1F23" mask="url(#path-1-inside-1_341_4606)"/>
</svg>
