<svg width="40" height="40" viewBox="0 0 40 40" fill="none" xmlns="http://www.w3.org/2000/svg">
<g clip-path="url(#clip0_338_3816)">
<path d="M34.2498 36.3333H5.08309C4.31486 36.1502 3.67857 35.776 3.29923 35.0573C3.18676 34.8152 3.08681 34.5675 2.99976 34.3151V14.5234C3.26017 14.2578 3.47892 13.9418 3.78101 13.7352C7.68726 11.0269 11.5999 8.32842 15.5189 5.63976C16.8105 4.75174 18.1126 3.87934 19.4103 3H19.9312C20.1152 3.11024 20.3053 3.2118 20.4815 3.33333C25.5024 6.78993 30.5206 10.2503 35.5362 13.7144C35.8426 13.9271 36.0718 14.2509 36.3374 14.5234V34.25C36.1638 34.6285 36.0406 35.0312 35.8166 35.3785C35.4529 35.9323 34.8713 36.1788 34.2498 36.3333ZM30.0831 34.25H33.709C34.1621 34.25 34.2498 34.158 34.2498 33.691C34.2498 27.68 34.2498 21.6687 34.2498 15.6571C34.2582 15.5627 34.2398 15.4679 34.1969 15.3835C34.1539 15.299 34.088 15.2284 34.0067 15.1797C29.3059 11.9494 24.6088 8.71383 19.9156 5.47309C19.7185 5.3368 19.5935 5.34983 19.406 5.47917C14.7127 8.71991 10.0157 11.9554 5.31486 15.1858C5.23671 15.2294 5.17255 15.2944 5.12983 15.373C5.08711 15.4517 5.06759 15.5409 5.07354 15.6302C5.08049 21.6632 5.08222 27.6962 5.07874 33.7292C5.07874 34.1502 5.17597 34.25 5.59264 34.25C6.72111 34.25 7.84958 34.25 8.97805 34.25C9.06052 34.25 9.14298 34.237 9.24541 34.2283V33.8559C9.24541 31.838 9.24541 29.8197 9.24541 27.8012C9.24541 27.02 9.64212 26.6198 10.4251 26.6181C11.5319 26.6181 12.6386 26.6181 13.7454 26.6181C13.86 26.6181 13.9746 26.6076 14.1117 26.6007V26.1771C14.1117 23.9635 14.1117 21.75 14.1117 19.5365C14.1117 18.658 14.4798 18.2865 15.3496 18.2865H23.9433C24.8548 18.2865 25.2124 18.6493 25.2133 19.5738V26.6198H25.6152C26.7107 26.6198 27.807 26.6198 28.9025 26.6198C29.6838 26.6198 30.0787 27.026 30.0796 27.8082C30.0796 29.8267 30.0796 31.8449 30.0796 33.8629L30.0831 34.25ZM16.215 26.5703H23.1065V20.3932H20.7081C20.7081 20.7222 20.7081 21.0243 20.7081 21.3273C20.702 21.98 20.2489 22.4557 19.6517 22.4462C19.0544 22.4366 18.6326 21.9653 18.6265 21.3281C18.6265 21.0165 18.6265 20.7057 18.6265 20.388H16.2168L16.215 26.5703ZM11.3435 34.2266H18.6004V28.7361H16.1994C16.1994 29.0634 16.2055 29.3663 16.1994 29.6693C16.1838 30.3073 15.7445 30.7743 15.1629 30.7804C14.5675 30.7865 14.1274 30.3134 14.1213 29.6519C14.1213 29.342 14.1213 29.0312 14.1213 28.7231H11.3435V34.2266ZM25.2168 28.7135C25.2168 29.0425 25.222 29.3333 25.2168 29.6241C25.219 29.7753 25.2003 29.926 25.1612 30.072C25.0872 30.2952 24.939 30.4862 24.7412 30.6134C24.5435 30.7405 24.3081 30.7961 24.0744 30.7708C23.8237 30.7432 23.5915 30.626 23.4202 30.4409C23.2489 30.2558 23.1502 30.0151 23.1421 29.763C23.123 29.4219 23.1421 29.079 23.1421 28.7326H20.7359V34.2266H27.9841V28.7135H25.2168Z" fill="#66C61C"/>
</g>
<defs>
<clipPath id="clip0_338_3816">
<rect width="33.3333" height="33.3333" fill="white" transform="translate(3.33325 3.33398)"/>
</clipPath>
</defs>
</svg>
