<svg width="16" height="16" viewBox="0 0 16 16" fill="none" xmlns="http://www.w3.org/2000/svg">
<circle cx="8" cy="7.33398" r="2" stroke="#4B465C" stroke-linecap="round" stroke-linejoin="round"/>
<circle cx="8" cy="7.33398" r="2" stroke="#66C61C" stroke-linecap="round" stroke-linejoin="round"/>
<path fill-rule="evenodd" clip-rule="evenodd" d="M11.7714 11.1045L8.94269 13.9331C8.4221 14.4532 7.57861 14.4532 7.05802 13.9331L4.22869 11.1045C2.14597 9.02165 2.14603 5.64482 4.22882 3.56206C6.31161 1.47931 9.68844 1.47931 11.7712 3.56206C13.854 5.64482 13.8541 9.02165 11.7714 11.1045V11.1045Z" stroke="#4B465C" stroke-linecap="round" stroke-linejoin="round"/>
<path fill-rule="evenodd" clip-rule="evenodd" d="M11.7714 11.1045L8.94269 13.9331C8.4221 14.4532 7.57861 14.4532 7.05802 13.9331L4.22869 11.1045C2.14597 9.02165 2.14603 5.64482 4.22882 3.56206C6.31161 1.47931 9.68844 1.47931 11.7712 3.56206C13.854 5.64482 13.8541 9.02165 11.7714 11.1045V11.1045Z" stroke="#66C61C" stroke-linecap="round" stroke-linejoin="round"/>
</svg>
