<svg width="174" height="32" viewBox="0 0 174 32" fill="none" xmlns="http://www.w3.org/2000/svg">
<path d="M26.1924 1.75171H12.6265L0.998583 12.9989V25.9765H26.1924V1.75171Z" fill="#66C61C"/>
<rect width="8.03525" height="4.02503" transform="matrix(-1 0 0 1 30.6143 1.75171)" fill="#66C61C"/>
<rect width="14.0617" height="4.02503" transform="matrix(-1 0 0 1 34.6299 11.8142)" fill="#66C61C"/>
<rect width="10.0441" height="2.01252" transform="matrix(-1 0 0 1 38.6509 7.78955)" fill="#66C61C"/>
<rect width="14.0617" height="2.01252" transform="matrix(-1 0 0 1 42.6665 17.8521)" fill="#66C61C"/>
<rect width="16.0705" height="4.02503" transform="matrix(-1 0 0 1 38.6509 21.9497)" fill="#66C61C"/>
<path d="M14.5449 28.9151C11.772 28.9151 9.52725 26.6635 9.52725 23.89C9.52725 21.1165 11.772 18.865 14.5449 18.865C17.3178 18.865 19.5625 21.1165 19.5625 23.89C19.5625 26.6635 17.3178 28.9151 14.5449 28.9151Z" fill="#66C61C" stroke="white" stroke-width="2"/>
<path d="M59.6018 24.7618C57.0029 24.7618 54.8984 24.0724 53.2884 22.6937C51.6785 21.292 50.816 19.3503 50.701 16.8686L50.6665 15.4899L50.701 14.0768C50.793 11.5951 51.644 9.65339 53.2539 8.2517C54.8869 6.85001 57.0029 6.14917 59.6018 6.14917C61.5568 6.14917 63.2012 6.50533 64.5352 7.21767C65.8922 7.90702 66.8926 8.74574 67.5366 9.73382C68.2036 10.6989 68.5601 11.5836 68.6061 12.3878C68.6291 12.6176 68.5486 12.8244 68.3646 13.0083C68.2036 13.1691 67.9966 13.2495 67.7436 13.2495H63.3622C63.1092 13.2495 62.9137 13.1921 62.7757 13.0772C62.6377 12.9623 62.5112 12.79 62.3962 12.5602C62.1202 11.8478 61.7638 11.3423 61.3268 11.0436C60.9128 10.7449 60.3723 10.5955 59.7053 10.5955C57.8193 10.5955 56.8419 11.8134 56.7729 14.2491L56.7384 15.5589L56.7729 16.6963C56.8189 17.9371 57.0834 18.8563 57.5663 19.4537C58.0723 20.0282 58.7853 20.3154 59.7053 20.3154C60.4183 20.3154 60.9818 20.1661 61.3958 19.8673C61.8098 19.5686 62.1432 19.0631 62.3962 18.3508C62.5112 18.121 62.6377 17.9486 62.7757 17.8337C62.9137 17.7189 63.1092 17.6614 63.3622 17.6614H67.7436C67.9736 17.6614 68.1691 17.7418 68.3301 17.9027C68.5141 18.0405 68.6061 18.2244 68.6061 18.4542C68.6061 19.1895 68.2841 20.0512 67.6401 21.0392C67.0191 22.0273 66.0302 22.9005 64.6732 23.6588C63.3162 24.3941 61.6258 24.7618 59.6018 24.7618Z" fill="#1A1F23"/>
<path d="M77.0875 24.7618C75.8685 24.7618 74.7531 24.532 73.7411 24.0724C72.7521 23.5899 71.9701 22.9465 71.3952 22.1422C70.8432 21.315 70.5672 20.4073 70.5672 19.4193C70.5672 17.8337 71.2112 16.5584 72.4991 15.5933C73.8101 14.6282 75.6041 13.9619 77.881 13.5942L82.1934 12.9393V12.4568C82.1934 11.5836 82.0094 10.9402 81.6414 10.5266C81.2734 10.113 80.6524 9.90615 79.7785 9.90615C79.2495 9.90615 78.8125 9.99807 78.4675 10.1819C78.1225 10.3657 77.766 10.6185 77.398 10.9402C77.076 11.2159 76.8345 11.3998 76.6735 11.4917C76.6045 11.6755 76.478 11.7674 76.294 11.7674H72.5336C72.3036 11.7674 72.1081 11.6985 71.9471 11.5606C71.8091 11.3998 71.7516 11.2159 71.7746 11.0091C71.7976 10.3887 72.0966 9.69935 72.6716 8.94106C73.2696 8.18277 74.1666 7.52788 75.3626 6.97639C76.5815 6.42491 78.0765 6.14917 79.8475 6.14917C82.6764 6.14917 84.7694 6.78108 86.1263 8.0449C87.4833 9.28573 88.1618 10.9632 88.1618 13.0772V23.5554C88.1618 23.7852 88.0813 23.992 87.9203 24.1758C87.7593 24.3367 87.5523 24.4171 87.2993 24.4171H83.2974C83.0674 24.4171 82.8604 24.3367 82.6764 24.1758C82.5154 23.992 82.4349 23.7852 82.4349 23.5554V22.349C81.9289 23.0614 81.2159 23.6473 80.296 24.1069C79.399 24.5435 78.3295 24.7618 77.0875 24.7618ZM78.709 20.8324C79.767 20.8324 80.6179 20.4878 81.2619 19.7984C81.9289 19.1091 82.2624 18.098 82.2624 16.7652V16.2827L79.33 16.7997C77.26 17.1674 76.225 17.8912 76.225 18.9712C76.225 19.5456 76.4665 20.0052 76.9495 20.3499C77.4325 20.6716 78.019 20.8324 78.709 20.8324Z" fill="#1A1F23"/>
<path d="M92.9173 24.4171C92.6643 24.4171 92.4573 24.3367 92.2963 24.1758C92.1353 24.015 92.0548 23.8082 92.0548 23.5554V7.35554C92.0548 7.10277 92.1353 6.89597 92.2963 6.73512C92.4573 6.57427 92.6643 6.49384 92.9173 6.49384H96.8847C97.1377 6.49384 97.3447 6.58576 97.5057 6.76959C97.6897 6.93044 97.7817 7.12575 97.7817 7.35554V8.73425C99.0466 7.24065 100.749 6.49384 102.888 6.49384H104.406C104.659 6.49384 104.866 6.57427 105.027 6.73512C105.188 6.89597 105.268 7.10277 105.268 7.35554V10.9057C105.268 11.1355 105.188 11.3423 105.027 11.5261C104.866 11.687 104.659 11.7674 104.406 11.7674H101.059C100.116 11.7674 99.3801 12.0317 98.8512 12.5602C98.3452 13.0657 98.0922 13.7895 98.0922 14.7316V23.5554C98.0922 23.8082 98.0002 24.015 97.8162 24.1758C97.6552 24.3367 97.4482 24.4171 97.1952 24.4171H92.9173Z" fill="#1A1F23"/>
<path d="M116.898 24.4171C112.137 24.4171 109.756 22.1537 109.756 17.6269V11.0091H107.065C106.812 11.0091 106.594 10.9287 106.41 10.7678C106.249 10.607 106.168 10.4002 106.168 10.1474V7.35554C106.168 7.10277 106.249 6.89597 106.41 6.73512C106.594 6.57427 106.812 6.49384 107.065 6.49384H109.756V4.86169C109.756 4.60893 109.837 4.40212 109.998 4.24128C110.182 4.08043 110.389 4 110.619 4H114.621C114.874 4 115.081 4.08043 115.242 4.24128C115.403 4.40212 115.483 4.60893 115.483 4.86169V6.49384H119.796C120.049 6.49384 120.256 6.57427 120.417 6.73512C120.601 6.89597 120.693 7.10277 120.693 7.35554V10.1474C120.693 10.4002 120.601 10.607 120.417 10.7678C120.256 10.9287 120.049 11.0091 119.796 11.0091H115.483V17.1444C115.483 18.8448 116.139 19.695 117.45 19.695H120.106C120.359 19.695 120.566 19.7754 120.727 19.9363C120.888 20.0971 120.969 20.3039 120.969 20.5567V23.5554C120.969 23.7852 120.888 23.992 120.727 24.1758C120.566 24.3367 120.359 24.4171 120.106 24.4171H116.898Z" fill="#1A1F23"/>
<path d="M134.559 24.4171C134.306 24.4171 134.099 24.3367 133.938 24.1758C133.777 24.015 133.696 23.8082 133.696 23.5554V7.35554C133.696 7.10277 133.777 6.89597 133.938 6.73512C134.099 6.57427 134.306 6.49384 134.559 6.49384H138.526C138.779 6.49384 138.986 6.57427 139.147 6.73512C139.331 6.89597 139.423 7.10277 139.423 7.35554V8.66531C140.044 7.90702 140.838 7.29809 141.804 6.83852C142.793 6.37895 143.908 6.14917 145.15 6.14917C147.174 6.14917 148.819 6.83852 150.084 8.21723C151.349 9.57297 151.981 11.4802 151.981 13.9389V23.5554C151.981 23.7852 151.901 23.992 151.74 24.1758C151.579 24.3367 151.372 24.4171 151.119 24.4171H146.772C146.542 24.4171 146.335 24.3367 146.151 24.1758C145.99 23.992 145.909 23.7852 145.909 23.5554V14.1457C145.909 13.0657 145.645 12.2385 145.116 11.664C144.587 11.0666 143.828 10.7678 142.839 10.7678C141.873 10.7678 141.114 11.0666 140.562 11.664C140.01 12.2385 139.734 13.0657 139.734 14.1457V23.5554C139.734 23.7852 139.653 23.992 139.492 24.1758C139.331 24.3367 139.124 24.4171 138.871 24.4171H134.559Z" fill="#1A1F23"/>
<path d="M164.662 32C162.477 32 160.706 31.6438 159.349 30.9315C157.992 30.2192 157.015 29.4034 156.417 28.4843C155.842 27.5651 155.554 26.7954 155.554 26.1749C155.554 25.9681 155.646 25.7843 155.83 25.6235C156.014 25.4626 156.221 25.3822 156.451 25.3822H160.833C161.063 25.3822 161.235 25.4281 161.35 25.5201C161.488 25.635 161.615 25.8188 161.73 26.0715C161.96 26.6 162.27 27.0137 162.661 27.3124C163.052 27.6341 163.662 27.7949 164.49 27.7949C165.548 27.7949 166.33 27.5307 166.836 27.0022C167.342 26.4966 167.595 25.6349 167.595 24.4171V22.1077C166.422 23.3945 164.743 24.0379 162.558 24.0379C160.235 24.0379 158.452 23.3601 157.21 22.0043C155.991 20.6256 155.324 18.638 155.209 16.0414L155.175 15.1108C155.175 12.3304 155.796 10.1474 157.038 8.56191C158.28 6.95342 160.12 6.14917 162.558 6.14917C163.731 6.14917 164.766 6.37895 165.663 6.83852C166.56 7.27511 167.319 7.87256 167.94 8.63085V7.35554C167.94 7.10277 168.02 6.89597 168.181 6.73512C168.365 6.57427 168.572 6.49384 168.802 6.49384H172.77C173.023 6.49384 173.23 6.58576 173.391 6.76959C173.575 6.93044 173.667 7.12575 173.667 7.35554V23.9345C173.667 26.5541 172.885 28.5532 171.321 29.9319C169.757 31.3106 167.537 32 164.662 32ZM164.421 19.5571C165.456 19.5571 166.226 19.2469 166.732 18.6265C167.238 17.9831 167.526 17.1789 167.595 16.2138C167.618 16.0529 167.629 15.6967 167.629 15.1453C167.629 14.6168 167.618 14.2721 167.595 14.1112C167.549 13.1461 167.261 12.3534 166.732 11.7329C166.226 11.0895 165.456 10.7678 164.421 10.7678C163.34 10.7678 162.558 11.0895 162.075 11.7329C161.592 12.3763 161.327 13.261 161.281 14.387L161.247 15.1453C161.247 16.501 161.477 17.581 161.937 18.3852C162.397 19.1665 163.225 19.5571 164.421 19.5571Z" fill="#1A1F23"/>
<path d="M125.525 24.4299C125.273 24.4299 125.067 24.3497 124.906 24.1891C124.746 24.0285 124.666 23.8221 124.666 23.5697V7.39766C124.666 7.14533 124.746 6.93888 124.906 6.77831C125.067 6.61773 125.273 6.53745 125.525 6.53745H129.577C129.829 6.53745 130.035 6.61773 130.196 6.77831C130.356 6.93888 130.436 7.14533 130.436 7.39766V23.5697C130.436 23.7991 130.356 24.0056 130.196 24.1891C130.035 24.3497 129.829 24.4299 129.577 24.4299H125.525Z" fill="#66C61C"/>
</svg>
