<svg width="25" height="24" viewBox="0 0 25 24" fill="none" xmlns="http://www.w3.org/2000/svg">
<path d="M21.7501 11.291C21.7501 15.83 17.7021 19.473 12.7501 19.473C12.1091 19.473 11.4851 19.41 10.8811 19.294" stroke="#424A53" stroke-width="1.5" stroke-linecap="round" stroke-linejoin="round"/>
<path d="M7.349 17.826C5.17 16.336 3.75 13.974 3.75 11.291" stroke="#424A53" stroke-width="1.5" stroke-linecap="round" stroke-linejoin="round"/>
<path d="M7.34901 17.8257C7.34801 18.6797 7.35001 19.8317 7.35001 21.0407" stroke="#424A53" stroke-width="1.5" stroke-linecap="round" stroke-linejoin="round"/>
<path d="M3.75 11.2909C3.75 6.75186 7.798 3.10986 12.75 3.10986C17.702 3.10986 21.75 6.75286 21.75 11.2919" stroke="#424A53" stroke-width="1.5" stroke-linecap="round" stroke-linejoin="round"/>
<path d="M10.8801 19.29L7.3501 21.04" stroke="#424A53" stroke-width="1.5" stroke-linecap="round" stroke-linejoin="round"/>
<path d="M12.9268 11.3232C13.0244 11.4209 13.0244 11.5791 12.9268 11.6768C12.8291 11.7744 12.6709 11.7744 12.5732 11.6768C12.4756 11.5791 12.4756 11.4209 12.5732 11.3232C12.6709 11.2256 12.8291 11.2256 12.9268 11.3232" stroke="#424A53" stroke-width="1.5" stroke-linecap="round" stroke-linejoin="round"/>
<path d="M16.9268 11.3232C17.0244 11.4209 17.0244 11.5791 16.9268 11.6768C16.8291 11.7744 16.6709 11.7744 16.5732 11.6768C16.4756 11.5791 16.4756 11.4209 16.5732 11.3232C16.6709 11.2256 16.8291 11.2256 16.9268 11.3232" stroke="#424A53" stroke-width="1.5" stroke-linecap="round" stroke-linejoin="round"/>
<path d="M8.92678 11.3232C9.02441 11.4209 9.02441 11.5791 8.92678 11.6768C8.82915 11.7744 8.67085 11.7744 8.57322 11.6768C8.47559 11.5791 8.47559 11.4209 8.57322 11.3232C8.67085 11.2256 8.82915 11.2256 8.92678 11.3232" stroke="#424A53" stroke-width="1.5" stroke-linecap="round" stroke-linejoin="round"/>
</svg>
