<svg width="263" height="264" viewBox="0 0 263 264" fill="none" xmlns="http://www.w3.org/2000/svg">
<g clip-path="url(#clip0_2170_8552)">
<g opacity="0.25">
<path d="M216.617 14.0996H23.578C17.0713 14.0996 11.1749 16.7375 6.90638 21.006C2.63789 25.2719 0 31.1683 0 37.6802C0 50.7013 10.5568 61.2608 23.578 61.2608H58.841C64.3324 61.2608 69.382 63.136 73.3902 66.2841C88.3023 60.4613 104.282 56.7714 120.956 55.5931C123.297 55.4274 125.451 56.8792 126.161 59.1147L126.95 61.5895C127.395 62.9913 127.213 64.5167 126.448 65.7712L120.017 76.3202L129.412 83.9919L137.636 90.7115L124.97 117.729L120.017 128.302L134.354 117.456L163.483 95.4113L158.484 86.4457L154.018 78.4294C153.013 76.6252 153.221 74.3924 154.544 72.8091L164.762 60.5375C165.727 59.3777 167.26 58.8517 168.736 59.1883C173.328 60.2246 177.843 61.458 182.277 62.873C184.934 61.8315 187.827 61.2634 190.851 61.2634H216.62C223.132 61.2634 229.028 58.6255 233.294 54.3544C237.563 50.0885 240.201 44.1921 240.201 37.6828C240.201 24.6591 229.646 14.1022 216.62 14.1022L216.617 14.0996ZM116.985 48.9392L106.799 41.6673L116.491 34.6189L119.591 47.1719C119.965 48.6867 118.253 49.8466 116.985 48.9392ZM145.25 34.1954L135.895 61.5974C135.382 63.0965 133.267 63.1175 132.728 61.6263L122.813 34.2244C122.416 33.1303 123.226 31.9731 124.391 31.9731H143.661C144.81 31.9731 145.623 33.1066 145.25 34.1928V34.1954ZM167.56 50.3042L155.165 56.653C153.702 57.4026 152.146 55.8219 152.916 54.3728L158.765 43.3584C159.241 42.4642 160.396 42.1906 161.222 42.7798L167.768 47.4428C168.791 48.1739 168.678 49.7309 167.56 50.3042Z" fill="#CCD2D6"/>
<path d="M225.949 202.737H218.921C212.191 202.737 206.118 199.917 201.824 195.396C197.05 198.934 191.143 201.024 184.747 201.024C175.226 201.024 166.781 196.393 161.558 189.253L149.742 201.069C151.406 204.062 152.351 207.507 152.351 211.168C152.351 222.685 143.014 232.024 131.497 232.024C119.981 232.024 110.647 222.685 110.647 211.168C110.647 207.1 111.812 203.302 113.829 200.093L113.795 200.065L87.1109 174.427L60.0008 148.388L35.8548 125.191L18.8808 108.888C14.2546 109.819 10.115 112.109 6.90112 115.326C2.63789 119.594 0 125.488 0 132C0 145.019 10.5542 155.581 23.578 155.581H37.1251C50.1462 155.581 60.7083 166.138 60.7083 179.159C60.7083 181.131 60.4663 183.046 60.0087 184.876L92.6339 197.027C94.5275 197.732 94.2645 200.488 92.2736 200.825L42.4009 209.259C41.0517 209.49 39.884 208.307 40.1259 206.96L40.9465 202.432C39.7025 202.634 38.4296 202.739 37.1277 202.739H25.3953C18.8834 202.739 12.9869 205.377 8.72108 209.648C4.44996 213.914 1.81207 219.811 1.81207 226.322C1.81207 239.341 12.3715 249.903 25.3953 249.903H225.951C232.458 249.903 238.357 247.265 242.623 242.994C246.894 238.728 249.532 232.829 249.532 226.322C249.532 213.299 238.972 202.739 225.951 202.739L225.949 202.737ZM76.5672 182.302L64.5086 175.429C63.5434 174.88 63.2226 173.644 63.7959 172.691L66.5785 168.086C67.2859 166.913 68.9428 166.8 69.8055 167.863L79.0788 179.343C80.4517 181.039 78.4608 183.38 76.5646 182.302H76.5672Z" fill="#CCD2D6"/>
<path d="M242.229 108.585L227.551 123.265H227.548L203.876 146.941H203.873L201.703 149.11C204.807 151.383 207.437 154.26 209.42 157.574C212.326 156.29 215.54 155.578 218.924 155.578H239.425C245.934 155.578 251.828 152.94 256.097 148.668C260.365 144.403 263.003 138.509 263.003 131.997C263.003 119.92 253.93 109.968 242.231 108.582L242.229 108.585ZM239.762 149.844L223.566 148.808C221.61 148.684 221.01 146.091 222.717 145.121L236.001 137.562C237.077 136.949 238.449 137.467 238.849 138.646L241.761 147.243C242.21 148.574 241.166 149.939 239.762 149.847V149.844Z" fill="#CCD2D6"/>
<path d="M64.0406 70.2734C54.1518 74.8681 44.8021 80.4226 36.1126 86.824C36.0679 86.3112 36.0469 85.7957 36.0469 85.2723C36.0469 75.323 44.1131 67.2568 54.0624 67.2568C57.7549 67.2568 61.1844 68.3693 64.0406 70.2734Z" fill="#CCD2D6"/>
<path d="M240.802 178.614C240.802 188.563 232.736 196.627 222.79 196.627C216.725 196.627 211.36 193.629 208.096 189.037C210.576 185.581 212.309 181.549 213.056 177.183C213.329 175.597 213.471 173.967 213.471 172.299C213.471 169.414 213.045 166.629 212.254 163.999C215.218 161.858 218.855 160.596 222.79 160.596C232.736 160.596 240.802 168.662 240.802 178.611V178.614Z" fill="#CCD2D6"/>
<path d="M234.651 85.2753C234.651 87.0689 234.388 88.8021 233.902 90.438C221.961 80.9568 208.659 73.1194 194.336 67.2598H216.638C226.588 67.2598 234.651 75.326 234.651 85.2753Z" fill="#CCD2D6"/>
<path d="M51.7845 178.998C51.7845 179.926 51.7161 180.842 51.5767 181.733L47.3424 180.155C46.1905 179.724 44.9281 180.442 44.7124 181.652L42.3165 194.859C39.7733 196.235 36.8645 197.013 33.7743 197.013H30.826C20.8768 197.013 12.8105 188.947 12.8105 178.998C12.8105 169.049 20.8768 160.982 30.826 160.982H33.7743C43.7236 160.982 51.7872 169.049 51.7872 178.998H51.7845Z" fill="#CCD2D6"/>
</g>
<path opacity="0.5" d="M129.413 83.994C92.6715 84.8619 59.5835 100.497 35.8556 125.193L18.0768 108.111C16.4225 106.523 16.4094 103.89 18.0374 102.28C44.8844 75.7174 80.9259 58.4225 120.957 55.59C123.298 55.4243 125.452 56.8761 126.162 59.1116L126.954 61.5864C127.398 62.9856 127.217 64.5136 126.451 65.7681L120.021 76.3197L129.415 83.9914L129.413 83.994Z" fill="#CCD2D6"/>
<path opacity="0.5" d="M244.983 105.832L227.551 123.266H227.548C209.052 104.769 185.187 91.648 158.487 86.4432L154.021 78.4296C153.014 76.6254 153.225 74.3925 154.545 72.8066L164.762 60.5351C165.728 59.3726 167.264 58.8492 168.736 59.1833C197.853 65.7661 224.011 80.1391 244.909 99.9982C246.569 101.576 246.603 104.211 244.983 105.829V105.832Z" fill="#CCD2D6"/>
<path opacity="0.75" d="M137.636 90.7115L124.972 117.729C99.5008 119.644 76.6724 131.037 60.0035 148.39L35.8574 125.196C59.5853 100.5 92.6707 84.865 129.414 83.9971L137.638 90.7141L137.636 90.7115Z" fill="#CCD2D6"/>
<path opacity="0.75" d="M227.548 123.268L203.875 146.943H203.872C186.017 129.088 161.487 117.905 134.354 117.456L163.483 95.411L158.486 86.4453C185.186 91.6501 209.051 104.771 227.548 123.268Z" fill="#CCD2D6"/>
<path opacity="0.5" d="M203.872 146.944L201.7 149.116C196.95 145.631 191.088 143.577 184.747 143.577C173.062 143.577 163.01 150.552 158.518 160.564C150.62 157.011 141.862 155.031 132.641 155.031C114.749 155.031 98.5959 162.474 87.1081 174.43L59.998 148.39C76.667 131.037 99.4954 119.644 124.967 117.73L120.012 128.302L134.348 117.456C161.482 117.906 186.012 129.089 203.867 146.944H203.872Z" fill="#CCD2D6"/>
<path opacity="0.75" d="M161.561 189.254L149.745 201.071C146.192 194.659 139.356 190.32 131.5 190.32C124.052 190.32 117.519 194.225 113.832 200.098L113.798 200.066L87.1113 174.429C98.5992 162.473 114.753 155.03 132.645 155.03C141.863 155.03 150.623 157.008 158.521 160.564C156.917 164.146 156.023 168.12 156.023 172.301C156.023 173.966 156.165 175.597 156.435 177.185C157.198 181.646 158.992 185.754 161.559 189.257L161.561 189.254Z" fill="#CCD2D6"/>
<path d="M35.8787 126.308L17.5292 108.68C16.5771 107.764 16.0458 106.533 16.0353 105.213C16.0248 103.89 16.5376 102.649 17.4792 101.718C31.1263 88.2182 46.851 77.3168 64.2195 69.319C82.1088 61.0818 101.179 56.1979 120.899 54.804C123.618 54.612 126.09 56.2847 126.911 58.8753L127.7 61.3501C128.215 62.9702 128.005 64.7323 127.119 66.1814L121.046 76.1438L131.561 84.7308L129.428 84.7808C94.0227 85.6171 60.9925 100.164 36.4204 125.738L35.8734 126.306L35.8787 126.308ZM121.325 56.3662C121.222 56.3662 121.117 56.3689 121.012 56.3768C82.4928 59.1014 46.1199 75.6021 18.5917 102.841C17.9552 103.47 17.6081 104.309 17.6159 105.203C17.6238 106.094 17.9815 106.925 18.6232 107.543L35.8366 124.081C47.8136 111.754 61.8052 101.952 77.4327 94.9405C93.189 87.8684 109.95 83.9471 127.282 83.2738L118.987 76.5015L125.775 65.3635C126.422 64.3036 126.577 63.0149 126.201 61.8314L125.409 59.3565C124.838 57.5629 123.187 56.3689 121.325 56.3689V56.3662Z" fill="#CCD2D6"/>
<path d="M227.877 124.057H227.222L226.988 123.825C208.118 104.955 184.377 92.2968 158.335 87.2183L157.975 87.1473L153.33 78.8128C152.175 76.743 152.417 74.1262 153.937 72.3009L164.155 60.032C165.317 58.6328 167.14 58.0148 168.91 58.4145C197.569 64.8949 224.038 79.0758 245.454 99.4268C246.414 100.339 246.95 101.57 246.966 102.893C246.982 104.213 246.477 105.455 245.543 106.388L227.88 124.054L227.877 124.057ZM158.998 85.7402C184.953 90.874 208.634 103.453 227.549 122.155L244.425 105.276C245.056 104.645 245.398 103.806 245.385 102.914C245.375 102.02 245.012 101.189 244.365 100.573C223.156 80.4197 196.943 66.3729 168.56 59.9583C167.372 59.6901 166.149 60.1056 165.367 61.0445L155.15 73.3161C154.045 74.6416 153.869 76.5431 154.708 78.0475L158.995 85.7429L158.998 85.7402Z" fill="#CCD2D6"/>
<path d="M60.0251 149.505L34.7402 125.217L35.2873 124.649C47.3853 112.057 61.5662 102.06 77.4304 94.9405C93.8258 87.5818 111.31 83.6341 129.394 83.2081L129.686 83.2002L138.612 90.4906L125.491 118.482L125.031 118.516C100.54 120.357 77.6487 131.161 60.5721 148.937L60.0251 149.505ZM36.9731 125.175L59.983 147.278C77.1621 129.67 100.009 118.929 124.455 116.98L136.663 90.9377L129.141 84.794C94.1099 85.6961 61.419 100.024 36.9757 125.178L36.9731 125.175Z" fill="#CCD2D6"/>
<path d="M204.202 147.732H203.547L203.313 147.501C184.877 129.064 160.381 118.676 134.339 118.245L132.051 118.208L162.459 95.198L156.967 85.3486L158.635 85.6748C184.987 90.8111 209.01 103.619 228.104 122.713L228.661 123.271L204.2 147.735L204.202 147.732ZM136.622 116.73C161.972 117.703 185.747 127.978 203.871 145.831L226.428 123.271C208.055 105.11 185.137 92.7915 160.008 87.5578L164.505 95.6267L136.619 116.73H136.622Z" fill="#CCD2D6"/>
<path d="M87.1349 175.545L58.8887 148.414L59.4357 147.846C76.7832 129.791 100.038 118.816 124.915 116.946L126.261 116.846L122.088 125.754L134.096 116.667L134.37 116.672C160.825 117.109 185.707 127.663 204.433 146.391L204.99 146.949L201.782 150.157L201.235 149.758C196.432 146.233 190.731 144.371 184.75 144.371C173.757 144.371 163.742 150.857 159.242 160.893L158.918 161.614L158.197 161.29C150.144 157.666 141.547 155.828 132.647 155.828C115.52 155.828 99.5511 162.631 87.6819 174.985L87.1349 175.553V175.545ZM61.1215 148.369L87.0928 173.317C92.8762 167.442 99.6247 162.802 107.162 159.523C115.215 156.02 123.789 154.242 132.644 154.242C141.5 154.242 150.079 156.02 158.132 159.528C163.034 149.332 173.396 142.788 184.75 142.788C190.844 142.788 196.659 144.616 201.616 148.085L202.755 146.946C184.45 128.92 160.291 118.745 134.612 118.25L117.951 130.858L123.681 118.629C99.9614 120.736 77.822 131.258 61.1215 148.372V148.369Z" fill="#CCD2D6"/>
<path d="M149.561 202.368L149.053 201.453C145.516 195.073 138.791 191.107 131.5 191.107C124.21 191.107 118.198 194.623 114.5 200.514L113.995 201.319L113.261 200.64L85.9961 174.448L86.5431 173.88C92.4475 167.736 99.3828 162.905 107.162 159.52C115.215 156.017 123.789 154.239 132.644 154.239C141.5 154.239 150.584 156.125 158.844 159.841L159.562 160.165L159.242 160.883C157.629 164.483 156.811 168.323 156.811 172.299C156.811 173.899 156.946 175.495 157.214 177.049C157.934 181.265 159.657 185.323 162.198 188.79L162.597 189.337L149.563 202.371L149.561 202.368ZM131.5 189.529C139.017 189.529 145.976 193.434 149.908 199.788L160.528 189.168C158.061 185.631 156.38 181.547 155.657 177.315C155.375 175.674 155.231 173.988 155.231 172.299C155.231 168.368 155.988 164.559 157.485 160.967C149.637 157.55 141.284 155.817 132.644 155.817C115.781 155.817 100.04 162.413 88.229 174.409L113.693 198.87C117.743 193.003 124.328 189.529 131.498 189.529H131.5Z" fill="#CCD2D6"/>
<path opacity="0.5" d="M152.352 211.171C152.352 222.687 143.018 232.024 131.501 232.024C119.984 232.024 110.65 222.687 110.65 211.171C110.65 207.102 111.818 203.307 113.833 200.096C117.52 194.223 124.053 190.317 131.501 190.317C139.354 190.317 146.19 194.657 149.745 201.069C151.407 204.059 152.354 207.504 152.354 211.168L152.352 211.171Z" fill="#CCD2D6"/>
<path d="M131.501 232.813C119.569 232.813 109.861 223.103 109.861 211.171C109.861 207.094 111.003 203.118 113.165 199.678C117.154 193.324 124.008 189.531 131.501 189.531C139.365 189.531 146.618 193.808 150.434 200.69C152.204 203.875 153.141 207.502 153.141 211.171C153.141 223.106 143.433 232.813 131.501 232.813ZM131.501 191.107C124.555 191.107 118.198 194.623 114.501 200.514C112.497 203.704 111.439 207.389 111.439 211.168C111.439 222.233 120.439 231.233 131.501 231.233C142.563 231.233 151.563 222.23 151.563 211.168C151.563 207.765 150.695 204.407 149.054 201.453C145.516 195.07 138.791 191.107 131.501 191.107Z" fill="#CCD2D6"/>
<path opacity="0.5" d="M201.7 149.113C196.95 145.628 191.088 143.574 184.747 143.574C173.062 143.574 163.01 150.549 158.518 160.561C156.914 164.143 156.02 168.117 156.02 172.299C156.02 173.964 156.162 175.594 156.432 177.183C157.195 181.643 158.989 185.752 161.556 189.255C166.782 196.393 175.224 201.024 184.744 201.024C198.941 201.024 210.734 190.72 213.051 177.183C213.325 175.594 213.464 173.964 213.464 172.299C213.464 162.776 208.83 154.334 201.695 149.113H201.7ZM196.887 181.933L194.381 184.439C193.544 185.276 192.19 185.276 191.356 184.439L184.75 177.833L178.138 184.439C177.304 185.276 175.95 185.276 175.113 184.439L172.607 181.933C171.768 181.096 171.768 179.742 172.607 178.906L179.214 172.299L178.866 171.952L172.61 165.693C171.773 164.859 171.771 163.507 172.61 162.668L175.116 160.162C175.952 159.325 177.307 159.325 178.14 160.162L184.403 166.418L184.75 166.766L191.356 160.159C192.19 159.323 193.544 159.323 194.381 160.159L196.887 162.665C197.726 163.504 197.723 164.856 196.887 165.69L190.281 172.299L195.164 177.183L196.887 178.906C197.726 179.742 197.726 181.096 196.887 181.933Z" fill="#CCD2D6"/>
<path d="M184.749 201.813C175.373 201.813 166.465 197.292 160.924 189.72C158.241 186.059 156.419 181.77 155.658 177.314C155.377 175.673 155.232 173.987 155.232 172.299C155.232 168.102 156.098 164.043 157.799 160.238C162.554 149.636 173.132 142.785 184.749 142.785C191.069 142.785 197.092 144.752 202.167 148.476C209.739 154.018 214.26 162.923 214.26 172.299C214.26 173.987 214.118 175.673 213.834 177.314C212.674 184.092 209.134 190.296 203.869 194.78C198.543 199.314 191.753 201.813 184.749 201.813ZM184.749 144.363C173.756 144.363 163.74 150.849 159.241 160.885C157.628 164.485 156.81 168.325 156.81 172.302C156.81 173.901 156.945 175.497 157.213 177.051C157.933 181.267 159.656 185.325 162.197 188.792C167.444 195.958 175.875 200.24 184.749 200.24C198.401 200.24 209.979 190.488 212.28 177.054C212.548 175.5 212.682 173.903 212.682 172.304C212.682 163.428 208.403 154.999 201.236 149.755C196.434 146.23 190.732 144.368 184.752 144.368L184.749 144.363Z" fill="#CCD2D6"/>
<path d="M192.862 185.857C192.081 185.857 191.347 185.551 190.795 184.997L184.748 178.95L178.694 184.999C178.145 185.551 177.411 185.857 176.627 185.857H176.624C175.843 185.857 175.107 185.551 174.552 184.999L172.046 182.49C171.491 181.938 171.186 181.201 171.186 180.418C171.186 179.634 171.491 178.898 172.048 178.345L178.095 172.299L172.046 166.247C171.493 165.695 171.186 164.961 171.186 164.18C171.186 163.399 171.491 162.663 172.046 162.108L174.552 159.601C175.107 159.046 175.841 158.741 176.624 158.741H176.627C177.408 158.741 178.142 159.046 178.694 159.601L184.746 165.648L190.795 159.601C191.344 159.049 192.081 158.744 192.862 158.741H192.865C193.646 158.741 194.382 159.046 194.937 159.599L197.443 162.108C197.998 162.663 198.303 163.399 198.303 164.183C198.303 164.964 197.996 165.698 197.443 166.25L191.397 172.299L197.443 178.348C197.998 178.9 198.303 179.637 198.303 180.42C198.303 181.204 197.998 181.94 197.441 182.493L194.934 184.999C194.38 185.554 193.646 185.857 192.862 185.857ZM184.748 176.72L191.913 183.884C192.168 184.139 192.504 184.281 192.865 184.281C193.225 184.281 193.564 184.139 193.819 183.884L196.328 181.375C196.586 181.12 196.725 180.781 196.725 180.42C196.725 180.06 196.583 179.721 196.328 179.466L189.164 172.301L196.328 165.135C196.586 164.88 196.725 164.54 196.725 164.183C196.725 163.822 196.583 163.483 196.328 163.225L193.822 160.719C193.567 160.464 193.228 160.322 192.867 160.322C192.507 160.322 192.17 160.464 191.915 160.716L184.751 167.88L177.582 160.716C177.327 160.461 176.99 160.319 176.63 160.319C176.269 160.319 175.93 160.461 175.675 160.716L173.169 163.223C172.911 163.48 172.771 163.82 172.771 164.18C172.771 164.54 172.913 164.877 173.169 165.132L180.333 172.299L173.169 179.463C172.911 179.721 172.769 180.06 172.769 180.42C172.769 180.781 172.911 181.12 173.166 181.375L175.675 183.884C175.93 184.139 176.269 184.281 176.63 184.281C176.99 184.281 177.327 184.139 177.582 183.887L184.751 176.723L184.748 176.72Z" fill="#CCD2D6"/>
<path opacity="0.75" d="M196.887 181.933L194.38 184.439C193.544 185.276 192.187 185.276 191.353 184.439L184.747 177.833L178.137 184.439C177.304 185.276 175.947 185.276 175.11 184.439L172.604 181.933C171.765 181.097 171.765 179.74 172.604 178.903L179.21 172.299L172.604 165.69C171.767 164.856 171.765 163.502 172.604 162.663L175.11 160.157C175.947 159.32 177.304 159.32 178.137 160.157L184.747 166.763L191.353 160.157C192.187 159.32 193.544 159.32 194.38 160.157L196.887 162.663C197.726 163.502 197.723 164.856 196.887 165.69L190.28 172.299L196.887 178.903C197.726 179.74 197.726 181.097 196.887 181.933Z" fill="#CCD2D6"/>
<g opacity="0.5">
<path d="M132.73 61.6262L122.815 34.2242C122.418 33.1302 123.23 31.9756 124.393 31.9756H143.663C144.815 31.9756 145.622 33.1065 145.251 34.1953L135.896 61.5973C135.384 63.099 133.269 63.1174 132.73 61.6262Z" fill="#CCD2D6"/>
<path d="M152.919 54.3726L158.768 43.3582C159.244 42.4614 160.399 42.1905 161.224 42.7796L167.771 47.4452C168.796 48.1764 168.68 49.7333 167.563 50.3067L155.168 56.6555C153.705 57.405 152.148 55.8244 152.919 54.3753V54.3726Z" fill="#CCD2D6"/>
<path d="M116.986 48.9421L106.803 41.6675L116.494 34.6191L119.592 47.1748C119.966 48.687 118.256 49.8495 116.986 48.9421Z" fill="#CCD2D6"/>
</g>
<g opacity="0.75">
<path d="M92.6324 197.024L47.3411 180.155C46.1892 179.726 44.9268 180.444 44.7085 181.654L40.1244 206.957C39.8798 208.304 41.0475 209.485 42.3967 209.256L92.2721 200.822C94.263 200.485 94.526 197.729 92.6324 197.024Z" fill="#CCD2D6"/>
<path d="M76.5688 182.3L64.5129 175.431C63.5477 174.881 63.2268 173.645 63.8002 172.693L66.5827 168.085C67.2902 166.912 68.9497 166.799 69.8097 167.864L79.0831 179.342C80.456 181.041 78.4651 183.381 76.5688 182.3Z" fill="#CCD2D6"/>
<path d="M222.714 145.123L235.998 137.564C237.077 136.952 238.447 137.472 238.847 138.648L241.758 147.243C242.208 148.574 241.164 149.939 239.762 149.849L223.566 148.813C221.61 148.687 221.01 146.094 222.717 145.126L222.714 145.123Z" fill="#CCD2D6"/>
</g>
<path d="M134.307 63.5224C133.255 63.5224 132.348 62.8859 131.988 61.8944L122.073 34.4924C121.799 33.7376 121.912 32.8934 122.373 32.2359C122.833 31.5784 123.59 31.1865 124.392 31.1865H143.662C144.457 31.1865 145.206 31.5731 145.669 32.2175C146.132 32.8645 146.253 33.6982 145.998 34.4504L136.643 61.8523C136.301 62.857 135.391 63.5119 134.331 63.5224C134.323 63.5224 134.315 63.5224 134.307 63.5224ZM124.395 32.7645C124.1 32.7645 123.835 32.9013 123.666 33.1432C123.498 33.3852 123.459 33.6798 123.559 33.9559L133.474 61.3579C133.674 61.9075 134.179 61.9417 134.318 61.9444C134.465 61.9444 134.962 61.8944 135.152 61.3421L144.507 33.9401C144.601 33.664 144.557 33.3721 144.388 33.1354C144.22 32.8987 143.954 32.7645 143.665 32.7645H124.395Z" fill="#CCD2D6"/>
<path d="M154.387 57.6369C153.748 57.6369 153.127 57.3817 152.643 56.8926C151.87 56.1088 151.704 54.9753 152.223 54.0022L158.072 42.9878C158.406 42.3592 158.992 41.9068 159.684 41.7438C160.376 41.5807 161.104 41.7227 161.683 42.1356L168.229 46.8013C168.936 47.3062 169.32 48.1241 169.257 48.9894C169.194 49.8547 168.694 50.6095 167.921 51.0066L155.526 57.3554C155.158 57.5448 154.768 57.6342 154.387 57.6342V57.6369ZM153.616 54.7439C153.332 55.2777 153.661 55.6775 153.769 55.7853C153.877 55.8958 154.269 56.2298 154.808 55.9537L167.203 49.6048C167.487 49.4602 167.661 49.1946 167.684 48.879C167.708 48.5607 167.571 48.2741 167.313 48.09L160.767 43.4243C160.557 43.2744 160.299 43.2218 160.047 43.2823C159.794 43.3428 159.587 43.5006 159.466 43.732L153.616 54.7465V54.7439Z" fill="#CCD2D6"/>
<path d="M117.961 50.0464C117.462 50.0464 116.962 49.8913 116.528 49.5809L105.453 41.6699L116.98 33.2881L120.36 46.9825C120.61 47.995 120.213 49.0286 119.35 49.6151C118.927 49.9018 118.445 50.0464 117.964 50.0464H117.961ZM117.446 48.2975C117.914 48.6315 118.343 48.3922 118.464 48.3106C118.585 48.2291 118.966 47.9188 118.827 47.3612L116.01 35.9444L108.152 41.6594L117.446 48.2975Z" fill="#CCD2D6"/>
<path d="M42.0671 210.075C41.3333 210.075 40.6232 209.783 40.0998 209.254C39.466 208.615 39.1846 207.703 39.345 206.819L43.9291 181.516C44.0764 180.708 44.5682 180.011 45.2809 179.606C45.9937 179.201 46.8458 179.133 47.6137 179.417L92.905 196.286C94.0937 196.728 94.8117 197.874 94.6934 199.137C94.5724 200.399 93.6519 201.391 92.4026 201.601L42.5273 210.035C42.3748 210.062 42.2196 210.075 42.0671 210.075ZM46.6512 180.819C46.4486 180.819 46.2461 180.871 46.0647 180.974C45.7596 181.147 45.5466 181.447 45.4834 181.794L40.8993 207.098C40.8283 207.484 40.9467 207.866 41.2228 208.144C41.499 208.423 41.8777 208.544 42.2643 208.481L92.1396 200.047C92.8024 199.934 93.0812 199.426 93.1233 198.989C93.1653 198.55 92.9839 198 92.3553 197.766L47.0641 180.898C46.9299 180.848 46.7905 180.821 46.6485 180.821L46.6512 180.819Z" fill="#CCD2D6"/>
<path d="M77.572 183.367C77.1039 183.367 76.6252 183.243 76.1781 182.985L64.1222 176.116C63.4699 175.742 63.0044 175.137 62.8151 174.411C62.6257 173.683 62.7362 172.928 63.1228 172.286L65.9053 167.679C66.3708 166.908 67.1861 166.411 68.083 166.35C68.9798 166.287 69.8556 166.671 70.421 167.371L79.6944 178.848C80.557 179.913 80.5386 181.331 79.6497 182.375C79.0974 183.025 78.3452 183.367 77.5694 183.367H77.572ZM68.2749 167.921C68.246 167.921 68.2197 167.921 68.1908 167.923C67.7989 167.95 67.4596 168.157 67.2571 168.494L64.4746 173.102C64.3089 173.378 64.2616 173.701 64.3431 174.014C64.4246 174.327 64.6245 174.588 64.9033 174.745L76.9592 181.615C77.5904 181.973 78.1427 181.715 78.4504 181.352C78.7581 180.989 78.9238 180.403 78.4688 179.837L69.1954 168.36C68.9666 168.076 68.6353 167.918 68.2749 167.918V167.921Z" fill="#CCD2D6"/>
<path d="M239.889 150.642C239.831 150.642 239.77 150.642 239.71 150.636L223.514 149.6C222.265 149.521 221.279 148.682 220.997 147.462C220.716 146.244 221.237 145.055 222.323 144.437L235.607 136.879C236.328 136.469 237.182 136.403 237.955 136.697C238.729 136.992 239.326 137.61 239.591 138.394L242.503 146.989C242.8 147.864 242.64 148.824 242.079 149.558C241.553 150.244 240.743 150.642 239.886 150.642H239.889ZM223.104 145.81C222.538 146.131 222.438 146.691 222.536 147.109C222.633 147.525 222.967 147.985 223.617 148.027L239.812 149.064C240.22 149.09 240.585 148.922 240.83 148.601C241.075 148.28 241.14 147.88 241.012 147.499L238.1 138.904C237.987 138.567 237.729 138.302 237.398 138.175C237.067 138.049 236.698 138.078 236.391 138.254L223.107 145.813L223.104 145.81Z" fill="#CCD2D6"/>
</g>
<defs>
<clipPath id="clip0_2170_8552">
<rect width="263" height="263" fill="white" transform="translate(0 0.5)"/>
</clipPath>
</defs>
</svg>
