<svg width="263" height="264" viewBox="0 0 263 264" fill="none" xmlns="http://www.w3.org/2000/svg">
<g opacity="0.25">
<path d="M62.6966 156.175H29.0825C21.0532 156.175 13.7838 153.471 8.51857 149.095C3.25594 144.721 0 138.675 0 131.997C0 118.647 13.0211 107.822 29.0825 107.822H31.034C31.2944 107.822 31.5574 107.82 31.8151 107.814C35.1605 127.845 46.6168 145.129 62.6966 156.175Z" fill="#CCD2D6"/>
<path d="M104.196 37.3408C82.091 37.3408 62.8578 49.644 52.9743 67.7752C57.4295 72.0226 60.1253 77.5719 60.1253 83.6499C60.1253 92.2736 54.6891 99.8428 46.5098 104.122C50.6152 132.302 74.8796 153.947 104.196 153.947C136.401 153.947 162.498 127.842 162.498 95.6453C162.498 63.4488 136.401 37.3434 104.196 37.3434V37.3408ZM131.498 126.335C131.498 128.349 129.862 129.985 127.848 129.985H80.5499C78.53 129.985 76.8942 128.349 76.8942 126.335V64.9479C76.8942 62.9334 78.53 61.2975 80.5499 61.2975H113.293C113.822 61.2975 114.335 61.4106 114.808 61.6289C115.203 61.8051 115.563 62.0576 115.876 62.3679L130.43 76.9223C130.938 77.4299 131.283 78.0743 131.425 78.7659C131.477 79.0105 131.501 79.2525 131.501 79.5024V126.332L131.498 126.335Z" fill="#CCD2D6"/>
<path d="M197.284 180.347C197.284 187.025 200.54 193.069 205.805 197.442C211.068 201.816 218.337 204.525 226.372 204.525H233.912C241.942 204.525 249.211 207.231 254.476 211.605C259.739 215.979 262.997 222.022 262.997 228.7C262.997 242.047 249.974 252.872 233.912 252.872H29.0825C21.0532 252.872 13.7838 250.166 8.51857 245.79C3.25594 241.416 0 235.375 0 228.7C0 215.347 13.0211 204.525 29.0825 204.525H67.9461C71.5597 205.256 74.5631 205.674 76.5199 205.903C77.9637 206.071 79.3313 205.222 79.8152 203.852L80.3754 202.271H80.3781C84.2731 200.764 87.6947 198.555 90.422 195.843C89.8014 197.195 89.0649 198.739 88.1997 200.496C84.16 208.704 75.9281 213.591 72.0489 215.529C70.8075 216.15 70.1342 217.525 70.392 218.887L73.5953 235.696C73.9004 237.284 75.3705 238.381 76.9801 238.207C81.6431 237.702 91.4688 235.906 102.457 229.539C114.053 222.819 119.46 212.102 121.398 207.308C121.961 205.914 121.446 204.317 120.175 203.512L97.2837 189.047C96.713 188.687 96.0765 188.537 95.4585 188.571C96.5762 186.005 97.1838 183.235 97.1838 180.345C97.1838 175.924 95.7557 171.779 93.2572 168.215C96.8235 168.752 100.477 169.028 104.195 169.028C114.594 169.028 124.486 166.866 133.449 162.966L135.198 165.246C137.52 168.273 141.284 169.541 144.792 168.828C151.036 180.892 167.584 211.576 180.576 224.082C196.916 239.817 213.538 226.194 206.434 209.509C199.975 194.323 171.013 165.041 161.072 155.257C161.929 152.391 161.445 149.171 159.488 146.615L158.365 145.15C170.3 132.1 177.58 114.724 177.58 95.643C177.58 55.1147 144.724 22.2581 104.195 22.2581C76.3699 22.2581 52.1608 37.7462 39.7183 60.5693C36.9752 59.8566 34.0585 59.4726 31.034 59.4726H29.0825C21.0532 59.4726 13.7838 56.7637 8.51857 52.39C3.25594 48.0189 0 41.9752 0 35.3003C0 21.9478 13.0211 11.1279 29.0825 11.1279H233.915C241.944 11.1279 249.214 13.8316 254.479 18.2079C259.741 22.5816 263 28.6227 263 35.3003C263 48.6501 249.976 59.4752 233.915 59.4752H214.111C198.047 59.4752 185.026 70.2977 185.026 83.6502C185.026 88.805 186.967 93.5784 190.273 97.4998C190.273 97.534 190.273 97.5734 190.27 97.6076C190.265 97.8259 190.254 98.0468 190.246 98.2677C190.241 98.3992 190.236 98.5281 190.228 98.6622C190.217 98.9042 190.204 99.1461 190.191 99.3934C190.186 99.5091 190.181 99.6248 190.173 99.7405C190.152 100.106 190.128 100.474 190.104 100.85C190.078 101.245 190.046 101.639 190.007 102.031C189.996 102.163 189.978 102.292 189.962 102.423C189.933 102.683 189.904 102.946 189.87 103.204C189.849 103.362 189.826 103.515 189.804 103.672C189.77 103.904 189.739 104.135 189.699 104.369C189.673 104.535 189.641 104.701 189.612 104.861C189.576 105.082 189.536 105.303 189.494 105.521C189.463 105.69 189.428 105.858 189.392 106.029C189.347 106.242 189.305 106.452 189.255 106.665C189.218 106.836 189.176 107.007 189.136 107.178C189.089 107.383 189.042 107.594 188.989 107.799C188.944 107.97 188.9 108.141 188.855 108.312C188.802 108.514 188.747 108.717 188.692 108.917C188.642 109.088 188.595 109.258 188.545 109.429C188.487 109.629 188.429 109.827 188.368 110.026C188.316 110.195 188.263 110.366 188.208 110.534C188.148 110.731 188.084 110.926 188.019 111.123C187.963 111.289 187.906 111.457 187.848 111.625C187.782 111.82 187.714 112.012 187.648 112.201C187.587 112.367 187.53 112.535 187.469 112.699C187.395 112.891 187.327 113.083 187.253 113.272C187.19 113.435 187.13 113.598 187.064 113.756C186.988 113.948 186.914 114.135 186.838 114.324C186.772 114.482 186.706 114.639 186.643 114.797C186.564 114.987 186.483 115.173 186.401 115.363C186.336 115.515 186.27 115.67 186.204 115.823C186.12 116.01 186.036 116.194 185.952 116.381C185.886 116.53 185.817 116.683 185.749 116.83C185.662 117.02 185.575 117.201 185.486 117.388C185.42 117.532 185.352 117.677 185.284 117.819C185.191 118.008 185.097 118.193 185.005 118.379C184.939 118.516 184.871 118.653 184.805 118.787C184.708 118.982 184.605 119.174 184.505 119.363C184.442 119.487 184.376 119.613 184.313 119.734C184.197 119.955 184.079 120.168 183.963 120.386C183.913 120.475 183.866 120.567 183.819 120.66C183.65 120.965 183.482 121.267 183.314 121.564C183.277 121.63 183.235 121.698 183.198 121.764C183.066 121.993 182.938 122.222 182.803 122.445C182.74 122.556 182.675 122.661 182.611 122.766C182.504 122.945 182.398 123.126 182.293 123.303C182.22 123.421 182.149 123.537 182.078 123.652C181.975 123.816 181.878 123.981 181.775 124.139C181.699 124.257 181.628 124.376 181.552 124.497C181.457 124.647 181.36 124.799 181.265 124.949C181.186 125.067 181.107 125.186 181.031 125.309C180.939 125.451 180.844 125.593 180.755 125.733C180.676 125.851 180.597 125.967 180.521 126.083C180.431 126.219 180.339 126.359 180.244 126.493C180.168 126.609 180.095 126.719 180.016 126.83C179.926 126.964 179.837 127.095 179.742 127.224C179.666 127.334 179.592 127.445 179.516 127.553C179.426 127.682 179.34 127.805 179.25 127.926C179.174 128.034 179.1 128.139 179.024 128.244C178.94 128.363 178.853 128.481 178.766 128.602C178.693 128.705 178.622 128.802 178.545 128.905C178.461 129.02 178.377 129.133 178.293 129.246C178.219 129.344 178.148 129.441 178.077 129.533C177.993 129.644 177.912 129.751 177.83 129.859C177.762 129.951 177.691 130.046 177.625 130.135C177.346 130.496 177.081 130.84 176.823 131.166C175.271 133.118 175.884 136 178.093 137.155L185.673 141.113L201.808 149.542L202.36 149.829C202.642 149.976 202.978 149.958 203.241 149.779C203.391 149.676 203.58 149.545 203.804 149.379C203.804 149.379 203.809 149.374 203.812 149.374C203.888 149.316 203.964 149.256 204.049 149.192C204.054 149.19 204.059 149.185 204.067 149.182C204.148 149.119 204.235 149.05 204.322 148.979C204.333 148.971 204.346 148.961 204.356 148.953C204.443 148.885 204.535 148.808 204.63 148.732C204.646 148.716 204.661 148.706 204.677 148.693C204.769 148.616 204.869 148.535 204.966 148.448C204.985 148.432 205.001 148.419 205.016 148.403C205.122 148.317 205.224 148.227 205.332 148.13C205.348 148.114 205.361 148.104 205.377 148.09C205.49 147.991 205.606 147.888 205.721 147.78C205.732 147.772 205.742 147.762 205.75 147.754C205.871 147.641 205.997 147.525 206.124 147.404C206.129 147.401 206.132 147.399 206.139 147.394C206.268 147.275 206.397 147.146 206.531 147.017C206.547 147.002 206.56 146.988 206.579 146.973C206.707 146.844 206.836 146.715 206.97 146.578C206.994 146.557 207.015 146.539 207.036 146.515C207.168 146.381 207.302 146.242 207.439 146.097C207.462 146.073 207.486 146.05 207.507 146.023C207.646 145.879 207.786 145.729 207.93 145.574C207.951 145.547 207.975 145.524 207.996 145.5C208.143 145.339 208.291 145.174 208.446 145.003C208.462 144.984 208.475 144.969 208.493 144.95C208.654 144.771 208.814 144.585 208.98 144.393C209.145 144.201 209.314 144.003 209.482 143.804C209.501 143.783 209.516 143.764 209.535 143.74C209.698 143.546 209.861 143.349 210.024 143.143C210.05 143.112 210.074 143.083 210.1 143.051C210.263 142.851 210.429 142.641 210.597 142.431C210.624 142.394 210.652 142.357 210.681 142.32C210.847 142.107 211.015 141.889 211.186 141.665C211.213 141.629 211.242 141.592 211.268 141.555C211.441 141.326 211.615 141.092 211.794 140.847C211.818 140.818 211.841 140.787 211.86 140.758C212.046 140.506 212.23 140.248 212.417 139.985C212.425 139.969 212.436 139.958 212.444 139.948C212.633 139.682 212.82 139.409 213.012 139.13C213.027 139.109 213.041 139.085 213.056 139.067C213.246 138.791 213.432 138.509 213.624 138.223C213.651 138.183 213.677 138.144 213.703 138.104C213.89 137.826 214.074 137.536 214.263 137.242C214.292 137.194 214.324 137.147 214.356 137.097C214.542 136.805 214.729 136.505 214.918 136.2C214.95 136.15 214.981 136.098 215.013 136.048C215.202 135.737 215.392 135.424 215.586 135.098C215.613 135.054 215.639 135.009 215.668 134.961C215.865 134.627 216.065 134.288 216.265 133.941C216.283 133.912 216.296 133.886 216.312 133.86C216.517 133.502 216.725 133.136 216.933 132.765C216.941 132.75 216.949 132.737 216.957 132.721C217.162 132.35 217.37 131.971 217.577 131.587C217.604 131.54 217.627 131.495 217.654 131.448C217.851 131.077 218.051 130.696 218.251 130.314C218.285 130.251 218.316 130.191 218.348 130.128C218.545 129.744 218.742 129.357 218.942 128.96C218.974 128.894 219.008 128.826 219.04 128.76C219.239 128.363 219.439 127.958 219.639 127.542C219.671 127.479 219.7 127.413 219.731 127.35C219.934 126.924 220.142 126.496 220.347 126.054C220.368 126.006 220.386 125.964 220.407 125.92C220.625 125.451 220.841 124.981 221.057 124.499C221.186 124.218 221.309 123.934 221.428 123.652C221.467 123.558 221.509 123.463 221.546 123.368C221.627 123.179 221.706 122.992 221.783 122.803C221.83 122.69 221.872 122.577 221.919 122.461C221.985 122.293 222.056 122.122 222.119 121.953C222.169 121.833 222.211 121.709 222.259 121.591C222.319 121.425 222.382 121.262 222.445 121.101C222.49 120.978 222.535 120.852 222.58 120.728C222.637 120.567 222.695 120.41 222.753 120.249C222.798 120.12 222.84 119.994 222.885 119.865C222.937 119.707 222.992 119.552 223.045 119.395C223.09 119.263 223.129 119.134 223.174 119.005C223.224 118.847 223.276 118.695 223.321 118.537C223.366 118.406 223.403 118.279 223.442 118.148C223.492 117.995 223.537 117.838 223.584 117.685C223.621 117.554 223.66 117.425 223.7 117.293C223.745 117.141 223.787 116.985 223.831 116.833C223.868 116.701 223.905 116.573 223.942 116.441C223.981 116.288 224.026 116.131 224.065 115.978C224.1 115.849 224.134 115.72 224.168 115.589C224.208 115.436 224.25 115.281 224.286 115.126C224.318 114.997 224.35 114.871 224.381 114.739C224.418 114.587 224.457 114.429 224.492 114.277C224.523 114.148 224.552 114.021 224.581 113.893C224.618 113.735 224.655 113.577 224.689 113.419C224.715 113.298 224.744 113.172 224.77 113.051C224.805 112.888 224.836 112.725 224.873 112.567C224.897 112.449 224.923 112.325 224.947 112.207C224.978 112.041 225.01 111.875 225.041 111.71C225.065 111.597 225.089 111.481 225.107 111.368C225.141 111.192 225.173 111.01 225.202 110.834C225.223 110.731 225.238 110.634 225.257 110.534C225.294 110.31 225.333 110.09 225.367 109.869C225.375 109.813 225.388 109.756 225.396 109.7C225.441 109.424 225.483 109.148 225.525 108.877C225.536 108.793 225.549 108.711 225.559 108.627C225.588 108.435 225.615 108.243 225.641 108.054C225.651 107.972 225.662 107.894 225.672 107.817H233.915C241.944 107.817 249.214 110.524 254.479 114.9C259.741 119.274 263 125.315 263 131.992C263 145.345 249.976 156.167 233.915 156.167H226.375C210.308 156.167 197.287 166.992 197.287 180.34L197.284 180.347Z" fill="#CCD2D6"/>
<path d="M223.434 197.33C232.161 197.33 239.235 190.255 239.235 181.529C239.235 172.802 232.161 165.728 223.434 165.728C214.707 165.728 207.633 172.802 207.633 181.529C207.633 190.255 214.707 197.33 223.434 197.33Z" fill="#CCD2D6"/>
<path d="M35.9685 68.5723C32.6416 76.9488 30.8111 86.0828 30.8111 95.6455C30.8111 96.8816 30.8427 98.1098 30.9032 99.3328C24.6885 97.2077 20.2148 91.3139 20.2148 84.3759C20.2148 75.6654 27.2632 68.6012 35.9685 68.5749V68.5723Z" fill="#CCD2D6"/>
<path d="M51.818 84.3733C51.818 89.3598 49.5088 93.8018 45.9031 96.6975C45.8952 96.3477 45.8926 95.9953 45.8926 95.6455C45.8926 88.7023 47.1076 82.0405 49.3352 75.8652C50.908 78.3217 51.818 81.2436 51.818 84.3759V84.3733Z" fill="#CCD2D6"/>
</g>
<g opacity="0.5">
<path d="M104.197 22.2578C63.6691 22.2578 30.8125 55.1144 30.8125 95.6427C30.8125 136.171 63.6691 169.028 104.197 169.028C114.594 169.028 124.488 166.866 133.451 162.965C142.977 158.821 151.453 152.711 158.365 145.152C170.302 132.102 177.582 114.723 177.582 95.6427C177.582 55.1144 144.726 22.2578 104.197 22.2578ZM104.197 153.945C71.9983 153.945 45.8955 127.842 45.8955 95.6427C45.8955 63.4436 71.9983 37.3409 104.197 37.3409C136.396 37.3409 162.499 63.4436 162.499 95.6427C162.499 127.842 136.399 153.945 104.197 153.945Z" fill="#CCD2D6"/>
</g>
<path d="M104.198 169.819C84.3862 169.819 65.7579 162.103 51.7479 148.093C37.7379 134.083 30.0215 115.457 30.0215 95.6453C30.0215 75.8335 37.7379 57.2052 51.7479 43.1952C65.7579 29.1852 84.3836 21.4688 104.198 21.4688C124.012 21.4688 142.638 29.1852 156.645 43.1952C170.655 57.2052 178.372 75.8308 178.372 95.6453C178.372 114.221 171.473 131.992 158.947 145.686C151.846 153.453 143.372 159.512 133.764 163.691C124.42 167.757 114.471 169.819 104.195 169.819H104.198ZM104.198 23.0494C64.1694 23.0494 31.6021 55.6167 31.6021 95.6453C31.6021 135.674 64.1694 168.241 104.198 168.241C114.255 168.241 123.991 166.224 133.136 162.245C142.538 158.152 150.831 152.224 157.784 144.621C170.043 131.219 176.794 113.824 176.794 95.6453C176.794 55.6167 144.227 23.0494 104.198 23.0494ZM104.198 154.736C88.4154 154.736 73.5743 148.59 62.4152 137.428C51.2535 126.266 45.1072 111.428 45.1072 95.6453C45.1072 79.8626 51.2535 65.0215 62.4152 53.8625C73.5769 42.7034 88.4154 36.5544 104.198 36.5544C119.981 36.5544 134.822 42.7007 145.983 53.8625C157.143 65.0242 163.289 79.8626 163.289 95.6453C163.289 111.428 157.143 126.269 145.983 137.428C134.822 148.59 119.983 154.736 104.198 154.736ZM104.198 38.1324C72.4855 38.1324 46.6852 63.9327 46.6852 95.6453C46.6852 127.358 72.4855 153.158 104.198 153.158C135.911 153.158 161.711 127.358 161.711 95.6453C161.711 63.9327 135.911 38.1324 104.198 38.1324Z" fill="#CCD2D6"/>
<g opacity="0.75">
<path d="M206.437 209.509C213.54 226.194 196.919 239.817 180.579 224.082C167.587 211.576 151.039 180.892 144.795 168.828C146.184 168.547 147.533 167.95 148.737 167.029L157.706 160.149C159.381 158.863 160.517 157.138 161.075 155.26C171.016 165.043 199.978 194.323 206.437 209.509Z" fill="#CCD2D6"/>
</g>
<path d="M195.142 231.834C190.718 231.834 185.468 229.888 180.03 224.649C167.024 212.13 150.563 181.693 144.091 169.19L143.609 168.262L144.635 168.054C145.953 167.788 147.17 167.231 148.251 166.4L157.22 159.52C158.711 158.376 159.781 156.824 160.313 155.03L160.686 153.771L161.622 154.691C173.181 166.066 200.754 194.144 207.158 209.195C210.577 217.225 208.873 225.378 202.919 229.48C200.859 230.898 198.195 231.829 195.139 231.829L195.142 231.834ZM145.953 169.348C152.68 182.277 168.584 211.439 181.126 223.513C189.64 231.711 197.506 231.3 202.027 228.186C206.453 225.136 209.309 218.274 205.712 209.818C199.442 195.075 171.272 166.45 161.393 156.682C160.694 158.289 159.6 159.688 158.185 160.774L149.217 167.654C148.22 168.42 147.126 168.985 145.953 169.348Z" fill="#CCD2D6"/>
<path d="M161.071 155.26C160.513 157.135 159.377 158.863 157.702 160.146L148.731 167.026C147.529 167.949 146.18 168.549 144.791 168.828C141.283 169.543 137.519 168.273 135.197 165.246L133.445 162.968C142.971 158.823 151.448 152.714 158.359 145.155L159.482 146.62C161.442 149.177 161.923 152.396 161.066 155.262L161.071 155.26Z" fill="#CCD2D6"/>
<path d="M156.869 182.351C156.603 182.351 156.345 182.217 156.195 181.975C154.515 179.235 153.024 176.347 151.767 173.391C151.596 172.991 151.782 172.526 152.182 172.357C152.582 172.186 153.047 172.373 153.218 172.773C154.447 175.658 155.901 178.477 157.542 181.152C157.771 181.523 157.652 182.009 157.282 182.238C157.153 182.317 157.011 182.354 156.869 182.354V182.351Z" fill="#CCD2D6"/>
<path d="M181.28 214.337C181.064 214.337 180.846 214.248 180.691 214.074C172.887 205.337 165.836 195.769 159.017 186.514C158.759 186.165 158.833 185.67 159.185 185.412C159.535 185.155 160.029 185.228 160.287 185.581C167.083 194.807 174.113 204.346 181.866 213.027C182.156 213.354 182.129 213.851 181.803 214.143C181.653 214.277 181.464 214.342 181.277 214.342L181.28 214.337Z" fill="#CCD2D6"/>
<path d="M188.58 222.821C188.386 222.821 188.189 222.75 188.036 222.603C186.448 221.091 184.943 219.458 183.568 217.751C183.294 217.411 183.347 216.914 183.686 216.641C184.025 216.367 184.522 216.42 184.796 216.759C186.129 218.414 187.586 219.994 189.125 221.459C189.44 221.759 189.454 222.259 189.154 222.574C188.999 222.737 188.791 222.819 188.583 222.819L188.58 222.821Z" fill="#CCD2D6"/>
<path d="M156.24 169.052C155.99 169.052 155.745 168.933 155.593 168.712C155.343 168.355 155.433 167.863 155.79 167.613C158.77 165.538 161.584 163.187 164.154 160.622C164.461 160.315 164.961 160.315 165.269 160.622C165.576 160.93 165.576 161.43 165.269 161.738C162.633 164.368 159.748 166.779 156.692 168.907C156.556 169.002 156.398 169.049 156.243 169.049L156.24 169.052Z" fill="#CCD2D6"/>
<g opacity="0.5">
<path d="M131.5 79.5047V126.337C131.5 128.354 129.864 129.988 127.849 129.988H80.5515C78.5317 129.988 76.8984 128.352 76.8984 126.337V64.9502C76.8984 62.933 78.5343 61.2998 80.5515 61.2998H113.295C113.824 61.2998 114.336 61.4129 114.807 61.6312C115.202 61.8074 115.562 62.0599 115.878 62.3702L130.432 76.9246C130.94 77.4322 131.284 78.0766 131.426 78.7709C131.476 79.0129 131.5 79.2574 131.5 79.5073V79.5047Z" fill="#CCD2D6"/>
</g>
<path d="M127.847 130.776H80.5495C78.0983 130.776 76.1074 128.786 76.1074 126.337V64.9502C76.1074 62.5017 78.101 60.5107 80.5495 60.5107H113.293C113.94 60.5107 114.561 60.6475 115.137 60.9131C115.605 61.1235 116.044 61.426 116.428 61.8073L130.985 76.3644C131.6 76.9798 132.019 77.7557 132.195 78.6078C132.255 78.8918 132.287 79.1943 132.287 79.502V126.334C132.287 128.783 130.296 130.774 127.847 130.774V130.776ZM80.5495 62.0887C78.9689 62.0887 77.6854 63.3722 77.6854 64.9502V126.337C77.6854 127.915 78.9715 129.198 80.5495 129.198H127.847C129.425 129.198 130.709 127.915 130.709 126.337V79.5046C130.709 79.3074 130.69 79.1154 130.651 78.9313C130.538 78.3763 130.267 77.8766 129.87 77.4795L115.315 62.9251C115.068 62.6805 114.787 62.4859 114.482 62.3491C114.106 62.1755 113.709 62.0887 113.293 62.0887H80.5495Z" fill="#CCD2D6"/>
<g opacity="0.75">
<path d="M131.424 78.7686H117.111C115.838 78.7686 114.805 77.7377 114.805 76.4621V61.6289C115.199 61.8051 115.559 62.0576 115.875 62.3679L130.43 76.9224C130.937 77.4299 131.282 78.0743 131.424 78.7686Z" fill="#CCD2D6"/>
</g>
<g opacity="0.75">
<path d="M116.26 105.318C116.954 106.012 116.954 107.141 116.26 107.838L113.714 110.389C113.012 111.083 111.884 111.083 111.189 110.389L104.188 103.382C103.494 102.688 102.366 102.688 101.669 103.382L94.6676 110.383C93.9732 111.078 92.845 111.078 92.148 110.383L89.6022 107.838C88.9078 107.143 88.9078 106.015 89.6022 105.318L96.6032 98.3171C97.2975 97.6227 97.2975 96.4945 96.6032 95.7975L89.5969 88.7965C88.9026 88.1021 88.9026 86.9739 89.5969 86.2717L92.148 83.7258C92.8423 83.0315 93.9706 83.0315 94.6676 83.7258L101.669 90.7269C102.371 91.4212 103.491 91.4212 104.193 90.7269L111.194 83.7258C111.889 83.0315 113.017 83.0315 113.714 83.7258L116.26 86.2717C116.954 86.966 116.954 88.0942 116.26 88.7912L109.259 95.7923C108.564 96.4945 108.564 97.6148 109.259 98.3171L116.26 105.318Z" fill="#CCD2D6"/>
</g>
<g opacity="0.5">
<path d="M28.6676 180.681L43.7112 156.716C44.8343 154.925 47.3801 154.749 48.7319 156.374C52.2666 160.624 59.0731 167.673 67.5233 170.842C74.9951 173.646 81.7253 174.156 85.9359 174.111C88.0951 174.087 89.6153 176.226 88.892 178.261L79.8106 203.851C79.3241 205.219 77.9591 206.068 76.5152 205.9C68.3412 204.948 42.0254 200.682 28.878 184.292C28.047 183.256 27.9549 181.804 28.6624 180.678L28.6676 180.681Z" fill="#CCD2D6"/>
</g>
<path d="M76.8904 206.713C76.7378 206.713 76.5827 206.705 76.4275 206.686C68.5112 205.766 41.6405 201.463 28.2643 184.789C27.2202 183.487 27.1124 181.67 27.9961 180.263L43.0397 156.298C43.7129 155.225 44.8228 154.562 46.0852 154.478C47.345 154.397 48.5285 154.902 49.3359 155.872C52.6365 159.838 59.4219 166.963 67.7985 170.106C75.1046 172.846 81.6901 173.37 85.9271 173.325C87.2 173.325 88.3966 173.922 89.1357 174.955C89.8747 175.992 90.064 177.328 89.638 178.527L80.5592 204.117C79.999 205.695 78.5315 206.713 76.8904 206.713ZM29.3347 181.102C28.8087 181.941 28.8745 183.024 29.4978 183.803C42.4979 200.006 68.8452 204.217 76.6116 205.119C77.6952 205.245 78.7077 204.617 79.0733 203.591L88.152 178.001C88.4098 177.275 88.302 176.499 87.8522 175.873C87.4104 175.255 86.7266 174.903 85.9718 174.903C85.9639 174.903 85.956 174.903 85.9455 174.903C81.577 174.945 74.7811 174.408 67.2462 171.584C58.5277 168.315 51.524 160.969 48.1234 156.882C47.6448 156.306 46.9399 156.004 46.193 156.054C45.4408 156.104 44.7781 156.498 44.3783 157.137L29.3347 181.102Z" fill="#CCD2D6"/>
<path d="M40.7932 186.836C40.6564 186.836 40.5197 186.801 40.3961 186.728C40.02 186.507 39.8937 186.023 40.1147 185.647L51.2238 166.687C51.4447 166.311 51.926 166.185 52.3021 166.406C52.6782 166.627 52.8044 167.111 52.5835 167.487L41.4744 186.446C41.3271 186.696 41.0641 186.836 40.7932 186.836Z" fill="#CCD2D6"/>
<path d="M51.9029 185.87C51.795 185.87 51.6872 185.849 51.582 185.802C51.1849 185.626 51.0034 185.158 51.1823 184.76L56.5133 172.76C56.6895 172.363 57.1576 172.181 57.5547 172.36C57.9519 172.536 58.1333 173.004 57.9545 173.401L52.6235 185.402C52.492 185.697 52.2053 185.87 51.9029 185.87Z" fill="#CCD2D6"/>
<g opacity="0.25">
<path d="M70.3953 218.887C70.135 217.525 70.8082 216.149 72.0496 215.529C75.9289 213.593 84.1608 208.704 88.2004 200.496C90.5201 195.78 91.9061 192.611 92.7319 190.53C93.4525 188.718 95.6381 188.003 97.2845 189.047L120.173 203.512C121.444 204.314 121.959 205.911 121.396 207.305C119.458 212.102 114.053 222.816 102.458 229.536C91.4669 235.906 81.6438 237.7 76.9782 238.207C75.3687 238.381 73.8985 237.287 73.596 235.695L70.3953 218.887Z" fill="#CCD2D6"/>
</g>
<path d="M76.6516 239.015C74.8133 239.015 73.1748 237.689 72.8223 235.845L69.6216 219.037C69.2955 217.33 70.1503 215.597 71.6967 214.824C75.1157 213.117 83.4949 208.27 87.4898 200.148C89.4597 196.148 90.9746 192.813 91.9977 190.241C92.429 189.158 93.31 188.329 94.4173 187.969C95.5219 187.609 96.7211 187.758 97.7048 188.382L120.594 202.847C122.187 203.854 122.834 205.855 122.127 207.602C120.31 212.096 114.797 223.298 102.852 230.222C91.8162 236.619 81.9563 238.462 77.0619 238.993C76.9225 239.009 76.7858 239.015 76.649 239.015H76.6516ZM95.6271 189.355C95.3851 189.355 95.1431 189.392 94.9091 189.468C94.2489 189.684 93.723 190.175 93.4678 190.822C92.4316 193.434 90.8983 196.806 88.91 200.843C84.8546 209.088 76.8278 214.024 72.4042 216.233C71.4863 216.691 70.9787 217.722 71.1733 218.74L74.374 235.548C74.5976 236.729 75.7075 237.552 76.8962 237.423C81.667 236.905 91.2797 235.106 102.065 228.855C113.587 222.177 118.913 211.352 120.67 207.01C121.091 205.969 120.707 204.78 119.757 204.18L96.8684 189.715C96.4923 189.478 96.0636 189.355 95.6297 189.355H95.6271Z" fill="#CCD2D6"/>
<g opacity="0.25">
<path d="M178.092 137.159C175.881 136.005 175.27 133.125 176.822 131.168C181.348 125.464 189.241 113.792 190.104 100.85C190.966 87.9154 189.123 81.8743 187.976 79.452C187.689 78.8471 188.16 78.1581 188.825 78.2186L223.915 81.3193C224.288 81.3535 224.599 81.6218 224.68 81.9873C225.509 85.7351 229.383 105.968 221.059 124.499C213.043 142.346 205.158 148.484 203.241 149.781C202.978 149.96 202.641 149.978 202.359 149.831L178.095 137.154L178.092 137.159Z" fill="#CCD2D6"/>
</g>
<path d="M202.67 150.546C202.25 150.546 201.826 150.446 201.442 150.246L178.811 138.425C177.296 137.633 176.215 136.221 175.847 134.553C175.479 132.878 175.865 131.134 176.915 129.772C181.196 124.202 188.503 113.027 189.318 100.8C190.031 90.0931 188.889 84.1914 187.806 81.1248C187.503 80.2648 187.653 79.3233 188.213 78.6026C188.771 77.882 189.649 77.5007 190.557 77.5796L223.237 80.4673C224.423 80.5725 225.378 81.4246 225.614 82.5897C226.719 88.0338 229.712 107.164 221.78 124.825C214.377 141.304 207.073 147.932 204.277 150.015C203.807 150.365 203.241 150.544 202.673 150.544L202.67 150.546ZM190.315 79.147C189.978 79.147 189.67 79.297 189.46 79.5678C189.228 79.865 189.168 80.2411 189.294 80.5962C190.428 83.8021 191.624 89.93 190.893 100.902C190.052 113.545 182.559 125.017 178.167 130.729C177.404 131.721 177.12 132.991 177.388 134.209C177.656 135.421 178.44 136.447 179.542 137.023L202.173 148.845C202.547 149.039 202.991 149.002 203.333 148.747C206.032 146.738 213.088 140.318 220.339 124.175C228.076 106.946 225.149 88.2284 224.065 82.9001C223.968 82.4267 223.579 82.0769 223.095 82.0348L190.415 79.147C190.38 79.1444 190.346 79.1418 190.312 79.1418L190.315 79.147Z" fill="#CCD2D6"/>
<path d="M217.564 90.5615C217.537 90.5615 217.511 90.5615 217.485 90.5563L193.936 88.1866C193.502 88.1419 193.186 87.7553 193.231 87.3214C193.275 86.8874 193.659 86.5718 194.096 86.6165L217.645 88.9862C218.079 89.0309 218.395 89.4175 218.35 89.8514C218.308 90.2591 217.966 90.5615 217.566 90.5615H217.564Z" fill="#CCD2D6"/>
<path d="M208.122 98.7059C208.072 98.7059 208.024 98.7007 207.974 98.6928L195.94 96.4205C195.511 96.3389 195.229 95.926 195.311 95.5C195.392 95.0739 195.805 94.7899 196.231 94.8714L208.266 97.1437C208.695 97.2252 208.976 97.6381 208.895 98.0642C208.824 98.4429 208.492 98.7059 208.122 98.7059Z" fill="#CCD2D6"/>
<path d="M206.456 121.219C206.377 121.219 206.298 121.208 206.222 121.182L192.448 116.887C192.033 116.758 191.801 116.314 191.93 115.898C192.059 115.483 192.504 115.252 192.919 115.38L206.692 119.675C207.108 119.804 207.339 120.249 207.21 120.664C207.105 121.001 206.795 121.219 206.458 121.219H206.456Z" fill="#CCD2D6"/>
<path d="M44.4863 156.043C45.0097 155.622 45.6593 155.394 46.351 155.394C47.0427 155.394 47.6844 155.622 48.2078 156.043H44.489H44.4863Z" fill="#CCD2D6"/>
<path d="M46.3504 155.523C46.8633 155.523 47.3551 155.657 47.7864 155.909H44.9092C45.3405 155.657 45.8349 155.523 46.3531 155.523M46.3531 155.26C45.5483 155.26 44.7461 155.57 44.1465 156.172H48.5491C47.9416 155.56 47.1447 155.26 46.3504 155.26H46.3531Z" fill="#CCD2D6"/>
</svg>
