<svg width="25" height="24" viewBox="0 0 25 24" fill="none" xmlns="http://www.w3.org/2000/svg">
<path fill-rule="evenodd" clip-rule="evenodd" d="M11.1059 13.1439C9.9359 11.9739 9.0539 10.6639 8.4679 9.33487C8.3439 9.05387 8.4169 8.72487 8.6339 8.50787L9.4529 7.68987C10.1239 7.01887 10.1239 6.06987 9.5379 5.48387L8.3639 4.30987C7.5829 3.52887 6.3169 3.52887 5.5359 4.30987L4.8839 4.96187C4.1429 5.70287 3.8339 6.77187 4.0339 7.83187C4.5279 10.4449 6.0459 13.3059 8.4949 15.7549C10.9439 18.2039 13.8049 19.7219 16.4179 20.2159C17.4779 20.4159 18.5469 20.1069 19.2879 19.3659L19.9389 18.7149C20.7199 17.9339 20.7199 16.6679 19.9389 15.8869L18.7659 14.7139C18.1799 14.1279 17.2299 14.1279 16.6449 14.7139L15.7419 15.6179C15.5249 15.8349 15.1959 15.9079 14.9149 15.7839C13.5859 15.1969 12.2759 14.3139 11.1059 13.1439Z" stroke="white" stroke-width="1.5" stroke-linecap="round" stroke-linejoin="round"/>
</svg>
