<svg width="20" height="20" viewBox="0 0 20 20" fill="none" xmlns="http://www.w3.org/2000/svg">
<path d="M13.1018 6.06524C13.1834 6.14691 13.1834 6.27857 13.1018 6.36024C13.0201 6.44191 12.8884 6.44191 12.8068 6.36024C12.7251 6.27857 12.7251 6.14691 12.8068 6.06524C12.8884 5.98441 13.0201 5.98441 13.1018 6.06524" stroke="#24292F" stroke-width="1.5" stroke-linecap="round" stroke-linejoin="round"/>
<path fill-rule="evenodd" clip-rule="evenodd" d="M11.26 2.5H14.9142C15.8825 2.5 16.6667 3.28417 16.6667 4.25167V7.90583C16.6667 8.37083 16.4817 8.81583 16.1534 9.145L9.14504 16.1533C8.46087 16.8375 7.3517 16.8375 6.66754 16.1533L3.01337 12.4992C2.3292 11.815 2.3292 10.7058 3.01337 10.0217L10.0217 3.01333C10.35 2.685 10.7959 2.5 11.26 2.5Z" stroke="#24292F" stroke-width="1.5" stroke-linecap="round" stroke-linejoin="round"/>
<path d="M11.6667 17.5H15.0001C15.9209 17.5 16.6667 16.7542 16.6667 15.8333V12.5" stroke="#24292F" stroke-width="1.5" stroke-linecap="round" stroke-linejoin="round"/>
</svg>
