<svg width="41" height="40" viewBox="0 0 41 40" fill="none" xmlns="http://www.w3.org/2000/svg">
<g clip-path="url(#clip0_571_17361)">
<path d="M6.01915 26.9924V26.909V10.4646V10.3813H6.10248H10.7049H10.7882V10.4646V10.8373C10.7882 11.3248 10.7887 11.8123 10.7892 12.2997C10.7905 13.6235 10.7917 14.9473 10.7836 16.271C10.7823 16.5057 10.8171 16.7101 10.9032 16.8811C10.9886 17.0504 11.127 17.1925 11.3434 17.299C11.7559 17.5015 12.1413 17.4118 12.5289 17.1567L12.529 17.1566C12.8544 16.9429 13.1818 16.7336 13.5089 16.5246C14.0452 16.1818 14.5805 15.8396 15.1046 15.4793L15.1046 15.4793C15.2575 15.3743 15.3942 15.3203 15.5365 15.3255C15.6771 15.3307 15.8085 15.3933 15.9514 15.4883L15.952 15.4887C16.7905 16.0559 17.6431 16.6039 18.5034 17.1415L18.5053 17.1427L18.5053 17.1427C18.7031 17.274 18.9286 17.3627 19.1663 17.4026C19.6828 17.4644 20.1655 17.0599 20.223 16.5572C20.2344 16.4284 20.2386 16.2992 20.2356 16.17L20.2355 16.1681L20.2356 16.1577V16.1474V16.137V16.1267V16.1163V16.106V16.0956V16.0853V16.0749V16.0646V16.0542V16.0439V16.0335V16.0232V16.0128V16.0025V15.9921V15.9817V15.9714V15.961V15.9507V15.9403V15.93V15.9196V15.9093V15.8989V15.8886V15.8782V15.8679V15.8575V15.8472V15.8368V15.8265V15.8161V15.8058V15.7954V15.7851V15.7747V15.7644V15.754V15.7437V15.7333V15.723V15.7126V15.7023V15.6919V15.6816V15.6712V15.6609V15.6505V15.6402V15.6298V15.6195V15.6091V15.5988V15.5884V15.5781V15.5677V15.5573V15.547V15.5366V15.5263V15.5159V15.5056V15.4952V15.4849V15.4745V15.4642V15.4538V15.4435V15.4331V15.4228V15.4124V15.4021V15.3917V15.3814V15.371V15.3607V15.3503V15.34V15.3296V15.3193V15.3089V15.2986V15.2882V15.2779V15.2675V15.2572V15.2468V15.2365V15.2261V15.2158V15.2054V15.1951V15.1847V15.1744V15.164V15.1537V15.1433V15.133V15.1226V15.1122V15.1019V15.0915V15.0812V15.0708V15.0605V15.0501V15.0398V15.0294V15.0191V15.0087V14.9984V14.988V14.9777V14.9673V14.957V14.9466V14.9363V14.9259V14.9156V14.9052V14.8949V14.8845V14.8742V14.8638V14.8535V14.8431V14.8328V14.8224V14.8121V14.8017V14.7914V14.781V14.7707V14.7603V14.75V14.7396V14.7293V14.7189V14.7086V14.6982V14.6878V14.6775V14.6671V14.6568V14.6464V14.6361V14.6257V14.6154V14.605V14.5947V14.5843V14.574V14.5636V14.5533V14.5429V14.5326V14.5222V14.5119V14.5015V14.4912V14.4808V14.4705V14.4601V14.4498V14.4394V14.4291V14.4187V14.4084V14.398V14.3877V14.3773V14.367V14.3566V14.3463V14.3359V14.3256V14.3152V14.3049V14.2945V14.2842V14.2738V14.2634V14.2531V14.2427V14.2324V14.222V14.2117V14.2013V14.191V14.1806V14.1703V14.1599V14.1496V14.1392V14.1289V14.1185V14.1082V14.0978V14.0875V14.0771V14.0668V14.0564V14.0461V14.0357V14.0254V14.015V14.0047V13.9943V13.984V13.9736V13.9633V13.9529V13.9426V13.9322V13.9219V13.9115V13.9012V13.8908V13.8805V13.8701V13.8598V13.8494V13.839V13.8287V13.8183V13.808V13.7976V13.7873V13.7769V13.7666V13.7562V13.7459V13.7355V13.7252V13.7148V13.7045V13.6941V13.6838V13.6734V13.6631V13.6527V13.6424V13.632V13.6217V13.6113V13.601V13.5906V13.5803V13.5699V13.5596V13.5492V13.5389V13.5285V13.5182V13.5078V13.4975V13.4871V13.4768V13.4664V13.4561V13.4457V13.4354V13.425V13.4146V13.4043V13.3939V13.3836V13.3732V13.3629V13.3525V13.3422V13.3318V13.3215V13.3111V13.3008V13.2904V13.2801V13.2697V13.2594V13.249V13.2387V13.2283V13.218V13.2076V13.1973V13.1869V13.1766V13.1662V13.1559V13.1455V13.1352V13.1248V13.1145V13.1041V13.0938V13.0834V13.0731V13.0627V13.0524V13.042V13.0317V13.0213V13.011V13.0006V12.9903V12.9799V12.9695V12.9592V12.9488V12.9385V12.9281V12.9178V12.9074V12.8971V12.8867V12.8764V12.866V12.8557V12.8453V12.835V12.8246V12.8143V12.8039V12.7936V12.7832V12.7729V12.7625V12.7522V12.7418V12.7315V12.7211V12.7108V12.7004V12.6901V12.6797V12.6694V12.659V12.6487V12.6383V12.628V12.6176V12.6073V12.5969V12.5866V12.5762V12.5659V12.5555V12.5451V12.5348V12.5244V12.5141V12.5037V12.4934V12.483V12.4727V12.4623V12.452V12.4416V12.4313V12.4209V12.4106V12.4002V12.3899V12.3795V12.3692V12.3588V12.3485V12.3381V12.3278V12.3174V12.3071V12.2967V12.2864V12.276V12.2657V12.2553V12.245V12.2346V12.2243V12.2139V12.2036V12.1932V12.1829V12.1725V12.1622V12.1518V12.1415V12.1311V12.1207V12.1104V12.1V12.0897V12.0793V12.069V12.0586V12.0483V12.0379V12.0276V12.0172V12.0069V11.9965V11.9862V11.9758V11.9655V11.9551V11.9448V11.9344V11.9241V11.9137V11.9034V11.893V11.8827V11.8723V11.862V11.8516V11.8413V11.8309V11.8206V11.8102V11.7999V11.7895V11.7792V11.7688V11.7585V11.7481V11.7378V11.7274V11.7171V11.7067V11.6963V11.686V11.6756V11.6653V11.6549V11.6446V11.6342V11.6239V11.6135V11.6032V11.5928V11.5825V11.5721V11.5618V11.5514V11.5411V11.5307V11.5204V11.51V11.4997V11.4893V11.479V11.4686V11.4583V11.4479V11.4376V11.4272V11.4169V11.4065V11.3962V11.3858V11.3755V11.3651V11.3548V11.3444V11.3341V11.3237V11.3134V11.303V11.2927V11.2823V11.2719V11.2616V11.2512V11.2409V11.2305V11.2202V11.2098V11.1995V11.1891V11.1788V11.1684V11.1581V11.1477V11.1374V11.127V11.1167V11.1063V11.096V11.0856V11.0753V11.0649V11.0546V11.0442V11.0339V11.0235V11.0132V11.0028V10.9925V10.9821V10.9718V10.9614V10.9511V10.9407V10.9304V10.92V10.9097V10.8993V10.889V10.8786V10.8683V10.4646V10.3813H20.3189H24.9278H25.0111V10.4646V26.9276V27.0074L24.9314 27.0108C24.8939 27.0124 24.8566 27.0144 24.8195 27.0164C24.7378 27.0208 24.6571 27.0251 24.5779 27.0251H24.5778C21.7774 27.0215 18.9771 27.0233 16.1767 27.0304M6.01915 26.9924L16.1765 26.947M6.01915 26.9924H6.10248C6.2892 26.9924 6.47486 26.9908 6.6598 26.9893C7.10054 26.9856 7.53721 26.982 7.97452 26.9994M6.01915 26.9924L7.97789 26.9161M16.1767 27.0304L16.1765 26.947M16.1767 27.0304C16.1768 27.0304 16.1768 27.0304 16.1768 27.0304L16.1765 26.947M16.1767 27.0304C16.0506 27.0308 15.9413 27.0153 15.8495 26.9601C15.7561 26.9039 15.6931 26.8142 15.6431 26.6925L15.6427 26.6915C15.378 26.0214 14.9071 25.4427 14.2909 25.0316C13.6748 24.6205 12.9424 24.3965 12.1898 24.3893L12.1892 24.3893C10.6122 24.3624 9.26299 25.1905 8.6403 26.6012M16.1765 26.947C15.9349 26.9479 15.8127 26.8861 15.7202 26.6608C15.4491 25.9746 14.967 25.3825 14.3372 24.9623C13.7073 24.5421 12.9591 24.3133 12.1906 24.3059C10.5818 24.2786 9.20069 25.1248 8.56383 26.5681M8.6403 26.6012C8.64037 26.601 8.64045 26.6009 8.64053 26.6007L8.56383 26.5681M8.6403 26.6012C8.64022 26.6014 8.64015 26.6016 8.64008 26.6017L8.56383 26.5681M8.6403 26.6012C8.57496 26.7548 8.4951 26.8632 8.38014 26.928C8.26686 26.9918 8.13223 27.0058 7.97452 26.9994M8.56383 26.5681C8.44072 26.8578 8.28336 26.9285 7.97789 26.9161M15.1518 15.548C15.4425 15.3484 15.6276 15.3731 15.9053 15.5577C16.7449 16.1257 17.5984 16.6742 18.4592 17.2121L15.1518 15.548ZM15.1518 15.548C14.6269 15.9089 14.0891 16.2526 13.5517 16.5961C13.2249 16.805 12.8982 17.0138 12.5748 17.2263L15.1518 15.548ZM7.97789 26.9161L7.97452 26.9994M7.97789 26.9161L7.97458 26.9994C7.97456 26.9994 7.97454 26.9994 7.97452 26.9994M27.0957 14.4758L27.094 14.5608H27.179H27.6048C28.0143 14.5608 28.4239 14.5616 28.8336 14.5625C29.8588 14.5647 30.8848 14.5668 31.911 14.5555L31.9127 14.5554C32.546 14.536 33.1632 14.7446 33.6418 15.1389L33.6424 15.1393C34.3398 15.7031 35.0454 16.2568 35.7519 16.8111C35.9049 16.9312 36.0581 17.0514 36.2111 17.1717L36.2127 17.1729C36.4947 17.3839 36.7204 17.655 36.8717 17.964C37.023 18.2731 37.0959 18.6116 37.0846 18.9521L37.0846 18.9547C37.0809 20.6923 37.0821 22.4292 37.0834 24.167C37.084 25.0363 37.0846 25.9058 37.0846 26.7757C37.0846 27.4277 36.8533 27.9718 36.4555 28.356C36.0573 28.7405 35.4865 28.9702 34.7987 28.9819L34.7985 28.9819C34.4304 28.9889 34.0631 28.9915 33.6962 28.982C33.6058 28.9698 33.5136 28.9898 33.437 29.0388C33.3605 29.0877 33.3048 29.1623 33.2814 29.2491C32.669 30.7504 31.3933 31.5885 29.7376 31.5885C28.0805 31.5885 26.8211 30.7551 26.2047 29.2344L26.2044 29.2336C26.1505 29.1045 26.0741 29.0347 25.9769 29.0045C25.9064 28.9826 25.8267 28.9839 25.7593 28.9849C25.7454 28.9852 25.7319 28.9854 25.7192 28.9854C24.9502 28.9854 24.1812 28.9862 23.4122 28.987C21.1608 28.9893 18.9097 28.9917 16.6585 28.9739H16.6579C16.3783 28.9739 16.148 28.9955 15.9518 29.0965C15.7528 29.1991 15.6007 29.3768 15.4612 29.6627C14.7689 31.0672 13.4836 31.664 11.8797 31.5727L11.8796 31.5727C10.3352 31.486 9.21433 30.7458 8.63241 29.3511C8.57801 29.2204 8.51375 29.1196 8.41586 29.0559C8.31779 28.992 8.19903 28.9737 8.05481 28.9784L8.05456 28.9784C7.53093 28.9969 7.00588 28.9917 6.47909 28.9866C6.40385 28.9859 6.32857 28.9852 6.25325 28.9845C5.54356 28.9776 4.96354 28.7508 4.56152 28.364C4.15987 27.9775 3.92904 27.4249 3.92904 26.7527V26.7212V26.6898V26.6583V26.6269V26.5954V26.564V26.5325V26.501V26.4696V26.4381V26.4067V26.3752V26.3438V26.3123V26.2808V26.2494V26.2179V26.1865V26.155V26.1236V26.0921V26.0606V26.0292V25.9977V25.9663V25.9348V25.9034V25.8719V25.8404V25.809V25.7775V25.7461V25.7146V25.6832V25.6517V25.6202V25.5888V25.5573V25.5259V25.4944V25.463V25.4315V25.4V25.3686V25.3371V25.3057V25.2742V25.2428V25.2113V25.1798V25.1484V25.1169V25.0855V25.054V25.0226V24.9911V24.9597V24.9282V24.8967V24.8653V24.8338V24.8024V24.7709V24.7395V24.708V24.6765V24.6451V24.6136V24.5822V24.5507V24.5193V24.4878V24.4564V24.4249V24.3934V24.362V24.3305V24.2991V24.2676V24.2362V24.2047V24.1732V24.1418V24.1103V24.0789V24.0474V24.016V23.9845V23.9531V23.9216V23.8901V23.8587V23.8272V23.7958V23.7643V23.7329V23.7014V23.6699V23.6385V23.607V23.5756V23.5441V23.5127V23.4812V23.4498V23.4183V23.3868V23.3554V23.3239V23.2925V23.261V23.2296V23.1981V23.1667V23.1352V23.1037V23.0723V23.0408V23.0094V22.9779V22.9465V22.915V22.8835V22.8521V22.8206V22.7892V22.7577V22.7263V22.6948V22.6634V22.6319V22.6004V22.569V22.5375V22.5061V22.4746V22.4432V22.4117V22.3803V22.3488V22.3173V22.2859V22.2544V22.223V22.1915V22.1601V22.1286V22.0972V22.0657V22.0343V22.0028V21.9713V21.9399V21.9084V21.877V21.8455V21.8141V21.7826V21.7512V21.7197V21.6882V21.6568V21.6253V21.5939V21.5624V21.531V21.4995V21.4681V21.4366V21.4051V21.3737V21.3422V21.3108V21.2793V21.2479V21.2164V21.185V21.1535V21.1221V21.0906V21.0591V21.0277V20.9962V20.9648V20.9333V20.9019V20.8704V20.839V20.8075V20.776V20.7446V20.7131V20.6817V20.6502V20.6188V20.5873V20.5559V20.5244V20.493V20.4615V20.43V20.3986V20.3671V20.3357V20.3042V20.2728V20.2413V20.2099V20.1784V20.147V20.1155V20.084V20.0526V20.0211V19.9897V19.9582V19.9268V19.8953V19.8639V19.8324V19.801V19.7695V19.738V19.7066V19.6751V19.6437V19.6122V19.5808V19.5493V19.5179V19.4864V19.455V19.4235V19.3921V19.3606V19.3291V19.2977V19.2662V19.2348V19.2033V19.1719V19.1404V19.109V19.0775V19.0461V19.0146V18.9831V18.9517V18.9202V18.8888V18.8573V18.8259V18.7944V18.763V18.7315V18.7001V18.6686V18.6372V18.6057V18.5742V18.5428V18.5113V18.4799V18.4484V18.417V18.3855V18.3541V18.3226V18.2912V18.2597V18.2283V18.1968V18.1653V18.1339V18.1024V18.071V18.0395V18.0081V17.9766V17.9452V17.9137V17.8823V17.8508V17.8194V17.7879V17.7565V17.725V17.6935V17.6621V17.6306V17.5992V17.5677V17.5363V17.5048V17.4734V17.4419V17.4105V17.379V17.3476V17.3161V17.2847V17.2532V17.2217V17.1903V17.1588V17.1274V17.0959V17.0645V17.033V17.0016V16.9701V16.9387V16.9072V16.8758V16.8443V16.8129V16.7814V16.7499V16.7185V16.687V16.6556V16.6241V16.5927V16.5612V16.5298V16.4983V16.4669V16.4354V16.404V16.3725V16.3411V16.3096V16.2782V16.2467V16.2152V16.1838V16.1523V16.1209V16.0894V16.058V16.0265V15.9951V15.9636V15.9322V15.9007V15.8693V15.8378V15.8064V15.7749V15.7435V15.712V15.6806V15.6491V15.6176V15.5862V15.5547V15.5233V15.4918V15.4604V15.4289V15.3975V15.366V15.3346V15.3031V15.2717V15.2402V15.2088V15.1773V15.1459V15.1144V15.083V15.0515V15.0201V14.9886V14.9571V14.9257V14.8942V14.8628V14.8313V14.7999V14.7684V14.737V14.7055V14.6741V14.6426V14.6112V14.5797V14.5483V14.5168V14.4854V14.4539V14.4225V14.391V14.3596V14.3281V14.2967V14.2652V14.2337V14.2023V14.1708V14.1394V14.1079V14.0765V14.045V14.0136V13.9821V13.9507V13.9192V13.8878V13.8563V13.8249V13.7934V13.762V13.7305V13.6991V13.6676V13.6362V13.6047V13.5733V13.5418V13.5104V13.4789V13.4475V13.416V13.3845V13.3531V13.3216V13.2902V13.2587V13.2273V13.1958V13.1644V13.1329V13.1015V13.07V13.0386V13.0071V12.9757V12.9442V12.9128V12.8813V12.8499V12.8184V12.787V12.7555V12.7241V12.6926V12.6612V12.6297V12.5983V12.5668V12.5354V12.5039V12.4725V12.441V12.4096V12.3781V12.3467V12.3152V12.2838V12.2523V12.2208V12.1894V12.1579V12.1265V12.095V12.0636V12.0321V12.0007V11.9692V11.9378V11.9063V11.8749V11.8434V11.812V11.7805V11.7491V11.7176V11.6862V11.6547V11.6233V11.5918V11.5604V11.5289V11.4975V11.466V11.4346V11.4031V11.3717V11.3402V11.3088V11.2773V11.2459V11.2144V11.183V11.1515V11.1201V11.0886V11.0572V11.0257V10.9943V10.9628V10.9314V10.8999V10.8685V10.837V10.8056V10.7741V10.7427V10.7112V10.6798V10.6483C3.92904 9.97159 4.16106 9.4171 4.56314 9.03162C4.96556 8.64583 5.54532 8.42269 6.25244 8.42269H6.28865H6.32486H6.36107H6.39728H6.43349H6.4697H6.50591H6.54212H6.57833H6.61454H6.65075H6.68696H6.72317H6.75938H6.79559H6.83179H6.868H6.90421H6.94042H6.97663H7.01284H7.04905H7.08526H7.12147H7.15768H7.19389H7.2301H7.26631H7.30252H7.33873H7.37494H7.41115H7.44736H7.48357H7.51978H7.55599H7.5922H7.62841H7.66461H7.70082H7.73703H7.77324H7.80945H7.84566H7.88187H7.91808H7.95429H7.9905H8.02671H8.06292H8.09913H8.13534H8.17155H8.20776H8.24397H8.28018H8.31639H8.3526H8.38881H8.42502H8.46122H8.49743H8.53364H8.56985H8.60606H8.64227H8.67848H8.71469H8.7509H8.78711H8.82332H8.85953H8.89574H8.93195H8.96816H9.00437H9.04058H9.07679H9.113H9.14921H9.18542H9.22163H9.25783H9.29404H9.33025H9.36646H9.40267H9.43888H9.47509H9.5113H9.54751H9.58372H9.61993H9.65614H9.69235H9.72856H9.76477H9.80098H9.83719H9.8734H9.90961H9.94582H9.98203H10.0182H10.0544H10.0907H10.1269H10.1631H10.1993H10.2355H10.2717H10.3079H10.3441H10.3803H10.4165H10.4527H10.489H10.5252H10.5614H10.5976H10.6338H10.67H10.7062H10.7424H10.7786H10.8148H10.8511H10.8873H10.9235H10.9597H10.9959H11.0321H11.0683H11.1045H11.1407H11.1769H11.2132H11.2494H11.2856H11.3218H11.358H11.3942H11.4304H11.4666H11.5028H11.539H11.5752H11.6115H11.6477H11.6839H11.7201H11.7563H11.7925H11.8287H11.8649H11.9011H11.9373H11.9736H12.0098H12.046H12.0822H12.1184H12.1546H12.1908H12.227H12.2632H12.2994H12.3356H12.3719H12.4081H12.4443H12.4805H12.5167H12.5529H12.5891H12.6253H12.6615H12.6977H12.734H12.7702H12.8064H12.8426H12.8788H12.915H12.9512H12.9874H13.0236H13.0598H13.096H13.1323H13.1685H13.2047H13.2409H13.2771H13.3133H13.3495H13.3857H13.4219H13.4581H13.4944H13.5306H13.5668H13.603H13.6392H13.6754H13.7116H13.7478H13.784H13.8202H13.8564H13.8927H13.9289H13.9651H14.0013H14.0375H14.0737H14.1099H14.1461H14.1823H14.2185H14.2548H14.291H14.3272H14.3634H14.3996H14.4358H14.472H14.5082H14.5444H14.5806H14.6168H14.6531H14.6893H14.7255H14.7617H14.7979H14.8341H14.8703H14.9065H14.9427H14.9789H15.0152H15.0514H15.0876H15.1238H15.16H15.1962H15.2324H15.2686H15.3048H15.341H15.3772H15.4135H15.4497H15.4859H15.5221H15.5583H15.5945H15.6307H15.6669H15.7031H15.7393H15.7756H15.8118H15.848H15.8842H15.9204H15.9566H15.9928H16.029H16.0652H16.1014H16.1376H16.1739H16.2101H16.2463H16.2825H16.3187H16.3549H16.3911H16.4273H16.4635H16.4997H16.536H16.5722H16.6084H16.6446H16.6808H16.717H16.7532H16.7894H16.8256H16.8618H16.898H16.9343H16.9705H17.0067H17.0429H17.0791H17.1153H17.1515H17.1877H17.2239H17.2601H17.2964H17.3326H17.3688H17.405H17.4412H17.4774H17.5136H17.5498H17.586H17.6222H17.6584H17.6947H17.7309H17.7671H17.8033H17.8395H17.8757H17.9119H17.9481H17.9843H18.0205H18.0568H18.093H18.1292H18.1654H18.2016H18.2378H18.274H18.3102H18.3464H18.3826H18.4188H18.4551H18.4913H18.5275H18.5637H18.5999H18.6361H18.6723H18.7085H18.7447H18.7809H18.8172H18.8534H18.8896H18.9258H18.962H18.9982H19.0344H19.0706H19.1068H19.143H19.1792H19.2155H19.2517H19.2879H19.3241H19.3603H19.3965H19.4327H19.4689H19.5051H19.5413H19.5776H19.6138H19.65H19.6862H19.7224H19.7586H19.7948H19.831H19.8672H19.9034H19.9396H19.9759H20.0121H20.0483H20.0845H20.1207H20.1569H20.1931H20.2293H20.2655H20.3017H20.338H20.3742H20.4104H20.4466H20.4828H20.519H20.5552H20.5914H20.6276H20.6638H20.7H20.7363H20.7725H20.8087H20.8449H20.8811H20.9173H20.9535H20.9897H21.0259H21.0621H21.0984H21.1346H21.1708H21.207H21.2432H21.2794H21.3156H21.3518H21.388H21.4242H21.4604H21.4967H21.5329H21.5691H21.6053H21.6415H21.6777H21.7139H21.7501H21.7863H21.8225H21.8588H21.895H21.9312H21.9674H22.0036H22.0398H22.076H22.1122H22.1484H22.1846H22.2208H22.2571H22.2933H22.3295H22.3657H22.4019H22.4381H22.4743H22.5105H22.5467H22.5829H22.6192H22.6554H22.6916H22.7278H22.764H22.8002H22.8364H22.8726H22.9088H22.945H22.9812H23.0175H23.0537H23.0899H23.1261H23.1623H23.1985H23.2347H23.2709H23.3071H23.3433H23.3796H23.4158H23.452H23.4882H23.5244H23.5606H23.5968H23.633H23.6692H23.7054H23.7416H23.7779H23.8141H23.8503H23.8865H23.9227H23.9589H23.9951H24.0313H24.0675H24.1037H24.14H24.1762H24.2124H24.2486H24.2848H24.321H24.3572H24.3934H24.4296H24.4658H24.5021H24.5383H24.5745H24.6107H24.6469H24.6831H24.7193H24.7555H24.7917C25.4939 8.42269 26.0696 8.64304 26.4698 9.0241C26.8696 9.40482 27.1013 9.95254 27.104 10.6213C27.1071 11.3866 27.1061 12.1516 27.1051 12.917C27.1045 13.2996 27.104 13.6822 27.104 14.065C27.104 14.0653 27.104 14.0655 27.104 14.0658L27.0957 14.4758ZM34.8612 27.0251H34.9349L34.8824 26.7562L34.9658 26.7569L34.9658 26.7565C34.9658 26.7564 34.9658 26.7563 34.9658 26.7562L34.9698 26.2761C34.9898 23.865 35.0098 21.453 35.0176 19.0417L35.0179 19.0417L35.0174 19.0352C35.0046 18.8661 34.9232 18.7095 34.792 18.5981L34.792 18.5981L34.7906 18.5969C33.9976 17.9534 33.1947 17.3207 32.3819 16.699L32.382 16.6989L32.379 16.6968C32.2289 16.5923 32.0492 16.5348 31.8643 16.5317L31.8637 16.5317C30.568 16.5191 29.2723 16.5177 27.977 16.5163C27.8153 16.5162 27.6537 16.516 27.492 16.5158V16.5157L27.488 16.5159C27.3867 16.5207 27.2858 16.5304 27.1856 16.5449L27.1142 16.5553V16.6274V25.1619V25.3156L27.243 25.2317C27.3388 25.1693 27.412 25.1233 27.4818 25.0795C27.4945 25.0715 27.5071 25.0636 27.5196 25.0557L27.5197 25.0559L27.5235 25.0532C28.2586 24.5317 29.1781 24.3033 30.0873 24.4169L30.0878 24.417C31.6177 24.6003 32.7236 25.3299 33.2918 26.731L33.2918 26.7312C33.318 26.7954 33.3692 26.8621 33.425 26.9133C33.4784 26.9624 33.5522 27.0121 33.6285 27.0178L33.63 27.0179C33.9157 27.0337 34.2051 27.0306 34.4993 27.0276C34.6191 27.0263 34.7397 27.0251 34.8612 27.0251ZM12.858 14.4297V14.5828L12.9866 14.4997C13.2111 14.3546 13.4307 14.2134 13.6467 14.0745C14.0621 13.8074 14.4643 13.5488 14.8634 13.2866L14.8636 13.2865C15.084 13.1409 15.2997 13.0715 15.5118 13.0717C15.724 13.0719 15.9398 13.1418 16.1604 13.2866L16.1608 13.2869C16.2689 13.3569 16.3769 13.4271 16.4848 13.4971C16.6732 13.6195 16.8616 13.7419 17.0506 13.8638C17.2169 13.9711 17.3926 14.0836 17.5766 14.2015C17.7212 14.294 17.8709 14.3899 18.0254 14.4892L18.1538 14.5718V14.4191V10.4734V10.3901H18.0704H12.9413H12.858V10.4734V14.4297ZM12.1082 26.3346L12.1077 26.3346C11.1181 26.3411 10.4067 27.0342 10.4087 28.001C10.4106 28.968 11.1343 29.6614 12.1169 29.6679C13.1012 29.6744 13.8519 28.9395 13.8392 27.9741C13.8266 27.0086 13.0986 26.3283 12.1107 26.3346C12.1106 26.3346 12.1105 26.3346 12.1104 26.3346L12.1082 26.3346ZM28.0295 27.9166H28.0251V27.9999C28.0251 28.9604 28.7549 29.6679 29.732 29.6679C30.7085 29.6679 31.4439 28.9647 31.4566 28.0099C31.4693 27.0526 30.7282 26.3355 29.7237 26.3355H29.7235C28.7655 26.3373 28.0682 26.9906 28.0295 27.9166Z" fill="#66C61C" stroke="#F5F5F7" stroke-width="0.166667"/>
</g>
<defs>
<clipPath id="clip0_571_17361">
<rect width="33.3333" height="23.3333" fill="white" transform="translate(3.83398 8.33325)"/>
</clipPath>
</defs>
</svg>
