<svg width="16" height="16" viewBox="0 0 16 16" fill="none" xmlns="http://www.w3.org/2000/svg">
<g clip-path="url(#clip0_348_4748)">
<path d="M10.6372 5.8245L10.6379 5.7905L10.6412 5.62652C10.6412 5.62642 10.6412 5.62632 10.6412 5.62622C10.6412 5.4731 10.6414 5.32003 10.6416 5.16698C10.642 4.86084 10.6425 4.55481 10.6412 4.2487C10.6401 3.98121 10.5475 3.76212 10.3875 3.60983C10.2274 3.45741 9.99716 3.36927 9.7163 3.36927H9.70182H9.68733H9.67285H9.65836H9.64388H9.6294H9.61491H9.60043H9.58595H9.57146H9.55698H9.54249H9.52801H9.51353H9.49904H9.48456H9.47007H9.45559H9.44111H9.42662H9.41214H9.39766H9.38317H9.36869H9.3542H9.33972H9.32524H9.31075H9.29627H9.28179H9.2673H9.25282H9.23833H9.22385H9.20937H9.19488H9.1804H9.16591H9.15143H9.13695H9.12246H9.10798H9.0935H9.07901H9.06453H9.05004H9.03556H9.02108H9.00659H8.99211H8.97762H8.96314H8.94866H8.93417H8.91969H8.90521H8.89072H8.87624H8.86175H8.84727H8.83279H8.8183H8.80382H8.78934H8.77485H8.76037H8.74588H8.7314H8.71692H8.70243H8.68795H8.67346H8.65898H8.6445H8.63001H8.61553H8.60105H8.58656H8.57208H8.55759H8.54311H8.52863H8.51414H8.49966H8.48518H8.47069H8.45621H8.44172H8.42724H8.41276H8.39827H8.38379H8.3693H8.35482H8.34034H8.32585H8.31137H8.29689H8.2824H8.26792H8.25343H8.23895H8.22447H8.20998H8.1955H8.18102H8.16653H8.15205H8.13756H8.12308H8.1086H8.09411H8.07963H8.06514H8.05066H8.03618H8.02169H8.00721H7.99273H7.97824H7.96376H7.94927H7.93479H7.92031H7.90582H7.89134H7.87685H7.86237H7.84789H7.8334H7.81892H7.80444H7.78995H7.77547H7.76098H7.7465H7.73202H7.71753H7.70305H7.68857H7.67408H7.6596H7.64511H7.63063H7.61615H7.60166H7.58718H7.57269H7.55821H7.54373H7.52924H7.51476H7.50028H7.48579H7.47131H7.45682H7.44234H7.42786H7.41337H7.39889H7.38441H7.36992H7.35544H7.34095H7.32647H7.31199H7.2975H7.28302H7.26853H7.25405H7.23957H7.22508H7.2106H7.19612H7.18163H7.16715H7.15266H7.13818H7.1237H7.10921H7.09473H7.08025H7.06576H7.05128H7.03679H7.02231H7.00783H6.99334H6.97886H6.96437H6.94989H6.93541H6.92092H6.90644H6.89196H6.87747H6.86299H6.8485H6.83402H6.81954H6.80505H6.79057H6.77608H6.7616H6.74712H6.73263H6.71815H6.70367H6.68918H6.6747H6.66021H6.64573H6.63125H6.61676H6.60228H6.5878H6.57331H6.55883H6.54434H6.52986H6.51538H6.50089H6.48641H6.47192H6.45744H6.44296H6.42847H6.41399H6.39951H6.38502H6.37054H6.35605H6.34157H6.32709H6.3126H6.29812H6.28364H6.26915H6.25467H6.24018H6.2257H6.21122H6.19673H6.18225H6.16776H6.15328H6.1388H6.12431H6.10983H6.09535H6.08086H6.06638H6.05189H6.03741H6.02293H6.00844H5.99396H5.97948H5.96499H5.95051H5.93602H5.92154H5.90706H5.89257H5.87809H5.86361H5.84912H5.83464H5.82015H5.80567H5.79119H5.7767H5.76222H5.74773H5.73325H5.71877H5.70428H5.6898H5.67532H5.66083H5.64635H5.63186H5.61738H5.6029H5.58841H5.57393H5.55944H5.54496H5.53048H5.51599H5.50151H5.48703H5.47254H5.45806H5.44357H5.42909H5.41461H5.40012H5.38564H5.37116H5.35667H5.34219H5.3277H5.31322H5.29874H5.28425H5.26977H5.25528H5.2408H5.22632H5.21183H5.19735H5.18287H5.16838H5.1539H5.13941H5.12493H5.11045H5.09596H5.08148H5.067H5.05251H5.03803H5.02354H5.00906H4.99458H4.98009H4.96561H4.95112H4.93664H4.92216H4.90767H4.89319H4.87871H4.86422H4.84974H4.83525H4.82077H4.80629H4.7918H4.77732H4.76284H4.74835H4.73387H4.71938H4.7049H4.69042H4.67593H4.66145H4.64696H4.63248H4.618H4.60351H4.58903H4.57455H4.56006H4.54558H4.53109H4.51661H4.50213H4.48764H4.47316H4.45867H4.44419H4.42971H4.41522H4.40074H4.38626H4.37177H4.35729H4.3428H4.32832H4.31384H4.29935H4.28487H4.27039H4.2559H4.24142H4.22693H4.21245H4.19797H4.18348H4.169H4.15451H4.14003H4.12555H4.11106H4.09658H4.0821H4.06761H4.05313H4.03864H4.02416H4.00968H3.99519H3.98071H3.96623H3.95174H3.93726H3.92277H3.90829H3.89381H3.87932H3.86484H3.85035H3.83587H3.82139H3.8069H3.79242H3.77794H3.76345H3.74897H3.73448H3.72H3.70552H3.69103H3.67655H3.66207H3.64758H3.6331H3.61861H3.60413H3.58965H3.57516H3.56068H3.54619H3.53171H3.51723H3.50274H3.48826H3.47378H3.45929H3.44481H3.43032H3.41584H3.40136H3.38687H3.37239H3.3579H3.34342H3.32894H3.31445H3.29997H3.28549H3.271H3.25652H3.24203H3.22755H3.21307H3.19858H3.1841H3.16962H3.15513H3.14065H3.12616H3.11168H3.0972H3.08271H3.06823H3.05374H3.03926H3.02478H3.01029H2.99581H2.98133H2.96684H2.95236H2.93787H2.92339H2.90891H2.89442H2.87994H2.86546H2.85097H2.83649H2.822H2.80752H2.79304H2.77855H2.76407H2.74958H2.7351H2.72062H2.70613H2.69165H2.67717H2.66268H2.6482H2.63371H2.61923H2.60475H2.59026H2.57578H2.56129H2.54681H2.53233H2.51784H2.50336H2.48888H2.47439H2.45991H2.44542H2.43094H2.41646H2.40197H2.38749H2.37301H2.35852H2.34404H2.32955H2.31507H2.30059C2.01774 3.36927 1.78583 3.45853 1.62487 3.61285C1.46403 3.76703 1.37122 3.98883 1.37122 4.25952V4.2721V4.28468V4.29726V4.30984V4.32242V4.335V4.34758V4.36016V4.37274V4.38532V4.3979V4.41048V4.42306V4.43564V4.44822V4.4608V4.47338V4.48596V4.49854V4.51112V4.5237V4.53628V4.54887V4.56145V4.57403V4.58661V4.59919V4.61177V4.62435V4.63693V4.64951V4.66209V4.67467V4.68725V4.69983V4.71241V4.72499V4.73757V4.75015V4.76273V4.77531V4.78789V4.80047V4.81305V4.82563V4.83821V4.85079V4.86337V4.87595V4.88854V4.90112V4.9137V4.92628V4.93886V4.95144V4.96402V4.9766V4.98918V5.00176V5.01434V5.02692V5.0395V5.05208V5.06466V5.07724V5.08982V5.1024V5.11498V5.12756V5.14014V5.15273V5.16531V5.17789V5.19047V5.20305V5.21563V5.22821V5.24079V5.25337V5.26595V5.27853V5.29111V5.30369V5.31627V5.32885V5.34143V5.35402V5.3666V5.37918V5.39176V5.40434V5.41692V5.4295V5.44208V5.45466V5.46724V5.47982V5.4924V5.50498V5.51756V5.53014V5.54273V5.55531V5.56789V5.58047V5.59305V5.60563V5.61821V5.63079V5.64337V5.65595V5.66853V5.68111V5.69369V5.70627V5.71886V5.73144V5.74402V5.7566V5.76918V5.78176V5.79434V5.80692V5.8195V5.83208V5.84466V5.85724V5.86983V5.88241V5.89499V5.90757V5.92015V5.93273V5.94531V5.95789V5.97047V5.98305V5.99563V6.00822V6.0208V6.03338V6.04596V6.05854V6.07112V6.0837V6.09628V6.10886V6.12144V6.13403V6.14661V6.15919V6.17177V6.18435V6.19693V6.20951V6.22209V6.23467V6.24725V6.25984V6.27242V6.285V6.29758V6.31016V6.32274V6.33532V6.3479V6.36048V6.37306V6.38565V6.39823V6.41081V6.42339V6.43597V6.44855V6.46113V6.47371V6.48629V6.49888V6.51146V6.52404V6.53662V6.5492V6.56178V6.57436V6.58694V6.59953V6.61211V6.62469V6.63727V6.64985V6.66243V6.67501V6.68759V6.70017V6.71276V6.72534V6.73792V6.7505V6.76308V6.77566V6.78824V6.80082V6.81341V6.82599V6.83857V6.85115V6.86373V6.87631V6.88889V6.90147V6.91406V6.92664V6.93922V6.9518V6.96438V6.97696V6.98954V7.00213V7.01471V7.02729V7.03987V7.05245V7.06503V7.07761V7.0902V7.10278V7.11536V7.12794V7.14052V7.1531V7.16568V7.17827V7.19085V7.20343V7.21601V7.22859V7.24117V7.25375V7.26634V7.27892V7.2915V7.30408V7.31666V7.32924V7.34182V7.35441V7.36699V7.37957V7.39215V7.40473V7.41731V7.42989V7.44248V7.45506V7.46764V7.48022V7.4928V7.50538V7.51797V7.53055V7.54313V7.55571V7.56829V7.58087V7.59345V7.60604V7.61862V7.6312V7.64378V7.65636V7.66894V7.68153V7.69411V7.70669V7.71927V7.73185V7.74443V7.75702V7.7696V7.78218V7.79476V7.80734V7.81992V7.83251V7.84509V7.85767V7.87025V7.88283V7.89542V7.908V7.92058V7.93316V7.94574V7.95832V7.97091V7.98349V7.99607V8.00865V8.02123V8.03381V8.0464V8.05898V8.07156V8.08414V8.09672V8.10931V8.12189V8.13447V8.14705V8.15963V8.17221V8.1848V8.19738V8.20996V8.22254V8.23512V8.24771V8.26029V8.27287V8.28545V8.29803V8.31062V8.3232V8.33578V8.34836V8.36094V8.37352V8.38611V8.39869V8.41127V8.42385V8.43643V8.44902V8.4616V8.47418V8.48676V8.49934V8.51193V8.52451V8.53709V8.54967V8.56225V8.57484V8.58742V8.6V8.61258V8.62516V8.63775V8.65033V8.66291V8.67549V8.68808V8.70066V8.71324V8.72582V8.7384V8.75099V8.76357V8.77615V8.78873V8.80131V8.8139V8.82648V8.83906V8.85164V8.86422V8.87681V8.88939V8.90197V8.91455V8.92714V8.93972V8.9523V8.96488V8.97746V8.99005V9.00263V9.01521V9.02779V9.04038V9.05296V9.06554V9.07812V9.0907V9.10329V9.11587V9.12845V9.14103V9.15362V9.1662V9.17878V9.19136V9.20394V9.21653V9.22911V9.24169V9.25427V9.26686V9.27944V9.29202V9.3046V9.31719V9.32977V9.34235V9.35493V9.36751V9.3801V9.39268V9.40526V9.41784V9.43043V9.44301V9.45559V9.46817V9.48076V9.49334V9.50592V9.5185V9.53109V9.54367V9.55625V9.56883V9.58142V9.594V9.60658V9.61916V9.63175V9.64433V9.65691V9.66949V9.68208V9.69466V9.70724V9.71982V9.73241V9.74499V9.75757V9.77015V9.78274V9.79532V9.8079V9.82048V9.83307V9.84565V9.85823V9.87081V9.8834V9.89598V9.90856V9.92114V9.93373V9.94631V9.95889V9.97147V9.98406V9.99664V10.0092V10.0218V10.0344V10.047V10.0596V10.0721V10.0847V10.0973V10.1099V10.1225V10.135V10.1476V10.1602V10.1728V10.1854V10.198V10.2105V10.2231V10.2357V10.2483V10.2609V10.2735V10.286V10.2986V10.3112V10.3238V10.3364V10.349V10.3615V10.3741V10.3867V10.3993V10.4119V10.4245V10.437V10.4496V10.4622V10.4748V10.4874V10.4999V10.5125V10.5251V10.5377V10.5503V10.5629V10.5754V10.588V10.6006V10.6132V10.6258V10.6384V10.6509V10.6635V10.6761V10.6887V10.7013C1.37122 10.9702 1.46356 11.1912 1.62422 11.3458C1.78502 11.5005 2.01703 11.5912 2.30091 11.594C2.33102 11.5943 2.36112 11.5946 2.3912 11.5948C2.60193 11.5969 2.81196 11.5989 3.02143 11.5915L3.02153 11.5915C3.07922 11.5897 3.12672 11.597 3.16595 11.6225C3.20511 11.6481 3.23081 11.6884 3.25257 11.7406C3.48534 12.2985 3.93369 12.5946 4.55146 12.6293L4.55148 12.6293C5.19304 12.6658 5.70715 12.4271 5.98405 11.8653C5.98407 11.8653 5.98408 11.8652 5.9841 11.8652L6.014 11.88C6.12211 11.6584 6.2406 11.6231 6.46276 11.6231L10.6372 5.8245ZM10.6372 5.8245H10.6712H10.8415C11.0053 5.8245 11.1692 5.82485 11.3331 5.8252C11.7431 5.82606 12.1535 5.82693 12.564 5.82239L12.5647 5.82237C12.818 5.81459 13.0649 5.89802 13.2563 6.05574L13.2566 6.05593C13.5356 6.28145 13.8178 6.50293 14.1004 6.72468C14.1616 6.77271 14.2228 6.82076 14.2841 6.86886L14.2841 6.86887L14.2847 6.86934C14.3975 6.95374 14.4878 7.06219 14.5483 7.18581C14.6088 7.30943 14.638 7.44482 14.6334 7.58105L14.6334 7.58208C14.632 8.27717 14.6325 8.97198 14.633 9.66716C14.6332 10.0148 14.6334 10.3626 14.6334 10.7105C14.6334 10.9713 14.5409 11.1889 14.3818 11.3426C14.2225 11.4964 13.9942 11.5883 13.7191 11.5929L13.719 11.5929C13.5718 11.5957 13.4248 11.5968 13.2781 11.593L10.6372 5.8245ZM2.20727 10.7971V10.7638V4.18603V4.1527H2.2406H4.08157H4.11491V4.18603V4.33513C4.11491 4.53012 4.11509 4.72511 4.11528 4.92009C4.11579 5.44962 4.1163 5.97914 4.11305 6.50862C4.11252 6.60246 4.12646 6.68425 4.16091 6.75262C4.19503 6.82035 4.2504 6.87718 4.33697 6.9198C4.50198 7.0008 4.65612 6.96491 4.81119 6.86286L4.81121 6.86285C4.94137 6.77735 5.07234 6.69364 5.20317 6.61002C5.41767 6.47292 5.63181 6.33604 5.84146 6.19193L5.84147 6.19192C5.90261 6.14992 5.95727 6.1283 6.0142 6.13039C6.07044 6.13246 6.12302 6.15752 6.18019 6.19552L6.18041 6.19567C6.51582 6.42257 6.85685 6.64176 7.20097 6.85678L7.20175 6.85727L7.20174 6.85728C7.28083 6.90978 7.37105 6.94528 7.46613 6.96123C7.67272 6.98596 7.86581 6.82416 7.88882 6.62307C7.89337 6.57157 7.89505 6.51987 7.89385 6.4682L7.89383 6.46742H7.89384V6.46328V6.45914V6.455V6.45086V6.44672V6.44258V6.43844V6.4343V6.43016V6.42602V6.42188V6.41774V6.4136V6.40946V6.40532V6.40118V6.39704V6.3929V6.38875V6.38461V6.38047V6.37633V6.37219V6.36805V6.36391V6.35977V6.35563V6.35149V6.34735V6.34321V6.33907V6.33493V6.33079V6.32665V6.32251V6.31837V6.31423V6.31009V6.30594V6.3018V6.29766V6.29352V6.28938V6.28524V6.2811V6.27696V6.27282V6.26868V6.26454V6.2604V6.25626V6.25212V6.24798V6.24384V6.2397V6.23556V6.23142V6.22728V6.22314V6.21899V6.21485V6.21071V6.20657V6.20243V6.19829V6.19415V6.19001V6.18587V6.18173V6.17759V6.17345V6.16931V6.16517V6.16103V6.15689V6.15275V6.14861V6.14447V6.14033V6.13619V6.13204V6.1279V6.12376V6.11962V6.11548V6.11134V6.1072V6.10306V6.09892V6.09478V6.09064V6.0865V6.08236V6.07822V6.07408V6.06994V6.0658V6.06166V6.05752V6.05338V6.04924V6.04509V6.04095V6.03681V6.03267V6.02853V6.02439V6.02025V6.01611V6.01197V6.00783V6.00369V5.99955V5.99541V5.99127V5.98713V5.98299V5.97885V5.97471V5.97057V5.96643V5.96228V5.95814V5.954V5.94986V5.94572V5.94158V5.93744V5.9333V5.92916V5.92502V5.92088V5.91674V5.9126V5.90846V5.90432V5.90018V5.89604V5.8919V5.88776V5.88362V5.87948V5.87533V5.87119V5.86705V5.86291V5.85877V5.85463V5.85049V5.84635V5.84221V5.83807V5.83393V5.82979V5.82565V5.82151V5.81737V5.81323V5.80909V5.80495V5.80081V5.79667V5.79253V5.78838V5.78424V5.7801V5.77596V5.77182V5.76768V5.76354V5.7594V5.75526V5.75112V5.74698V5.74284V5.7387V5.73456V5.73042V5.72628V5.72214V5.718V5.71386V5.70972V5.70557V5.70143V5.69729V5.69315V5.68901V5.68487V5.68073V5.67659V5.67245V5.66831V5.66417V5.66003V5.65589V5.65175V5.64761V5.64347V5.63933V5.63519V5.63105V5.62691V5.62277V5.61862V5.61448V5.61034V5.6062V5.60206V5.59792V5.59378V5.58964V5.5855V5.58136V5.57722V5.57308V5.56894V5.5648V5.56066V5.55652V5.55238V5.54824V5.5441V5.53996V5.53582V5.53167V5.52753V5.52339V5.51925V5.51511V5.51097V5.50683V5.50269V5.49855V5.49441V5.49027V5.48613V5.48199V5.47785V5.47371V5.46957V5.46543V5.46129V5.45715V5.45301V5.44886V5.44472V5.44058V5.43644V5.4323V5.42816V5.42402V5.41988V5.41574V5.4116V5.40746V5.40332V5.39918V5.39504V5.3909V5.38676V5.38262V5.37848V5.37434V5.3702V5.36606V5.36191V5.35777V5.35363V5.34949V5.34535V5.34121V5.33707V5.33293V5.32879V5.32465V5.32051V5.31637V5.31223V5.30809V5.30395V5.29981V5.29567V5.29153V5.28739V5.28325V5.27911V5.27496V5.27082V5.26668V5.26254V5.2584V5.25426V5.25012V5.24598V5.24184V5.2377V5.23356V5.22942V5.22528V5.22114V5.217V5.21286V5.20872V5.20458V5.20044V5.1963V5.19216V5.18801V5.18387V5.17973V5.17559V5.17145V5.16731V5.16317V5.15903V5.15489V5.15075V5.14661V5.14247V5.13833V5.13419V5.13005V5.12591V5.12177V5.11763V5.11349V5.10935V5.1052V5.10106V5.09692V5.09278V5.08864V5.0845V5.08036V5.07622V5.07208V5.06794V5.0638V5.05966V5.05552V5.05138V5.04724V5.0431V5.03896V5.03482V5.03068V5.02654V5.0224V5.01825V5.01411V5.00997V5.00583V5.00169V4.99755V4.99341V4.98927V4.98513V4.98099V4.97685V4.97271V4.96857V4.96443V4.96029V4.95615V4.95201V4.94787V4.94373V4.93959V4.93545V4.9313V4.92716V4.92302V4.91888V4.91474V4.9106V4.90646V4.90232V4.89818V4.89404V4.8899V4.88576V4.88162V4.87748V4.87334V4.8692V4.86506V4.86092V4.85678V4.85264V4.84849V4.84435V4.84021V4.83607V4.83193V4.82779V4.82365V4.81951V4.81537V4.81123V4.80709V4.80295V4.79881V4.79467V4.79053V4.78639V4.78225V4.77811V4.77397V4.76983V4.76569V4.76154V4.7574V4.75326V4.74912V4.74498V4.74084V4.7367V4.73256V4.72842V4.72428V4.72014V4.716V4.71186V4.70772V4.70358V4.69944V4.6953V4.69116V4.68702V4.68288V4.67874V4.67459V4.67045V4.66631V4.66217V4.65803V4.65389V4.64975V4.64561V4.64147V4.63733V4.63319V4.62905V4.62491V4.62077V4.61663V4.61249V4.60835V4.60421V4.60007V4.59593V4.59178V4.58764V4.5835V4.57936V4.57522V4.57108V4.56694V4.5628V4.55866V4.55452V4.55038V4.54624V4.5421V4.53796V4.53382V4.52968V4.52554V4.5214V4.51726V4.51312V4.50898V4.50483V4.50069V4.49655V4.49241V4.48827V4.48413V4.47999V4.47585V4.47171V4.46757V4.46343V4.45929V4.45515V4.45101V4.44687V4.44273V4.43859V4.43445V4.43031V4.42617V4.42203V4.41788V4.41374V4.4096V4.40546V4.40132V4.39718V4.39304V4.3889V4.38476V4.38062V4.37648V4.37234V4.3682V4.36406V4.35992V4.35578V4.35164V4.3475V4.18603V4.1527H7.92717H9.77073H9.80407V4.18603V10.7712V10.8032L9.77216 10.8045C9.75717 10.8052 9.74225 10.806 9.72742 10.8068C9.69473 10.8085 9.66246 10.8102 9.63077 10.8102H9.63073C8.5106 10.8088 7.39047 10.8095 6.27034 10.8123L2.20727 10.7971ZM2.20727 10.7971H2.2406C2.31529 10.7971 2.38955 10.7965 2.46352 10.7959C2.63982 10.7945 2.81449 10.793 2.98942 10.7999M2.20727 10.7971L2.98942 10.7999M2.98942 10.7999C3.0525 10.8025 3.10635 10.7969 3.15167 10.7714C3.19765 10.7455 3.22959 10.7021 3.25573 10.6407C3.50481 10.0764 4.04451 9.74517 4.67528 9.7559L4.67553 9.7559C4.97656 9.75878 5.26952 9.84841 5.51599 10.0129C5.76244 10.1773 5.95081 10.4088 6.05667 10.6768L6.05685 10.6772C6.07685 10.7259 6.10205 10.7618 6.13941 10.7842C6.17613 10.8063 6.21985 10.8125 6.27031 10.8123L2.98942 10.7999ZM4.54959 12.6626C3.92014 12.6272 3.45989 12.3241 3.22181 11.7535C3.18034 11.6538 3.13221 11.6213 3.02261 11.6249L4.54959 12.6626ZM13.7441 10.8102H13.7736L13.7859 10.703L13.7859 10.7027L13.7875 10.5098C13.7955 9.54567 13.8035 8.58113 13.8067 7.61689L13.8068 7.61689L13.8066 7.61426C13.8014 7.54665 13.7689 7.48399 13.7164 7.43943L13.7158 7.43897C13.3986 7.18155 13.0775 6.92849 12.7524 6.67979L12.7524 6.67977L12.7512 6.67892C12.6912 6.6371 12.6193 6.61411 12.5453 6.61288L12.5451 6.61287C12.0268 6.60785 11.5085 6.60729 10.9903 6.60673C10.9257 6.60666 10.861 6.60659 10.7964 6.60647L10.7948 6.60655C10.7543 6.60846 10.7139 6.61234 10.6738 6.61817L10.6453 6.62232V6.65115V10.0649V10.1265L10.6968 10.0929C10.7351 10.0679 10.7644 10.0495 10.7923 10.032C10.7974 10.0288 10.8024 10.0257 10.8075 10.0225L10.8075 10.0225L10.809 10.0215C11.103 9.8129 11.4708 9.72151 11.8345 9.76696L11.8347 9.76698C12.4467 9.84032 12.889 10.1322 13.1163 10.6926L13.1163 10.6927C13.1268 10.7184 13.1473 10.745 13.1696 10.7655C13.191 10.7852 13.2205 10.805 13.251 10.8073L13.2516 10.8073C13.3659 10.8137 13.4816 10.8125 13.5993 10.8112C13.6472 10.8107 13.6955 10.8102 13.7441 10.8102ZM4.94281 5.77209V5.83333L4.99424 5.80008C5.08405 5.74202 5.17186 5.68556 5.25825 5.63002C5.42443 5.52318 5.58532 5.41974 5.74497 5.31484L5.74504 5.3148C5.83321 5.25657 5.91949 5.22881 6.00434 5.22889C6.08921 5.22897 6.17553 5.25691 6.26377 5.31485L6.26394 5.31495C6.30719 5.34298 6.35038 5.37103 6.39356 5.39908C6.46892 5.44803 6.54425 5.49695 6.61983 5.54571C6.68639 5.58864 6.75666 5.63364 6.83028 5.6808C6.88809 5.71782 6.94798 5.75617 7.00976 5.79589L7.06112 5.82891V5.76785V4.18956V4.15623H7.02779H4.97614H4.94281V4.18956V5.77209ZM4.6429 10.534L4.64268 10.534L4.64401 10.5674V10.534H4.64386C4.64384 10.534 4.64381 10.534 4.64379 10.534L4.6429 10.534ZM11.0114 11.1668H11.0096V11.2002C11.0096 11.5843 11.3016 11.8674 11.6924 11.8674C12.083 11.8674 12.3772 11.5861 12.3822 11.2041C12.3873 10.8212 12.0909 10.5344 11.6891 10.5344H11.689C11.3058 10.5351 11.0269 10.7964 11.0114 11.1668Z" fill="#66C61C" stroke="#F5F5F7" stroke-width="0.0666667"/>
</g>
<defs>
<clipPath id="clip0_348_4748">
<rect width="13.3333" height="9.33333" fill="white" transform="translate(1.33362 3.33398)"/>
</clipPath>
</defs>
</svg>
