<svg width="41" height="40" viewBox="0 0 41 40" fill="none" xmlns="http://www.w3.org/2000/svg">
<g clip-path="url(#clip0_563_16236)">
<path d="M36.99 18.45C37 18.12 36.93 17.79 36.79 17.5C36.64 17.2 36.43 16.94 36.16 16.74C35.3 16.06 34.44 15.39 33.59 14.71C33.13 14.33 32.53 14.13 31.92 14.14C30.48 14.16 29.05 14.14 27.61 14.14H27.01V13.97L27.02 13.56C27.02 12.41 27.02 11.26 27.02 10.12C27.02 9.47 26.79 8.95 26.41 8.58C26.03 8.22 25.47 8 24.79 8H6.24C5.55 8 4.99 8.22 4.61 8.59C4.23 8.96 4 9.49 4 10.15V26.25C4 26.9 4.22 27.43 4.61 27.8C4.99 28.17 5.55 28.39 6.24 28.4C6.84 28.4 7.44 28.41 8.04 28.4C8.19 28.4 8.33 28.41 8.45 28.49C8.57 28.57 8.64 28.69 8.7 28.82C9.27 30.18 10.36 30.91 11.87 30.99C13.45 31.08 14.7 30.49 15.37 29.13C15.51 28.84 15.68 28.64 15.9 28.53C16.12 28.42 16.36 28.4 16.64 28.4C19.66 28.42 22.68 28.41 25.7 28.41C25.76 28.41 25.88 28.41 25.98 28.43C26.11 28.47 26.2 28.56 26.26 28.71C26.86 30.2 28.09 31.01 29.72 31.01C31.35 31.01 32.59 30.19 33.19 28.72C33.22 28.62 33.28 28.53 33.37 28.48C33.46 28.42 33.57 28.4 33.67 28.41C34.04 28.41 34.4 28.41 34.77 28.41C35.44 28.4 35.99 28.18 36.37 27.81C36.75 27.44 36.97 26.92 36.97 26.29C36.97 23.68 37 22.61 37 20L36.99 18.45ZM12.76 13.92V9.8H18.22V14.22L17.96 14.05C17.61 13.82 17.28 13.62 16.99 13.42C16.69 13.23 16.4 13.04 16.1 12.84C15.89 12.7 15.69 12.64 15.5 12.64C15.31 12.64 15.11 12.7 14.9 12.84C14.29 13.24 13.68 13.63 13.02 14.05L12.76 14.22V13.91V13.92ZM12.1 29.25C11.07 29.25 10.31 28.52 10.31 27.5C10.31 26.48 11.06 25.76 12.09 25.75C13.12 25.75 13.89 26.46 13.9 27.47C13.91 28.48 13.12 29.25 12.09 29.25H12.1ZM25.08 9.96V26.58H24.92C24.8 26.59 24.68 26.6 24.56 26.6C21.76 26.6 18.96 26.6 16.16 26.6C16.03 26.6 15.9 26.58 15.79 26.52C15.68 26.45 15.6 26.34 15.55 26.21C15.29 25.56 14.83 24.99 14.23 24.59C13.63 24.19 12.91 23.97 12.17 23.96C10.62 23.93 9.31 24.74 8.7 26.12C8.63 26.28 8.54 26.41 8.4 26.49C8.27 26.57 8.11 26.58 7.95 26.57C7.33 26.55 6.72 26.57 6.08 26.57H5.91V9.79H10.85V10.33C10.85 12.14 10.85 13.95 10.85 15.76C10.85 15.99 10.88 16.18 10.96 16.33C11.04 16.48 11.16 16.61 11.36 16.71C11.74 16.9 12.09 16.82 12.46 16.57C13.32 16 14.19 15.47 15.03 14.89C15.19 14.78 15.34 14.72 15.51 14.72C15.67 14.72 15.82 14.8 15.97 14.9C16.81 15.47 17.66 16.01 18.52 16.55C18.71 16.67 18.92 16.76 19.15 16.8C19.62 16.86 20.06 16.49 20.11 16.03C20.12 15.91 20.13 15.78 20.12 15.65V15.63V15.61V15.59V15.57V15.55V15.53V15.51V15.49V15.47V15.45V15.43V15.41V15.39V15.37V15.35V15.33V15.31V15.29V15.27V15.25V15.23V15.21V15.19V15.17V15.15V15.13V15.11V15.09V15.07V15.05V15.03V15.01V14.99V14.97V14.95V14.93V14.91V14.89V14.87V14.85V14.83V14.81V14.79V14.77V14.75V14.73V14.71V14.69V14.67V14.65V14.63V14.61V14.59V14.57V14.55V14.53V14.51V14.49V14.47V14.45V14.43V14.41V14.39V14.37V14.35V14.33V14.31V14.29V14.27V14.25V14.23V14.21V14.19V14.17V14.15V14.13V14.11V14.09V14.07V14.05V14.03V14.01V13.99V13.97V13.95V13.93V13.91V13.89V13.87V13.85V13.83V13.81V13.79V13.77V13.75V13.73V13.71V13.69V13.67V13.65V13.63V13.61V13.59V13.57V13.55V13.53V13.51V13.49V13.47V13.45V13.43V13.41V13.39V13.37V13.35V13.33V13.31V13.29V13.27V13.25V13.23V13.21V13.19V13.17V13.15V13.13V13.11V13.09V13.07V13.05V13.03V13.01V12.99V12.97V12.95V12.93V12.91V12.89V12.87V12.85V12.83V12.81V12.79V12.77V12.75V12.73V12.71V12.69V12.67V12.65V12.63V12.61V12.59V12.57V12.55V12.53V12.51V12.49V12.47V12.45V12.43V12.41V12.39V12.37V12.35V12.33V12.31V12.29V12.27V12.25V12.23V12.21V12.19V12.17V12.15V12.13V12.11V12.09V12.07V12.05V12.03V12.01V11.99V11.97V11.95V11.93V11.91V11.89V11.87V11.85V11.83V11.81V11.79V11.77V11.75V11.73V11.71V11.69V11.67V11.65V11.63V11.61V11.59V11.57V11.55V11.53V11.51V11.49V11.47V11.45V11.43V11.41V11.39V11.37V11.35V11.33V11.31V11.29V11.27V11.25V11.23V11.21V11.19V11.17V11.15V11.13V11.11V11.09V11.07V11.05V11.03V11.01V10.99V10.97V10.95V10.93V10.91V10.89V10.87V10.85V10.83V10.81V10.79V10.77V10.75V10.73V10.71V10.69V10.67V10.65V10.63V10.61V10.59V10.57V10.55V9.96H25.06V10.13L25.08 9.96ZM29.72 29.25C28.7 29.25 27.93 28.51 27.93 27.5V27.33H27.95C28.03 26.4 28.74 25.75 29.71 25.75C30.76 25.75 31.54 26.5 31.53 27.51C31.52 28.51 30.74 29.25 29.72 29.25ZM35.087 20C35.087 22.57 35.06 23.68 35.04 26.26C35.04 26.26 35.04 26.32 35.04 26.35C35.04 26.38 35.04 26.41 35.03 26.46L35.01 26.61H34.86C34.44 26.61 34.03 26.63 33.62 26.61C33.52 26.61 33.42 26.54 33.37 26.48C33.31 26.42 33.25 26.35 33.22 26.27C32.67 24.9 31.59 24.19 30.08 24.01C29.19 23.9 28.29 24.12 27.57 24.63C27.49 24.68 27.41 24.73 27.29 24.81L27.03 24.98V15.98L27.17 15.96C27.27 15.95 27.38 15.94 27.48 15.93C28.94 15.93 30.39 15.93 31.85 15.95C32.05 15.95 32.25 16.02 32.41 16.13C33.22 16.75 34.03 17.39 34.82 18.03C34.97 18.16 35.06 18.33 35.07 18.53L35.087 20Z" fill="#66C61C"/>
</g>
<defs>
<clipPath id="clip0_563_16236">
<rect width="33.16" height="23" fill="white" transform="translate(4 8)"/>
</clipPath>
</defs>
</svg>
