<svg width="16" height="16" viewBox="0 0 16 16" fill="none" xmlns="http://www.w3.org/2000/svg">
<g clip-path="url(#clip0_341_5910)">
<path d="M2.39978 9.79021V9.49467H2.0415C1.7853 9.49467 1.5291 9.49931 1.27291 9.49129C1.1388 9.48681 1.00965 9.43594 0.904779 9.34629C0.79991 9.25663 0.724962 9.13301 0.691144 8.99393C0.652015 8.85636 0.656163 8.70883 0.702951 8.57404C0.749739 8.43925 0.836572 8.32465 0.950097 8.24789C1.04824 8.18244 1.07741 8.11278 1.07544 7.99456C1.06874 7.62006 1.07189 7.24472 1.07307 6.8698C1.07307 6.47757 1.27566 6.26182 1.63867 6.25929H1.90709C1.90709 5.91899 1.90946 5.5884 1.90315 5.25781C1.90315 5.22826 1.8527 5.1873 1.81762 5.17337C1.65208 5.10666 1.48299 5.04966 1.31626 4.98591C1.13968 4.91877 1.08253 4.80351 1.1389 4.61859C1.21378 4.37286 1.29261 4.12854 1.37539 3.88563C1.43569 3.70662 1.5425 3.65131 1.71277 3.71211C2.03492 3.82751 2.35603 3.94545 2.67608 4.06592C3.02253 4.19596 3.16246 4.40368 3.16482 4.80098C3.16719 5.22319 3.16482 5.64539 3.16482 6.0676V6.24873H4.60701V6.07436C4.60701 5.33493 4.60701 4.59564 4.60701 3.8565C4.60701 3.12101 5.02757 2.66883 5.71063 2.66799C6.27268 2.66799 6.83435 2.66799 7.39601 2.66799C7.93402 2.66545 8.31713 2.92638 8.5552 3.43809C8.75503 3.86748 8.95132 4.29855 9.14918 4.7292C9.17086 4.77565 9.19411 4.82167 9.2217 4.87909C9.26112 4.8432 9.29777 4.81576 9.3297 4.78493C9.71202 4.41972 10.0959 4.05578 10.4727 3.68719C10.5298 3.62955 10.5729 3.55779 10.5981 3.4782C10.6719 3.23768 10.8211 3.03188 11.0203 2.89569C11.2196 2.7595 11.4567 2.70128 11.6914 2.7309C12.1589 2.78114 12.5251 3.1797 12.5944 3.69142C12.6167 3.86174 12.6612 4.02787 12.7265 4.18498C13.1903 5.27343 13.6599 6.35921 14.1356 7.44231C14.213 7.61201 14.3074 7.77225 14.417 7.92025C14.631 8.2158 14.8588 8.50121 15.0803 8.79127C15.3956 9.20123 15.4158 9.64328 15.1462 10.0908C15.0634 10.228 14.9814 10.3665 14.8939 10.5004C14.5266 11.0623 13.8608 11.2409 13.2964 10.9167C12.7111 10.5789 12.1321 10.2306 11.5511 9.88479C11.399 9.79444 11.3509 9.65258 11.4195 9.51831C11.4881 9.38405 11.6189 9.35365 11.7778 9.4402C12.0655 9.59768 12.0655 9.59768 12.2925 9.35576C12.5645 9.06486 12.8353 8.77227 13.1088 8.48306C13.1628 8.42606 13.1931 8.38342 13.1443 8.29686C12.5615 7.26245 11.9806 6.22692 11.4017 5.19026C11.3825 5.16555 11.3619 5.14201 11.3403 5.11975C11.3314 5.1526 11.3181 5.18389 11.3008 5.21263C10.708 5.92701 10.1141 6.64012 9.51889 7.35196C9.44755 7.4364 9.4105 7.52084 9.42193 7.63442C9.42627 7.69231 9.42627 7.75048 9.42193 7.80837C9.41208 8.00934 9.41444 8.1778 9.61585 8.31502C9.83027 8.45899 9.87836 8.78789 9.79046 9.04544C9.74764 9.17303 9.66997 9.28386 9.56755 9.36353C9.46513 9.4432 9.3427 9.48801 9.21618 9.49213C9.01044 9.49847 8.8047 9.49213 8.5891 9.49213V9.79443C8.95408 9.86663 9.27649 10.0275 9.52835 10.3201C10.0037 10.8723 10.1365 11.5154 9.8756 12.2099C9.61467 12.9044 9.11331 13.3051 8.40976 13.3199C7.25687 13.3444 6.10359 13.3287 4.95031 13.3296C4.19118 13.3296 3.43244 13.333 2.67331 13.3296C1.84915 13.3249 1.1724 12.7474 1.01789 11.9262C0.926945 11.4714 1.00641 10.9966 1.23916 10.604C1.47191 10.2115 1.83932 9.93254 2.26222 9.82737L2.39978 9.79021ZM5.24002 8.98802H9.05419C9.10346 8.98802 9.16298 9.00533 9.19963 8.98168C9.25994 8.94326 9.34271 8.88078 9.34665 8.82293C9.35059 8.76509 9.28201 8.66418 9.22525 8.64265C8.97536 8.54807 8.95171 8.52612 8.95171 8.24197C8.95171 7.35998 8.95171 6.47842 8.95171 5.59684C8.95289 5.5133 8.93716 5.43048 8.9056 5.35407C8.65334 4.7938 8.3932 4.23775 8.13898 3.67833C7.98526 3.34056 7.74483 3.17168 7.38734 3.17464C6.83553 3.18139 6.28372 3.19194 5.73191 3.17168C5.29835 3.15563 5.07093 3.46722 5.07723 3.8717C5.09024 4.7216 5.08157 5.57193 5.08078 6.42184C5.08078 6.69458 5.01141 6.76678 4.75482 6.76678C3.73476 6.76678 2.7147 6.76931 1.69464 6.76425C1.5764 6.76425 1.54368 6.80098 1.54566 6.92511C1.55157 7.36843 1.54802 7.81175 1.54802 8.25549C1.54802 8.52612 1.52043 8.55103 1.27606 8.64223C1.21891 8.66334 1.14914 8.76214 1.1523 8.82083C1.15545 8.87951 1.23743 8.94242 1.29734 8.98168C1.33361 9.00533 1.39351 8.98802 1.44278 8.98802H5.24002ZM5.49976 12.8238H6.6822C7.26357 12.8238 7.84494 12.8356 8.42552 12.8162C9.09203 12.7942 9.61191 12.109 9.5185 11.4064C9.42981 10.7364 8.94738 10.2855 8.30767 10.2846C6.82042 10.2821 5.33316 10.2821 3.84591 10.2846C3.4419 10.2846 3.0379 10.2791 2.63429 10.2846C2.32538 10.2869 2.02956 10.4186 1.81012 10.6515C1.59069 10.8844 1.46506 11.2001 1.46013 11.531C1.45146 12.258 1.96779 12.8179 2.66346 12.8217C3.60863 12.8255 4.5542 12.8217 5.49976 12.8217V12.8238ZM12.5058 9.87761C12.877 10.0921 13.2479 10.3323 13.6393 10.5244C13.9338 10.6688 14.2857 10.5325 14.4808 10.2483C14.5916 10.087 14.6925 9.91772 14.7891 9.74588C14.8856 9.57404 14.897 9.38362 14.7835 9.22319C14.5423 8.88542 14.2849 8.55779 14.0394 8.23269L12.5058 9.87761ZM11.8089 4.93187C12.3765 5.94517 12.9519 6.97789 13.5329 8.01187C13.7658 7.80626 13.7658 7.80626 13.6511 7.54069C13.4028 6.96733 13.1546 6.39383 12.9066 5.82019C12.7253 5.40136 12.5436 4.98253 12.3674 4.57637L11.8089 4.93187ZM10.5949 4.2538C10.2295 4.60339 9.84604 4.96691 9.46923 5.33634C9.43691 5.36801 9.42706 5.43978 9.42666 5.49298C9.42311 5.85143 9.4243 6.21073 9.42666 6.56919C9.42972 6.61003 9.43511 6.65064 9.44282 6.69078L11.0194 4.79423C10.8704 4.60212 10.736 4.4307 10.5949 4.25168V4.2538ZM2.88852 9.76404H8.09838V9.50142H2.88852V9.76404ZM11.5693 3.23079C11.4964 3.23156 11.4245 3.2477 11.3575 3.27827C11.2905 3.30885 11.2298 3.35326 11.1789 3.40897C11.1279 3.46469 11.0877 3.53062 11.0606 3.60299C11.0334 3.67536 11.0198 3.75275 11.0206 3.83074C11.022 3.98807 11.0816 4.13838 11.1864 4.2486C11.2912 4.35882 11.4326 4.41992 11.5795 4.41846C11.7264 4.417 11.8667 4.35311 11.9696 4.24083C12.0725 4.12855 12.1295 3.97709 12.1282 3.81977C12.1269 3.66229 12.0673 3.51179 11.9625 3.40134C11.8577 3.2909 11.7163 3.22955 11.5693 3.23079ZM1.65562 4.56919C1.82984 4.63505 1.9938 4.70429 2.1621 4.75876C2.31701 4.809 2.38796 4.90864 2.38244 5.08344C2.37613 5.2785 2.38244 5.47356 2.38244 5.66904V6.24789H2.68869C2.68869 5.73321 2.69184 5.22783 2.68396 4.72245C2.67872 4.6904 2.66664 4.66009 2.64866 4.63387C2.63068 4.60765 2.60728 4.58623 2.5803 4.5713C2.31109 4.46068 2.03676 4.36442 1.75258 4.25929L1.65562 4.56919Z" fill="#66C61C"/>
<path d="M6.96077 5.60283C6.56662 5.60283 6.17247 5.60283 5.77832 5.60283C5.5442 5.60283 5.46537 5.51839 5.463 5.27266C5.4609 4.81921 5.4609 4.36562 5.463 3.91189C5.463 3.67165 5.54183 3.58678 5.76374 3.58594C6.3053 3.58594 6.84647 3.58889 7.38763 3.58594C7.57801 3.58594 7.70295 3.67038 7.78493 3.85024C7.98556 4.29609 8.19327 4.73688 8.39547 5.18315C8.5078 5.43099 8.41084 5.60156 8.15346 5.60536C7.75813 5.60536 7.35925 5.60283 6.96077 5.60283ZM7.82789 5.0852C7.68088 4.7639 7.54372 4.45611 7.3967 4.15381C7.37936 4.11792 7.3092 4.09512 7.26308 4.0947C6.93318 4.08963 6.60288 4.09217 6.27298 4.09217H5.94781V5.0852H7.82789Z" fill="#66C61C"/>
<path d="M2.52917 7.55489C2.52917 7.63933 2.5335 7.72378 2.52917 7.80822C2.52814 7.87251 2.50362 7.9338 2.46089 7.97895C2.41815 8.0241 2.36059 8.04951 2.30056 8.04972C2.17089 8.04676 2.07708 7.97035 2.06407 7.83397C2.0483 7.64999 2.0483 7.46485 2.06407 7.28088C2.07668 7.14577 2.16971 7.06978 2.30293 7.07442C2.43615 7.07906 2.51143 7.16308 2.52523 7.30199C2.52938 7.38637 2.52938 7.47093 2.52523 7.55531L2.52917 7.55489Z" fill="#66C61C"/>
<path d="M3.86044 7.56133C3.86044 7.64071 3.8636 7.72008 3.86044 7.79904C3.86059 7.86326 3.83796 7.92515 3.79712 7.97218C3.75629 8.01921 3.70031 8.04787 3.6405 8.05236C3.58056 8.05695 3.52131 8.03625 3.47543 7.99467C3.42955 7.9531 3.40066 7.89395 3.39495 7.82986C3.38332 7.65092 3.38332 7.47133 3.39495 7.29239C3.39701 7.26047 3.40514 7.22935 3.41886 7.20094C3.43257 7.17252 3.45157 7.14742 3.47469 7.12716C3.49781 7.10691 3.52455 7.09194 3.55327 7.08318C3.58199 7.07442 3.61208 7.07205 3.64169 7.07622C3.77412 7.08762 3.84743 7.17037 3.85886 7.3097C3.86556 7.39414 3.85886 7.47858 3.85886 7.56302L3.86044 7.56133Z" fill="#66C61C"/>
<path d="M2.73045 7.56136C2.72592 7.47177 2.72592 7.38199 2.73045 7.29241C2.73231 7.23332 2.7558 7.17738 2.79585 7.13669C2.8359 7.096 2.88929 7.07383 2.94448 7.07497C3.06824 7.06653 3.16914 7.12902 3.18097 7.26075C3.19811 7.45946 3.19811 7.65945 3.18097 7.85817C3.16993 7.99032 3.06627 8.05619 2.94448 8.04774C2.82268 8.0393 2.74109 7.96583 2.72966 7.82988C2.72414 7.74248 2.73045 7.65087 2.73045 7.56136Z" fill="#66C61C"/>
<path d="M5.91813 6.76345C5.84443 6.76345 5.77033 6.76767 5.69702 6.76345C5.63746 6.7615 5.58079 6.73553 5.53834 6.69076C5.49588 6.64599 5.47077 6.5857 5.46801 6.52194C5.46528 6.45769 5.48602 6.39482 5.52582 6.34666C5.56563 6.29851 5.62137 6.26885 5.68125 6.26397C5.83875 6.25315 5.99673 6.25315 6.15423 6.26397C6.21482 6.26775 6.27166 6.29668 6.31267 6.3446C6.35369 6.39253 6.37565 6.45569 6.37391 6.52068C6.37217 6.58567 6.34685 6.64738 6.30333 6.6927C6.25981 6.73803 6.20152 6.76341 6.14083 6.76345C6.06555 6.76767 5.99184 6.76345 5.91813 6.76345Z" fill="#66C61C"/>
<path d="M5.49882 10.6584C6.44911 10.6584 7.3998 10.6559 8.35009 10.6584C8.77577 10.6584 9.11789 10.9962 9.17465 11.4509C9.22707 11.8731 8.9622 12.2953 8.56411 12.4114C8.46379 12.4376 8.36072 12.4499 8.25747 12.4477C6.41574 12.45 4.57375 12.45 2.7315 12.4477C2.29045 12.4477 1.97671 12.2286 1.85294 11.8435C1.80904 11.7084 1.7961 11.5639 1.81522 11.4223C1.83434 11.2806 1.88496 11.146 1.96281 11.0297C2.04066 10.9134 2.14347 10.8188 2.26257 10.754C2.38166 10.6892 2.51356 10.6559 2.64715 10.6571C3.59784 10.6546 4.54813 10.6584 5.49882 10.6584ZM2.64518 11.9373C2.692 11.9376 2.73843 11.9281 2.78178 11.9092C2.82514 11.8903 2.86457 11.8623 2.8978 11.827C2.93104 11.7917 2.95741 11.7497 2.97541 11.7034C2.99341 11.6571 3.00268 11.6074 3.00268 11.5573C3.00315 11.5059 2.99411 11.455 2.9761 11.4075C2.95809 11.3599 2.93145 11.3166 2.89773 11.2801C2.86401 11.2437 2.82388 11.2147 2.77965 11.195C2.73542 11.1752 2.68798 11.165 2.64006 11.165C2.59221 11.1655 2.54493 11.1761 2.501 11.1965C2.45708 11.2168 2.41741 11.2464 2.38434 11.2834C2.35127 11.3204 2.32546 11.3642 2.30846 11.4121C2.29145 11.46 2.28358 11.5111 2.28532 11.5623C2.28594 11.6123 2.29574 11.6616 2.31417 11.7075C2.33259 11.7533 2.35928 11.7949 2.3927 11.8297C2.42612 11.8645 2.46562 11.8919 2.50895 11.9104C2.55227 11.9289 2.59856 11.938 2.64518 11.9373ZM6.44478 11.9373C6.51573 11.9364 6.58488 11.9132 6.64356 11.8704C6.70224 11.8277 6.74785 11.7674 6.77468 11.697C6.80151 11.6267 6.80836 11.5494 6.79438 11.4749C6.7804 11.4003 6.74621 11.3319 6.69609 11.2781C6.64597 11.2243 6.58215 11.1875 6.51261 11.1724C6.44308 11.1572 6.37092 11.1644 6.30517 11.193C6.23942 11.2216 6.18301 11.2703 6.14299 11.3331C6.10297 11.3958 6.08112 11.4699 6.08019 11.5459C6.07982 11.5973 6.08899 11.6484 6.10717 11.696C6.12534 11.7437 6.15216 11.787 6.18606 11.8235C6.21997 11.86 6.26029 11.8889 6.3047 11.9086C6.34911 11.9282 6.39672 11.9383 6.44478 11.9381V11.9373ZM8.33669 11.9373C8.40817 11.9384 8.47835 11.9168 8.53832 11.8751C8.59828 11.8334 8.64531 11.7736 8.67343 11.7032C8.70154 11.6328 8.70947 11.555 8.6962 11.4798C8.68293 11.4045 8.64906 11.3352 8.5989 11.2806C8.54875 11.2261 8.48457 11.1887 8.41454 11.1734C8.34451 11.158 8.2718 11.1653 8.20565 11.1943C8.1395 11.2233 8.08291 11.2728 8.04308 11.3364C8.00324 11.3999 7.98196 11.4748 7.98196 11.5514C7.98244 11.6523 8.01957 11.749 8.08548 11.8211C8.1514 11.8932 8.24093 11.935 8.33511 11.9377L8.33669 11.9373ZM4.18473 11.5336C4.18179 11.6098 4.20007 11.6853 4.23726 11.7503C4.27444 11.8154 4.32884 11.8672 4.39355 11.899C4.45826 11.9309 4.53036 11.9414 4.60066 11.9292C4.67097 11.9171 4.73632 11.8828 4.7884 11.8308C4.84048 11.7788 4.87694 11.7113 4.89314 11.637C4.90935 11.5627 4.90456 11.485 4.8794 11.4136C4.85423 11.3422 4.80983 11.2805 4.75182 11.2362C4.69382 11.192 4.62484 11.1672 4.55365 11.165C4.45913 11.1625 4.36744 11.1997 4.29819 11.2687C4.22895 11.3376 4.18765 11.4329 4.18315 11.534L4.18473 11.5336ZM5.34589 11.1722V11.9322H5.6821C5.5875 11.6725 5.58277 11.4255 5.68604 11.1722H5.34589ZM7.24766 11.9322H7.58662C7.47981 11.6721 7.494 11.4226 7.5815 11.1722H7.24805L7.24766 11.9322ZM3.73973 11.9322V11.1722H3.44649V11.9322H3.73973Z" fill="#66C61C"/>
</g>
<defs>
<clipPath id="clip0_341_5910">
<rect width="14.6667" height="10.6667" fill="white" transform="translate(0.666504 2.66602)"/>
</clipPath>
</defs>
</svg>
