<svg width="40" height="40" viewBox="0 0 40 40" fill="none" xmlns="http://www.w3.org/2000/svg">
<g clip-path="url(#clip0_338_3837)">
<path d="M-3.8147e-05 22.3348C0.0260035 22.2666 0.0551692 22.2003 0.0770442 22.131C0.435378 20.9823 1.34788 20.3322 2.6208 20.3322C6.91455 20.3322 11.2083 20.3322 15.502 20.3322H29.3062V19.8583C29.3062 17.522 29.3062 15.186 29.3062 12.8503C29.3062 11.2207 30.3375 10.2412 32.0489 10.2402H34.625C36.0406 10.2402 37.0343 10.8774 37.5864 12.0964C38.3062 13.6794 38.9843 15.2853 39.6812 16.8802C39.7854 17.1167 39.8895 17.3511 39.9937 17.5866V25.304C39.8677 25.4871 39.7541 25.679 39.6135 25.8502C38.9885 26.613 38.1385 26.8169 37.177 26.7199C36.8583 26.6872 36.7062 26.4795 36.6948 26.1826C36.6833 25.8858 36.7989 25.6672 37.1114 25.589C37.2772 25.5587 37.4458 25.5448 37.6145 25.5474C38.3437 25.5227 38.8375 25.0705 38.8718 24.3859C38.8833 24.1553 38.8718 23.9228 38.8718 23.6695C37.8614 23.7952 36.9739 23.6052 36.277 22.9413C36.0237 22.6972 35.8519 22.3874 35.7833 22.0509C35.6135 21.0773 36.3302 20.3006 37.3718 20.264C37.85 20.2472 38.3302 20.264 38.8687 20.264C38.8083 19.3369 39.051 18.3633 38.6458 17.4244C37.9555 15.8255 37.2645 14.2266 36.5729 12.6277C36.1823 11.7263 35.6104 11.3603 34.5937 11.3583C33.7354 11.3583 32.8763 11.3583 32.0166 11.3583C31.1239 11.3583 30.6177 11.846 30.6177 12.6979C30.6177 15.3186 30.6177 17.9398 30.6177 20.5618C30.6177 21.3177 30.4812 21.4523 29.6947 21.4523H2.83329C1.69371 21.4523 1.24996 21.8738 1.24996 22.9522C1.24996 23.4469 1.24371 23.9416 1.24996 24.4363C1.24711 24.5912 1.27725 24.7451 1.33858 24.8887C1.3999 25.0323 1.49114 25.1626 1.60683 25.2718C1.72251 25.381 1.86025 25.4669 2.01176 25.5243C2.16327 25.5817 2.32543 25.6094 2.4885 25.6058C3.13955 25.6147 3.79059 25.6058 4.44059 25.6058C4.93017 25.6058 5.16975 25.8037 5.16975 26.1915C5.17705 26.616 4.91767 26.8525 4.426 26.8554C3.801 26.8554 3.176 26.8554 2.551 26.8554C1.28434 26.8495 0.415581 26.2222 0.0593313 25.0587C0.0409446 25.0128 0.0186595 24.9685 -0.00732422 24.9261L-3.8147e-05 22.3348ZM37.901 21.4542V21.4602C37.7197 21.4602 37.526 21.4226 37.3593 21.4711C37.2827 21.4933 37.2115 21.5298 37.1499 21.5786C37.0884 21.6274 37.0377 21.6874 37.001 21.755C36.9635 21.847 37.0604 22.0657 37.1604 22.1152C37.4845 22.2871 37.8299 22.42 38.1885 22.5109C38.5479 22.5921 38.7312 22.4179 38.75 22.0815C38.7739 21.6333 38.6458 21.472 38.252 21.4552C38.1354 21.4493 38.0208 21.4542 37.901 21.4542Z" fill="#66C61C"/>
<path d="M9.7469 29.9993C8.96899 29.9987 8.20878 29.7788 7.56258 29.3674C6.91637 28.956 6.41326 28.3717 6.11701 27.6885C5.82075 27.0053 5.74468 26.254 5.89843 25.5296C6.05217 24.8053 6.4288 24.1407 6.98062 23.6199C7.53244 23.0991 8.2346 22.7455 8.99813 22.6041C9.76167 22.4627 10.5522 22.5398 11.2696 22.8255C11.987 23.1113 12.5989 23.5929 13.0279 24.2093C13.4568 24.8257 13.6835 25.5491 13.6792 26.288C13.6778 26.777 13.575 27.261 13.3766 27.7122C13.1782 28.1634 12.8881 28.5731 12.5229 28.9178C12.1577 29.2625 11.7245 29.5354 11.2482 29.721C10.7719 29.9065 10.2617 30.0011 9.7469 29.9993ZM9.75837 28.812C10.4689 28.7988 11.1458 28.5225 11.6448 28.0419C12.1438 27.5613 12.4252 26.9145 12.4292 26.2395C12.4304 25.905 12.3612 25.5736 12.2256 25.2648C12.0901 24.956 11.8909 24.676 11.6399 24.4414C11.3888 24.2067 11.091 24.022 10.7637 23.8983C10.4365 23.7745 10.0866 23.714 9.7344 23.7205C8.2969 23.7324 7.06878 24.8979 7.06149 26.2573C7.0542 27.6168 8.31045 28.816 9.75837 28.811V28.812Z" fill="#66C61C"/>
<path d="M32.0094 22.5353C32.7856 22.5392 33.5432 22.7614 34.1866 23.1739C34.83 23.5863 35.3304 24.1706 35.6246 24.8529C35.9188 25.5351 35.9936 26.2849 35.8396 27.0075C35.6857 27.7302 35.3098 28.3933 34.7595 28.9133C34.2092 29.4332 33.5091 29.7867 32.7474 29.9291C31.9858 30.0715 31.1969 29.9965 30.4801 29.7134C29.7634 29.4304 29.151 28.952 28.7201 28.3387C28.2893 27.7254 28.0594 27.0047 28.0594 26.2674C28.0571 25.775 28.1579 25.2871 28.3559 24.8321C28.5539 24.3771 28.8451 23.9639 29.2126 23.6167C29.5801 23.2694 30.0166 22.995 30.4967 22.8094C30.9768 22.6238 31.491 22.5306 32.0094 22.5353ZM32.0094 28.8122C33.4573 28.8052 34.6885 27.6249 34.6844 26.2397C34.6844 24.7823 33.5531 23.7197 32.0125 23.7197C30.5594 23.7197 29.3041 24.8961 29.3041 26.2624C29.3041 27.6288 30.5687 28.8181 32.0115 28.8122H32.0094Z" fill="#66C61C"/>
<path d="M35.5271 18.6733C34.9667 18.6733 34.4073 18.6812 33.848 18.6733C32.6844 18.6535 31.9511 17.95 31.9448 16.8518C31.9393 15.9989 31.9393 15.146 31.9448 14.2931C31.9521 13.2503 32.6646 12.5379 33.7532 12.4964C34.2469 12.4776 34.7428 12.4835 35.2365 12.4964C35.6928 12.5062 35.9303 12.716 35.9355 13.0821C35.9407 13.4482 35.6938 13.6698 35.2146 13.6757C34.7719 13.6827 34.3292 13.6757 33.8875 13.6757C33.3667 13.6846 33.1959 13.8578 33.1948 14.3614C33.1948 15.178 33.1948 15.9939 33.1948 16.8092C33.1948 17.3039 33.3782 17.478 33.9021 17.481C35.048 17.487 36.1938 17.481 37.3396 17.481C37.7865 17.481 38.0011 17.6383 38.049 17.9648C38.1084 18.3735 37.8698 18.6475 37.4021 18.6574C36.7771 18.6742 36.1521 18.6574 35.5271 18.6574V18.6733Z" fill="#66C61C"/>
<path d="M20.9375 26.8625C19 26.8625 17.0625 26.8714 15.126 26.8496C15.0024 26.8455 14.8809 26.8182 14.7684 26.7693C14.656 26.7204 14.5548 26.6508 14.4708 26.5647C14.1937 26.2213 14.4708 25.7385 14.9198 25.6811C14.9973 25.6742 15.0753 25.6722 15.1531 25.6752H26.6666C27.1531 25.6752 27.3958 25.8394 27.4291 26.1877C27.475 26.6082 27.2208 26.8585 26.7177 26.8595C24.883 26.8635 23.0493 26.8635 21.2166 26.8595L20.9375 26.8625Z" fill="#66C61C"/>
<path d="M31.9458 20.6285C31.9458 20.4434 31.9375 20.2574 31.9458 20.0724C31.9656 19.7192 32.1781 19.5193 32.5281 19.5065C32.9 19.4936 33.1531 19.6865 33.1802 20.0487C33.2047 20.4305 33.2047 20.8135 33.1802 21.1954C33.1573 21.5595 32.9052 21.7554 32.5344 21.7445C32.1635 21.7336 31.9594 21.5239 31.9427 21.1509C31.9354 20.9777 31.9427 20.8046 31.9427 20.6324L31.9458 20.6285Z" fill="#66C61C"/>
<path d="M20.1604 14.0263C19.8604 14.0263 19.5563 13.9907 19.2636 14.0333C18.6146 14.1322 18.1052 13.9135 17.6271 13.5148C17.0792 13.0597 16.499 12.6382 15.9261 12.2117C14.974 11.5033 13.9 11.2105 12.6844 11.2669C11.2248 11.3159 9.79288 11.6589 8.48335 12.2731C7.50939 12.7381 6.51564 13.1745 5.5021 13.5593C5.09793 13.7117 4.61773 13.7127 4.17086 13.7295C3.81877 13.7434 3.61773 13.8285 3.55419 14.1926C3.45627 14.7486 3.35522 15.2938 2.84585 15.7074C2.53335 15.9587 2.81773 16.7413 3.2021 16.8778C3.83544 17.1024 4.46981 17.3231 5.10106 17.5516C5.55939 17.7169 5.75731 18.0374 5.62189 18.3689C5.4896 18.6845 5.12919 18.7834 4.69273 18.6281C4.0594 18.4038 3.42572 18.1806 2.79169 17.9583C2.08232 17.7079 1.6219 17.2657 1.61877 16.5108C1.61877 16.0952 1.6344 15.6787 1.6719 15.2651C1.69247 15.1413 1.76171 15.0296 1.86565 14.9524C2.28232 14.6556 2.32293 14.2034 2.41877 13.777C2.60106 12.9647 3.10835 12.4848 3.98127 12.5125C4.77502 12.5383 5.44898 12.2949 6.13544 11.9901C7.24169 11.4954 8.33127 10.9542 9.48023 10.5743C11.1042 10.037 12.7979 9.82628 14.5125 10.1676C15.6688 10.3972 16.5698 11.0888 17.4698 11.7645C17.6948 11.9327 17.9469 12.0812 18.1302 12.284C18.5813 12.7787 19.1334 12.8677 19.7969 12.841C22.1094 12.749 24.3584 13.0389 26.5011 13.9413C27.4771 14.3538 27.9854 14.9722 27.8886 16.0101C27.8521 16.4059 27.8959 16.8016 27.8792 17.1974C27.8365 18.2017 26.9802 18.8606 25.7594 18.639C25.424 18.5776 25.2979 18.3303 25.3219 18.0265C25.3212 17.8946 25.3729 17.7673 25.4668 17.6701C25.5607 17.5729 25.6897 17.5129 25.8281 17.5022C26.5646 17.3923 26.5646 17.3903 26.5646 16.6799C26.5479 16.4456 26.55 16.2105 26.5709 15.9765C26.65 15.4966 26.4011 15.273 25.9708 15.086C24.1219 14.2737 22.1761 13.9759 20.1604 14.0263Z" fill="#66C61C"/>
<path d="M25.1781 17.5965C25.1786 18.0999 25.0217 18.5922 24.7274 19.0109C24.4331 19.4296 24.0146 19.756 23.5249 19.9486C23.0352 20.1413 22.4963 20.1916 21.9765 20.0932C21.4567 19.9948 20.9793 19.7521 20.6048 19.3958C20.2303 19.0395 19.9755 18.5857 19.8728 18.0918C19.77 17.5979 19.8238 17.0862 20.0274 16.6214C20.231 16.1565 20.5752 15.7595 21.0165 15.4807C21.4578 15.2018 21.9762 15.0535 22.5063 15.0547C22.8579 15.0535 23.2062 15.1185 23.5312 15.2459C23.8562 15.3732 24.1514 15.5605 24.3998 15.7968C24.6482 16.0331 24.8449 16.3138 24.9785 16.6227C25.1121 16.9316 25.1799 17.2626 25.1781 17.5965ZM21.0719 17.6054C21.0733 17.8736 21.1585 18.1355 21.3166 18.3577C21.4746 18.58 21.6985 18.7528 21.96 18.8542C22.2214 18.9557 22.5087 18.9812 22.7854 18.9276C23.0621 18.874 23.3159 18.7437 23.5146 18.5531C23.7134 18.3625 23.8482 18.1203 23.902 17.8569C23.9558 17.5936 23.9262 17.321 23.8169 17.0737C23.7077 16.8263 23.5236 16.6153 23.2881 16.4672C23.0526 16.3192 22.7762 16.2408 22.4938 16.242C22.3047 16.238 22.1169 16.2706 21.9416 16.3379C21.7662 16.4052 21.6072 16.5057 21.4742 16.6333C21.3411 16.7609 21.2368 16.9129 21.1677 17.08C21.0985 17.2471 21.0659 17.4259 21.0719 17.6054Z" fill="#66C61C"/>
<path d="M5.69474 17.6149C5.69074 16.9387 5.96971 16.2886 6.4703 15.8078C6.97088 15.3269 7.65208 15.0546 8.36402 15.0508C9.07596 15.047 9.76032 15.312 10.2666 15.7875C10.7728 16.2629 11.0595 16.91 11.0635 17.5862C11.0655 17.921 10.998 18.253 10.8649 18.563C10.7319 18.8731 10.5358 19.1552 10.2879 19.3933C10.0401 19.6314 9.74526 19.8208 9.42033 19.9507C9.09541 20.0806 8.74673 20.1484 8.39422 20.1503C8.0417 20.1521 7.69224 20.0881 7.3658 19.9617C7.03936 19.8353 6.74233 19.649 6.49166 19.4136C6.24099 19.1782 6.04159 18.8982 5.90486 18.5895C5.76812 18.2809 5.69673 17.9497 5.69474 17.6149ZM6.94474 17.5911C6.93913 17.7709 6.97176 17.9499 7.04068 18.1174C7.10961 18.2849 7.21342 18.4374 7.34589 18.5659C7.47835 18.6944 7.63674 18.7962 7.8116 18.8652C7.98645 18.9342 8.17417 18.969 8.36349 18.9674C8.55286 18.9703 8.74093 18.9373 8.91674 18.8704C9.09255 18.8035 9.25256 18.704 9.38745 18.5778C9.52233 18.4515 9.62938 18.301 9.70235 18.135C9.77532 17.969 9.81275 17.7908 9.81244 17.6109C9.81666 17.4311 9.78269 17.2524 9.71257 17.0853C9.64246 16.9183 9.53763 16.7664 9.40433 16.6387C9.27104 16.511 9.11203 16.4101 8.93678 16.342C8.76153 16.274 8.57364 16.2401 8.38432 16.2426C8.19531 16.2366 8.007 16.2673 7.83087 16.3327C7.65475 16.3982 7.4945 16.497 7.3599 16.6232C7.2253 16.7494 7.11917 16.9003 7.04797 17.0667C6.97677 17.2331 6.94201 17.4115 6.94579 17.5911H6.94474Z" fill="#66C61C"/>
<path d="M15.5083 17.7852C16.7052 17.7852 17.9041 17.7852 19.0999 17.7852C19.5427 17.7852 19.7499 17.9435 19.7999 18.2799C19.8172 18.3559 19.8175 18.4345 19.8008 18.5106C19.7841 18.5867 19.7507 18.6587 19.7029 18.7218C19.6551 18.7849 19.5939 18.8378 19.5232 18.8771C19.4526 18.9163 19.374 18.9411 19.2926 18.9497C19.1768 18.9662 19.0597 18.9728 18.9426 18.9695C16.626 18.9695 14.3093 18.9695 11.9927 18.9695C11.7843 18.9695 11.4916 18.9546 11.376 18.831C11.2272 18.6438 11.1573 18.4105 11.1801 18.177C11.2114 17.8742 11.501 17.7891 11.7989 17.7891L15.5083 17.7852Z" fill="#66C61C"/>
</g>
<defs>
<clipPath id="clip0_338_3837">
<rect width="40" height="20" fill="white" transform="translate(0 10)"/>
</clipPath>
</defs>
</svg>
