<svg width="16" height="16" viewBox="0 0 16 16" fill="none" xmlns="http://www.w3.org/2000/svg">
<g clip-path="url(#clip0_346_2062)">
<path d="M14.6664 9.45912V14.1206C14.5856 14.4044 14.4033 14.5867 14.1195 14.6675H12.5309C12.1261 14.5286 11.9893 14.2414 11.9962 13.8254C12.0125 12.8532 12.0014 11.881 12.0014 10.9088V10.7459C10.8719 11.864 9.54552 12.4442 7.99274 12.4414C6.43997 12.4386 5.11948 11.8588 3.99969 10.7466V10.922C3.99969 11.9331 3.99969 12.9442 3.99969 13.9553C3.99969 14.3025 3.83754 14.5313 3.52642 14.6393C3.50733 14.6474 3.48877 14.6567 3.47087 14.6671H1.88232C1.59899 14.5859 1.41566 14.4046 1.33545 14.1202V9.45912C1.38059 9.3862 1.41149 9.29662 1.47434 9.24453C1.54934 9.18168 1.55976 9.11571 1.55976 9.02995C1.55837 7.79315 1.55837 6.55634 1.55976 5.31953C1.55976 5.24141 1.55976 5.16328 1.56497 5.08551C1.58093 4.75626 1.72527 4.44638 1.96705 4.22231C2.18545 4.0178 2.41462 3.8244 2.64656 3.63516C2.86531 3.45634 3.15941 3.4487 3.40004 3.60044C3.42781 3.6178 3.45628 3.63516 3.4851 3.65217C3.50177 3.63238 3.51358 3.61988 3.52399 3.60599C4.36728 2.47428 5.47839 1.75669 6.85733 1.45322C7.10594 1.39905 7.3608 1.37161 7.61253 1.33203H8.39378C8.4266 1.34151 8.46001 1.34881 8.49378 1.35391C9.95212 1.49627 11.1723 2.11143 12.1542 3.19939C12.2841 3.34314 12.4018 3.49835 12.5247 3.64766C12.9066 3.42023 13.1292 3.43933 13.4702 3.72613C13.6028 3.83794 13.7295 3.95738 13.8664 4.06363C14.2771 4.38307 14.4566 4.79801 14.4507 5.31884C14.4389 6.55946 14.4462 7.80044 14.4483 9.04106C14.4481 9.09505 14.4616 9.1482 14.4875 9.19558C14.5379 9.28898 14.6049 9.37231 14.6664 9.45912ZM11.3459 4.68967C10.4594 3.45669 9.2733 2.81988 7.75351 2.9046C6.43406 2.97856 5.40941 3.61189 4.65246 4.69801C5.14517 4.95287 5.22677 5.29419 4.92781 5.81502C4.97486 5.82425 5.02239 5.83086 5.07017 5.83481C5.39934 5.84523 5.72989 5.85842 6.05802 5.85946C6.13441 5.85946 6.21115 5.81815 6.28649 5.79245C6.43302 5.74176 6.57469 5.66155 6.72504 5.64141C7.49555 5.53976 8.27537 5.5295 9.0483 5.61085C9.30906 5.63724 9.56462 5.67509 9.78372 5.83828C9.8178 5.85669 9.85663 5.86443 9.89517 5.86051C10.2424 5.85356 10.5896 5.84476 10.9368 5.83412C10.9836 5.82963 11.03 5.82197 11.0757 5.8112C10.7747 5.4355 10.8295 4.94106 11.3459 4.68967ZM1.78232 9.55842C1.77989 9.59766 1.77677 9.62266 1.77677 9.64766C1.77677 11.0828 1.77677 12.5191 1.77677 13.9563C1.77677 14.1428 1.8601 14.223 2.05004 14.2234C2.45814 14.2247 2.86601 14.2247 3.27365 14.2234C3.47399 14.2234 3.55142 14.1477 3.55142 13.9501C3.55142 12.5749 3.55142 11.1995 3.55142 9.82405C3.55142 9.63134 3.47642 9.55912 3.28128 9.55842C2.90802 9.55842 2.5351 9.55842 2.16184 9.55842H1.78232ZM14.2226 9.56537C14.1705 9.56259 14.1323 9.55877 14.0945 9.55877C13.6387 9.55877 13.183 9.55877 12.7275 9.55877C12.5174 9.55877 12.4466 9.62821 12.4466 9.83967C12.4466 11.2054 12.4466 12.5722 12.4466 13.94C12.4466 14.1484 12.5219 14.223 12.7275 14.2237C13.1268 14.2237 13.526 14.2237 13.925 14.2237C14.148 14.2237 14.2226 14.1494 14.2226 13.9279C14.2226 12.5133 14.2226 11.0987 14.2226 9.68412V9.56537ZM3.66253 7.87717C3.64691 7.88967 3.63684 7.89349 3.63476 7.89974C3.50698 8.29314 3.56531 8.69835 3.55559 9.10079C3.55727 9.11505 3.56221 9.12874 3.57004 9.14078C3.57787 9.15283 3.58837 9.16291 3.60073 9.17023C3.91566 9.32509 4.02121 9.59002 3.99691 9.92196C3.99342 9.96897 3.99978 10.0162 4.01556 10.0606C4.03135 10.105 4.05621 10.1457 4.08858 10.18C6.08371 12.5671 9.76288 12.615 11.8254 10.2817C11.9462 10.1452 12.0191 10.0112 12.0056 9.82023C11.9851 9.53377 12.1233 9.32405 12.3716 9.1803C12.392 9.16529 12.4089 9.14609 12.4212 9.12399C12.4336 9.10189 12.441 9.0774 12.4431 9.05217C12.45 8.80912 12.4559 8.56606 12.4431 8.32301C12.4348 8.1737 12.392 8.02613 12.3646 7.87752C11.8438 9.95877 10.0191 11.34 7.98198 11.3306C5.97052 11.3213 4.16323 9.96259 3.66253 7.87717ZM13.9861 9.10669C13.9916 9.07601 13.9953 9.04506 13.9973 9.01398C13.9973 7.73805 13.9973 6.46201 13.9973 5.18585C13.999 5.05315 13.9707 4.92177 13.9146 4.80153C13.8584 4.68128 13.7758 4.57527 13.673 4.49141C13.5017 4.34442 13.3302 4.19766 13.1587 4.05113C12.9414 3.86641 12.7736 3.92543 12.7177 4.20564C12.6386 4.60078 12.5584 4.99592 12.482 5.39176C12.4615 5.49592 12.4233 5.58169 12.3125 5.61572C12.2018 5.64974 12.1295 5.59592 12.0591 5.52474C11.9427 5.40807 11.8289 5.28828 11.7073 5.17752C11.6874 5.15716 11.6635 5.14107 11.6372 5.13023C11.6109 5.11938 11.5826 5.114 11.5541 5.11443C11.5256 5.11485 11.4975 5.12106 11.4715 5.13268C11.4455 5.1443 11.4221 5.16109 11.4028 5.18203C11.3167 5.26814 11.3132 5.38551 11.3955 5.48759C11.4174 5.51433 11.4431 5.53794 11.4677 5.56259C11.7684 5.86328 12.0664 6.1671 12.3705 6.46293C12.4872 6.57578 12.5674 6.69558 12.5914 6.86051C12.6186 7.02738 12.6552 7.19257 12.7011 7.3553C12.84 7.88655 12.9309 8.42266 12.89 8.97474C12.8892 9.01926 12.891 9.06378 12.8955 9.10808L13.9861 9.10669ZM3.10872 9.10669C3.10872 9.02717 3.10698 8.9546 3.10872 8.88203C3.11566 8.62266 3.09413 8.35808 3.13719 8.1046C3.21288 7.65669 3.32399 7.21467 3.43059 6.77266C3.45425 6.68134 3.501 6.59764 3.56635 6.5296C3.89482 6.18967 4.23198 5.85808 4.56496 5.52266C4.68649 5.40044 4.6976 5.2796 4.60177 5.18134C4.50594 5.08308 4.37816 5.08898 4.25038 5.21398C4.14622 5.31814 4.04205 5.42231 3.93788 5.52648C3.86844 5.59592 3.78962 5.64662 3.68302 5.61189C3.57643 5.57717 3.53996 5.49766 3.52017 5.39731C3.43823 4.98065 3.35663 4.56398 3.26774 4.14731C3.22191 3.93308 3.04691 3.87648 2.87851 4.01641C2.7049 4.16051 2.53823 4.31259 2.36358 4.45495C2.11011 4.66328 1.99934 4.92439 2.00073 5.25148C2.00594 6.48759 2.00281 7.7237 2.00316 8.95981C2.00316 9.00599 2.00698 9.05217 2.00941 9.10391L3.10872 9.10669ZM12.0771 4.94002L12.1216 4.92023C12.1657 4.70009 12.2039 4.47856 12.2559 4.26051C12.2696 4.21325 12.2719 4.16342 12.2625 4.11513C12.2532 4.06683 12.2325 4.02145 12.2021 3.98273C11.2257 2.61953 9.90142 1.85669 8.22851 1.78932C6.40385 1.71606 4.93927 2.45148 3.84274 3.91676C3.74691 4.04488 3.7108 4.16502 3.75385 4.32266C3.80802 4.52092 3.83962 4.72543 3.88788 4.9612C3.99205 4.84974 4.09031 4.77335 4.1483 4.67266C5.82712 1.75148 10.0452 1.69939 11.7955 4.57891C11.8743 4.70912 11.9827 4.82092 12.0771 4.94071V4.94002ZM4.19135 8.07162C4.56357 9.41363 5.81149 10.5605 7.24066 10.8053C7.24344 10.7673 7.24344 10.7291 7.24066 10.6911C7.15629 10.1077 7.07191 9.52439 6.98198 8.9421C6.97551 8.91965 6.96411 8.89893 6.94861 8.88145C6.93311 8.86397 6.91391 8.85017 6.8924 8.84106C6.54517 8.72335 6.30733 8.49384 6.18962 8.14662C6.16427 8.07196 6.12573 8.04245 6.05385 8.03585C5.85976 8.01953 5.66566 7.99558 5.47087 7.98551C5.04246 7.9668 4.6133 7.99591 4.19135 8.07231V8.07162ZM8.74622 10.8133C10.4348 10.5008 11.524 9.16467 11.8018 8.08481C11.7948 8.07995 11.7882 8.07231 11.7806 8.07092C11.1648 7.95992 10.5348 7.95206 9.91635 8.04766C9.87955 8.05321 9.83476 8.10426 9.81983 8.14419C9.69309 8.48724 9.46531 8.72578 9.11392 8.83863C9.04448 8.86016 9.02191 8.89384 9.01219 8.96502C8.95837 9.35981 8.89726 9.75391 8.83858 10.1484C8.80767 10.3619 8.77851 10.581 8.74622 10.8133ZM7.9924 8.44558C8.25247 8.44558 8.51323 8.44558 8.7733 8.44558C9.07365 8.44349 9.29761 8.2869 9.39379 8.00252C9.51288 7.64974 9.62955 7.29592 9.74101 6.94037C9.87642 6.50391 9.61636 6.12543 9.16427 6.07231C8.38376 5.98151 7.59531 5.98221 6.81497 6.0744C6.40212 6.12231 6.13406 6.49731 6.25316 6.89905C6.36496 7.27648 6.49031 7.65044 6.61739 8.02335C6.70732 8.28724 6.93302 8.44245 7.21253 8.44488C7.47156 8.44627 7.73198 8.44419 7.9924 8.44453V8.44558ZM10.1535 6.34592C10.332 6.76814 10.125 7.16571 9.99691 7.59071C10.6514 7.498 11.2879 7.52613 11.948 7.64488C11.965 7.35321 11.9827 7.08203 11.9938 6.81155C11.9923 6.7569 11.9714 6.70457 11.9348 6.66398C11.8049 6.52509 11.6684 6.39002 11.5306 6.25808C11.5013 6.22902 11.4621 6.21224 11.4209 6.2112C11.0035 6.25043 10.5868 6.2994 10.1525 6.34488L10.1535 6.34592ZM5.85247 6.32509C5.8404 6.31954 5.82785 6.31512 5.81496 6.31189C5.40559 6.27717 4.99587 6.24245 4.5858 6.21085C4.54472 6.21008 4.50484 6.22469 4.47399 6.25183C4.33267 6.38655 4.19622 6.52578 4.05941 6.66537C4.03372 6.68776 4.01595 6.71783 4.00872 6.75113C3.99089 7.05048 4.01425 7.35085 4.07816 7.64384C4.71277 7.52069 5.36323 7.50204 6.00385 7.58863C5.87017 7.16085 5.66844 6.76224 5.85247 6.32405V6.32509ZM7.42573 8.89453C7.5233 9.56259 7.61879 10.2171 7.71531 10.8761H8.2851C8.38233 10.2084 8.47712 9.55669 8.5733 8.89453H7.42573Z" fill="#66C61C"/>
<path d="M8.00844 6.22472C8.18432 6.22633 8.35576 6.28017 8.50099 6.37941C8.64622 6.47864 8.75868 6.61878 8.82411 6.78206C8.88954 6.94533 8.90497 7.12436 8.86846 7.29642C8.83195 7.46848 8.74513 7.62581 8.61903 7.74844C8.49294 7.87106 8.33324 7.95345 8.16023 7.98515C7.98721 8.01685 7.80869 7.99642 7.64731 7.92646C7.48593 7.85651 7.34897 7.74017 7.25383 7.59223C7.15869 7.44429 7.10965 7.27141 7.11295 7.09555C7.11435 6.97951 7.13865 6.86489 7.18446 6.75826C7.23026 6.65163 7.29666 6.55509 7.37986 6.47418C7.46306 6.39328 7.56141 6.32959 7.66928 6.28678C7.77714 6.24398 7.8924 6.22288 8.00844 6.22472ZM8.44316 7.10597C8.44332 7.047 8.4317 6.98859 8.40899 6.93417C8.38628 6.87975 8.35294 6.83041 8.31091 6.78904C8.26889 6.74768 8.21903 6.71511 8.16426 6.69327C8.10949 6.67142 8.0509 6.66073 7.99194 6.66181C7.93299 6.6629 7.87484 6.67574 7.82091 6.69959C7.76698 6.72345 7.71835 6.75782 7.67788 6.80071C7.6374 6.8436 7.6059 6.89413 7.58521 6.94935C7.56452 7.00457 7.55507 7.06337 7.55739 7.12229C7.56197 7.23809 7.61174 7.34748 7.69602 7.42702C7.78031 7.50656 7.8924 7.54991 8.00827 7.54777C8.12414 7.54564 8.23455 7.49819 8.31585 7.4156C8.39715 7.33301 8.44285 7.22186 8.44316 7.10597Z" fill="#66C61C"/>
</g>
<defs>
<clipPath id="clip0_346_2062">
<rect width="13.3333" height="13.3333" fill="white" transform="translate(1.3335 1.33398)"/>
</clipPath>
</defs>
</svg>
