<svg width="16" height="16" viewBox="0 0 16 16" fill="none" xmlns="http://www.w3.org/2000/svg">
<g clip-path="url(#clip0_346_2057)">
<path d="M15.9995 8.37455C15.9995 8.84236 15.9995 9.31016 15.9995 9.77797C15.9995 9.99268 15.9387 10.0659 15.7121 10.1033C15.2269 10.1881 14.7414 10.2703 14.2557 10.3501C14.2078 10.3536 14.1622 10.3707 14.1252 10.3992C14.0882 10.4276 14.0616 10.4659 14.0491 10.5089C13.8576 10.9922 13.4715 11.2764 12.9223 11.3237C12.3639 11.3714 11.9298 11.151 11.6432 10.7022C11.5912 10.6199 11.5419 10.5895 11.4388 10.5895C8.8794 10.5922 6.31951 10.5922 3.75918 10.5895C3.71931 10.5853 3.67902 10.5928 3.64407 10.6111C3.60911 10.6293 3.58129 10.6573 3.56458 10.6911C3.03676 11.5471 1.76696 11.5438 1.23602 10.6858C1.22073 10.654 1.19495 10.6275 1.16237 10.6101C1.1298 10.5927 1.09212 10.5854 1.05475 10.5891C0.810387 10.5944 0.566024 10.5924 0.321661 10.5891C0.102623 10.5891 0.0039879 10.499 0.00354361 10.2987C0.00354361 9.69201 -0.00223224 9.08531 0.00354361 8.47861C0.00813594 8.11862 0.134102 7.76895 0.363835 7.47847C0.593567 7.18799 0.91559 6.97121 1.2849 6.85843C1.31037 6.84851 1.33666 6.84053 1.36353 6.83457C1.84782 6.76465 2.22814 6.52279 2.59335 6.23569C3.09674 5.84 3.62367 5.46981 4.13683 5.08399C4.50444 4.80417 4.96767 4.65471 5.44351 4.66239C8.56958 4.66568 11.6958 4.66568 14.8222 4.66239C15.0825 4.66239 15.1332 4.69447 15.2247 4.92358C15.4637 5.51464 15.705 6.1053 15.9387 6.69842C15.9758 6.79428 15.9953 6.89521 15.9964 6.99704C16.0027 7.45936 15.9995 7.91798 15.9995 8.37455ZM6.92301 10.0914V5.17325H6.40275C6.40275 5.56071 6.40275 5.93584 6.40275 6.31096C6.40275 6.83498 6.07974 7.1336 5.51415 7.1336C4.60379 7.1336 3.69254 7.148 2.78306 7.12784C2.33959 7.11616 1.89772 7.18232 1.48083 7.32281C1.29556 7.38533 1.12539 7.48733 0.947673 7.57248L0.970778 7.62759C1.15694 7.62759 1.34354 7.62759 1.5297 7.62759C1.82916 7.62759 1.93757 7.79212 1.80383 8.04549C1.65011 8.33342 1.48794 8.62134 1.33777 8.9142C1.26712 9.05199 1.16449 9.11739 0.998324 9.10999C0.84593 9.103 0.693092 9.10999 0.54292 9.10999V10.0889H1.0583C1.15338 9.36007 1.64922 8.8887 2.33832 8.86484C2.66349 8.84927 2.98328 8.94634 3.23535 9.13714C3.56102 9.38023 3.71431 9.70558 3.73964 10.091L6.92301 10.0914ZM7.47439 10.098C8.13106 10.098 8.76907 10.098 9.40752 10.0951C9.46609 10.0903 9.52097 10.0665 9.56258 10.0281C10.1739 9.46674 10.7829 8.90337 11.3895 8.33794C11.4271 8.30919 11.453 8.26944 11.4628 8.22524C11.4686 7.86698 11.4664 7.50831 11.4664 7.14512H7.47439V10.098ZM12.0009 5.16215V5.3423C12.0009 6.31919 12.0009 7.29607 12.0035 8.27254C12.0063 8.33623 11.9942 8.39971 11.9679 8.45864C11.9417 8.51757 11.902 8.57055 11.8516 8.61394C11.3629 9.06104 10.8741 9.51308 10.389 9.96348C10.3499 10.0001 10.313 10.0387 10.2628 10.0869H11.4562C11.5637 9.41478 11.9542 8.99071 12.5482 8.89405C12.8347 8.84274 13.1314 8.88032 13.3924 9.00099C13.7843 9.18156 14.0113 9.48429 14.1193 9.87175C14.5445 9.80018 14.9537 9.73273 15.3633 9.65992C15.4024 9.65293 15.4642 9.61427 15.4651 9.58877C15.4726 9.34938 15.4695 9.10999 15.4695 8.86114C15.1998 8.86114 14.9506 8.86402 14.7013 8.86114C14.4792 8.85744 14.3694 8.72417 14.4223 8.52221C14.5018 8.21784 14.5849 7.91429 14.6689 7.61114C14.7173 7.43757 14.7942 7.38327 14.9874 7.38121C15.1465 7.38121 15.3051 7.38121 15.4628 7.38121V7.13442H15.2767C14.6382 7.13442 13.9998 7.13442 13.3613 7.13442C12.8846 7.13195 12.5425 6.81524 12.5385 6.37554C12.5354 6.02098 12.5385 5.66642 12.5385 5.31145V5.16215H12.0009ZM11.4602 5.16996H7.48194V6.6322H11.4602V5.16996ZM15.3495 6.6392C15.1509 6.14973 14.963 5.68493 14.772 5.22178C14.7624 5.20564 14.749 5.19179 14.7326 5.18136C14.7162 5.17092 14.6975 5.1642 14.6778 5.16173C14.1446 5.15803 13.6163 5.15927 13.0712 5.15927C13.0712 5.58786 13.065 6.00247 13.0743 6.41667C13.0774 6.55035 13.1814 6.6359 13.3271 6.63714C13.9895 6.6429 14.6547 6.6429 15.3486 6.6429L15.3495 6.6392ZM2.89991 6.6392C3.83605 6.6392 4.72642 6.64166 5.61634 6.63672C5.77451 6.63672 5.86559 6.5269 5.86781 6.36526C5.87137 6.13409 5.86781 5.90334 5.86781 5.67218V5.16215C5.74296 5.16215 5.63811 5.16749 5.53414 5.16215C5.10229 5.13664 4.73441 5.26415 4.40475 5.52493C4.06797 5.79146 3.71342 6.03908 3.36687 6.29533C3.22203 6.39981 3.07763 6.50757 2.89902 6.64043L2.89991 6.6392ZM2.40408 10.8384C2.56195 10.8379 2.71613 10.7941 2.84719 10.7127C2.97826 10.6312 3.08035 10.5156 3.1406 10.3805C3.20085 10.2455 3.21657 10.0969 3.18577 9.95354C3.15497 9.81019 3.07903 9.6785 2.96752 9.57504C2.85602 9.47158 2.71393 9.40099 2.55916 9.37216C2.40439 9.34332 2.24387 9.35755 2.09782 9.41303C1.95177 9.46851 1.82672 9.56276 1.73843 9.68392C1.65014 9.80508 1.60255 9.94772 1.60168 10.0939C1.60168 10.291 1.68616 10.4801 1.83659 10.6197C1.98701 10.7593 2.19111 10.8379 2.40408 10.8384ZM13.6003 10.0943C13.5996 9.94748 13.5518 9.8042 13.4629 9.68264C13.374 9.56107 13.2481 9.46672 13.1011 9.41155C12.9542 9.35639 12.7929 9.34291 12.6376 9.37283C12.4824 9.40275 12.3403 9.47471 12.2293 9.57958C12.1184 9.68444 12.0436 9.81748 12.0145 9.96179C11.9854 10.1061 12.0033 10.2551 12.0659 10.39C12.1285 10.5249 12.233 10.6395 12.3661 10.7192C12.4992 10.799 12.655 10.8403 12.8135 10.8379C13.0238 10.8343 13.2241 10.7543 13.3713 10.6152C13.5185 10.4761 13.6007 10.289 13.6003 10.0943ZM0.542031 8.61723C0.61025 8.62078 0.678631 8.62078 0.74685 8.61723C0.808163 8.61024 0.898358 8.60818 0.921906 8.57281C1.01077 8.43584 1.08052 8.28488 1.16627 8.12529H1.01077C0.532258 8.12077 0.51715 8.13557 0.542031 8.61723ZM15.0114 8.36262H15.4557V7.8822H15.1398L15.0114 8.36262Z" fill="#66C61C"/>
<path d="M5.61589 7.38342C5.70475 7.38342 5.79361 7.37766 5.88247 7.38342C5.94998 7.38638 6.01366 7.41328 6.06031 7.45854C6.10697 7.5038 6.13301 7.56395 6.13305 7.62651C6.13474 7.68917 6.10973 7.74992 6.06342 7.79564C6.01711 7.84136 5.95323 7.86837 5.88558 7.87083C5.6972 7.87947 5.50793 7.87947 5.31955 7.87083C5.25217 7.8689 5.18828 7.84265 5.14154 7.79769C5.0948 7.75272 5.06891 7.69261 5.06941 7.63021C5.06781 7.56741 5.09272 7.5065 5.13884 7.46042C5.18496 7.41434 5.24868 7.38672 5.31644 7.38342C5.41552 7.37807 5.51593 7.38342 5.61589 7.38342Z" fill="#66C61C"/>
<path d="M8.26501 7.87552C8.17082 7.87552 8.07574 7.88169 7.98199 7.87552C7.91439 7.87191 7.85092 7.84419 7.80494 7.79817C7.75895 7.75214 7.73403 7.69141 7.73541 7.62873C7.73433 7.56598 7.76005 7.50538 7.80697 7.46009C7.85389 7.4148 7.91823 7.38849 7.98599 7.38688C8.17437 7.37906 8.36364 7.37865 8.55202 7.38688C8.62007 7.38945 8.68424 7.41685 8.73053 7.46309C8.77682 7.50933 8.80145 7.57066 8.79905 7.63367C8.79838 7.69614 8.77216 7.75604 8.72565 7.80131C8.67915 7.84658 8.61583 7.87383 8.54847 7.87758H8.51515H8.26501V7.87552Z" fill="#66C61C"/>
</g>
<defs>
<clipPath id="clip0_346_2057">
<rect width="16" height="6.66667" fill="white" transform="translate(0 4.66602)"/>
</clipPath>
</defs>
</svg>
