<svg width="24" height="24" viewBox="0 0 24 24" fill="none" xmlns="http://www.w3.org/2000/svg">
<path d="M16.0018 18.4226H8.34058" stroke="#4CA30D" stroke-width="1.5" stroke-linecap="round" stroke-linejoin="round"/>
<path d="M22.0044 13.0007H18.5029C18.2266 13.0007 18.0027 12.7767 18.0027 12.5005V8.99902H21.504" stroke="#4CA30D" stroke-width="1.5" stroke-linecap="round" stroke-linejoin="round"/>
<path d="M18.5595 17.4415C18.9887 17.8706 19.1171 18.5161 18.8849 19.0768C18.6527 19.6376 18.1055 20.0032 17.4985 20.0032C16.8916 20.0032 16.3444 19.6377 16.1121 19.0769C15.8798 18.5162 16.0082 17.8708 16.4373 17.4416L16.4374 17.4414C17.0234 16.8555 17.9735 16.8555 18.5595 17.4414V17.4414" stroke="#4CA30D" stroke-width="1.5" stroke-linecap="round" stroke-linejoin="round"/>
<path d="M1.99585 3.99679H9.99918" stroke="#4CA30D" stroke-width="1.5" stroke-linecap="round" stroke-linejoin="round"/>
<path d="M9.99927 3.99658C10.5518 3.99658 10.9997 4.44448 10.9997 4.997" stroke="#4CA30D" stroke-width="1.5" stroke-linecap="round" stroke-linejoin="round"/>
<path d="M10.9997 4.99707V10.9996" stroke="#4CA30D" stroke-width="1.5" stroke-linecap="round" stroke-linejoin="round"/>
<path d="M4.55757 17.4416C4.98677 17.8707 5.11518 18.5162 4.88294 19.0769C4.6507 19.6377 4.10354 20.0033 3.49659 20.0033C2.88964 20.0033 2.34244 19.6378 2.11015 19.077C1.87785 18.5163 2.00621 17.8709 2.43537 17.4417L2.43567 17.4414C2.71706 17.16 3.09871 17.0019 3.49665 17.002C3.89459 17.002 4.27621 17.1601 4.55755 17.4416V17.4416" stroke="#4CA30D" stroke-width="1.5" stroke-linecap="round" stroke-linejoin="round"/>
<path d="M7.73286 17.4416C8.16206 17.8707 8.29048 18.5162 8.05824 19.0769C7.82599 19.6377 7.27883 20.0033 6.67188 20.0033C6.06494 20.0033 5.51774 19.6378 5.28544 19.077C5.05315 18.5163 5.1815 17.8709 5.61066 17.4417L5.61096 17.4414C5.89235 17.16 6.274 17.0019 6.67194 17.002C7.06988 17.002 7.4515 17.1601 7.73284 17.4416V17.4416" stroke="#4CA30D" stroke-width="1.5" stroke-linecap="round" stroke-linejoin="round"/>
<path d="M18.9982 18.5028H21.0039C21.5564 18.5028 22.0043 18.0549 22.0043 17.5023V10.4717C22.0043 10.161 21.9319 9.85455 21.793 9.57666L20.5559 7.10336C20.2169 6.42564 19.5242 5.99756 18.7664 5.99756H14.001" stroke="#4CA30D" stroke-width="1.5" stroke-linecap="round" stroke-linejoin="round"/>
<path d="M1.99585 14.0007H14.0008V3.99658" stroke="#4CA30D" stroke-width="1.5" stroke-linecap="round" stroke-linejoin="round"/>
</svg>
